<svg width="250" height="251" viewBox="0 0 250 251" fill="none" xmlns="http://www.w3.org/2000/svg">
<path d="M231.2 125.267C231.2 125.267 236.265 125.552 234.345 136.767C232.425 147.982 230.5 153.792 230.5 153.792C230.5 153.792 230.32 156.292 232.32 156.067C234.32 155.842 238.265 153.867 239.82 155.917C241.375 157.967 240.405 160.842 237.495 163.917C234.585 166.992 228.45 173.982 227.9 174.617C227.35 175.252 227.01 176.492 228.4 176.547C229.79 176.602 239.44 174.662 240.085 179.302C240.73 183.942 231.21 191.192 230.185 192.002C229.16 192.812 229.035 193.397 229.33 194.002C229.625 194.607 232.83 193.657 235.575 193.217C238.32 192.777 241.63 192.757 241.78 195.462C241.93 198.167 237.21 205.417 222.235 211.742L215.105 214.242L209.29 209.382C197.48 198.212 195.6 189.767 196.685 187.287C197.77 184.807 200.845 185.977 203.285 187.357C205.725 188.737 208.37 190.747 208.86 190.277C209.35 189.807 209.435 189.222 208.76 188.102C208.085 186.982 201.705 176.852 203.935 172.737C206.165 168.622 214.525 173.817 215.845 174.237C217.165 174.657 217.275 173.377 216.985 172.607C216.695 171.837 213.395 163.107 211.745 159.222C210.095 155.337 210.11 152.327 212.37 150.907C214.55 149.532 217.565 152.752 219.37 153.672C221.175 154.592 221.87 152.172 221.87 152.172C221.87 152.172 222.115 146.022 224.24 134.862C226.365 123.702 231.32 125.267 231.32 125.267" fill="#EBEBEB"/>
<path d="M215.265 216.047C216.795 207.842 219.265 193.222 221.445 180.677C223.625 168.132 225.615 156.787 227.1 148.582C227.845 144.482 228.45 141.167 228.87 138.862C229.075 137.722 229.24 136.832 229.37 136.217C229.42 135.922 229.46 135.692 229.49 135.532C229.52 135.372 229.52 135.292 229.52 135.292C229.52 135.292 229.495 135.372 229.465 135.527C229.435 135.682 229.385 135.917 229.325 136.212C229.2 136.822 229.025 137.712 228.8 138.847C228.35 141.132 227.72 144.452 226.96 148.552C225.43 156.752 223.42 168.097 221.235 180.637C219.05 193.177 216.61 207.807 215.125 216.017" fill="#E0E0E0"/>
<path d="M234.415 158.877C234.252 158.96 234.098 159.059 233.955 159.172C233.67 159.377 233.265 159.672 232.765 160.062C231.765 160.822 230.42 161.912 228.955 163.137L225.21 166.297L224.075 167.247C223.926 167.354 223.789 167.477 223.665 167.612C223.829 167.529 223.985 167.43 224.13 167.317C224.415 167.117 224.82 166.817 225.315 166.427C226.315 165.652 227.64 164.547 229.105 163.317L232.865 160.192L234.01 159.247C234.159 159.141 234.295 159.016 234.415 158.877Z" fill="#E0E0E0"/>
<path d="M223.03 167.302C223.085 167.262 220.96 164.387 218.295 160.877C215.63 157.367 213.42 154.547 213.37 154.587C213.32 154.627 215.44 157.507 218.11 161.017C220.78 164.527 223 167.342 223.03 167.302Z" fill="#E0E0E0"/>
<path d="M220.545 186.712C220.413 186.582 220.269 186.465 220.115 186.362L218.9 185.457C217.87 184.697 216.46 183.637 214.945 182.412C213.43 181.187 212.09 180.032 211.125 179.192L209.99 178.192C209.86 178.058 209.711 177.942 209.55 177.847C209.662 177.995 209.787 178.133 209.925 178.257C210.18 178.512 210.55 178.877 211.015 179.312C211.95 180.187 213.275 181.367 214.795 182.592C216.315 183.817 217.75 184.862 218.795 185.592C219.325 185.957 219.755 186.242 220.06 186.437C220.21 186.548 220.373 186.64 220.545 186.712Z" fill="#E0E0E0"/>
<path d="M232.5 181.357C232.327 181.392 232.16 181.448 232 181.522L230.7 182.022C229.605 182.472 228.105 183.107 226.445 183.822C224.785 184.537 223.295 185.197 222.22 185.687L221 186.292C220.841 186.359 220.688 186.441 220.545 186.537C220.718 186.506 220.886 186.452 221.045 186.377L222.345 185.877C223.44 185.427 224.945 184.792 226.6 184.077C228.255 183.362 229.75 182.702 230.825 182.212L232.095 181.622C232.24 181.551 232.376 181.462 232.5 181.357Z" fill="#E0E0E0"/>
<path d="M232.5 198.772C232.284 198.822 232.075 198.894 231.875 198.987L230.205 199.647C228.8 200.217 226.865 201.017 224.735 201.912C222.605 202.807 220.68 203.632 219.29 204.237L217.65 204.967C217.445 205.05 217.247 205.15 217.06 205.267C217.274 205.215 217.483 205.143 217.685 205.052L219.355 204.392C220.76 203.822 222.695 203.022 224.825 202.127C226.955 201.232 228.88 200.407 230.27 199.802L231.91 199.072C232.115 198.99 232.312 198.889 232.5 198.772Z" fill="#E0E0E0"/>
<path d="M217.395 205.007C217.229 204.84 217.051 204.686 216.86 204.547L215.36 203.347C214.095 202.347 212.36 200.927 210.47 199.317C208.58 197.707 206.915 196.217 205.72 195.127L204.295 193.832C204.128 193.665 203.948 193.513 203.755 193.377C203.908 193.557 204.075 193.724 204.255 193.877C204.57 194.202 205.04 194.667 205.625 195.227C206.795 196.352 208.45 197.872 210.335 199.477C212.22 201.082 213.985 202.477 215.28 203.477C215.93 203.977 216.455 204.357 216.83 204.617C217.007 204.763 217.196 204.893 217.395 205.007Z" fill="#E0E0E0"/>
<path d="M54.0742 55.4423C53.5292 52.7523 55.2242 50.1973 58.1642 49.6023C59.4499 49.3424 60.7861 49.6039 61.879 50.3292C62.9718 51.0545 63.7318 52.1842 63.9917 53.4698C64.2516 54.7555 63.9902 56.0917 63.2649 57.1846C62.5396 58.2774 61.4099 59.0374 60.1242 59.2973C59.4733 59.4516 58.7981 59.4737 58.1385 59.3623C57.4789 59.2509 56.8484 59.0083 56.2842 58.6489C55.7201 58.2894 55.2338 57.8204 54.8542 57.2696C54.4746 56.7188 54.2094 56.0975 54.0742 55.4423ZM46.5742 16.0223L55.8292 14.1523L60.1792 43.7323L53.9992 44.9823L46.5742 16.0223Z" fill="#EBEBEB"/>
<path d="M62.2897 59.3873C61.2949 59.981 60.1562 60.2903 58.9977 60.2815C57.8392 60.2727 56.7054 59.9461 55.7197 59.3373C55.0757 58.9156 54.5227 58.3691 54.0934 57.7302C53.664 57.0913 53.3669 56.3729 53.2197 55.6173C52.5697 52.3823 54.6197 49.4273 57.9997 48.7423C58.7525 48.5638 59.5337 48.5397 60.2961 48.6713C61.0585 48.8028 61.7863 49.0875 62.4358 49.508C63.0852 49.9285 63.6428 50.4761 64.0748 51.1179C64.5069 51.7597 64.8045 52.4824 64.9497 53.2423C65.1071 53.9916 65.1153 54.7645 64.9737 55.5169C64.8321 56.2694 64.5436 56.9865 64.1247 57.6273C63.6543 58.3455 63.0268 58.9473 62.2897 59.3873ZM56.7897 51.0523C56.0729 51.468 55.5054 52.099 55.1679 52.8557C54.8304 53.6125 54.7401 54.4563 54.9097 55.2673C55.0114 55.7949 55.2183 56.2966 55.5181 56.7424C55.8179 57.1883 56.2045 57.5691 56.6547 57.8623C57.6262 58.4778 58.8015 58.6844 59.9247 58.4373C60.4693 58.3352 60.9884 58.1263 61.4518 57.8225C61.9152 57.5187 62.3138 57.1261 62.6247 56.6673C63.2125 55.7593 63.4157 54.6551 63.1897 53.5973C63.0873 53.0654 62.8779 52.5597 62.5742 52.1111C62.2705 51.6625 61.8788 51.2803 61.4229 50.9876C60.9671 50.6949 60.4565 50.4979 59.9222 50.4085C59.3879 50.319 58.841 50.3391 58.3147 50.4673C57.7851 50.5759 57.2779 50.7737 56.8147 51.0523H56.7897ZM60.5997 44.4823C60.5141 44.5364 60.4191 44.5737 60.3197 44.5923L54.1247 45.8423C53.9081 45.8809 53.6849 45.8365 53.4995 45.7179C53.3142 45.5993 53.1804 45.4152 53.1247 45.2023L45.7147 16.2423C45.6855 16.1269 45.6797 16.0068 45.6978 15.8892C45.7158 15.7715 45.7573 15.6587 45.8197 15.5573C45.8828 15.4561 45.9659 15.3689 46.0639 15.3009C46.1619 15.233 46.2728 15.1858 46.3897 15.1623L55.6447 13.2923C55.7619 13.2679 55.883 13.2678 56.0002 13.292C56.1175 13.3163 56.2286 13.3643 56.3266 13.4332C56.4245 13.5021 56.5073 13.5904 56.5698 13.6926C56.6322 13.7948 56.673 13.9087 56.6897 14.0273L61.0397 43.6173C61.0623 43.7863 61.035 43.9581 60.9613 44.1118C60.8876 44.2654 60.7706 44.3942 60.6247 44.4823H60.5997ZM54.5997 43.9823L59.1597 43.0623L55.0647 15.2223L47.6247 16.7223L54.5997 43.9823Z" fill="#EBEBEB"/>
<path d="M72.2895 52.0674C72.4282 51.7345 72.6329 51.4331 72.8912 51.1815C73.1495 50.9298 73.4561 50.7331 73.7926 50.6032C74.129 50.4733 74.4882 50.4129 74.8486 50.4257C75.209 50.4384 75.5631 50.524 75.8895 50.6774C76.2232 50.8016 76.5282 50.9923 76.7859 51.2379C77.0437 51.4835 77.249 51.7788 77.3892 52.1061C77.5295 52.4333 77.6018 52.7857 77.6019 53.1417C77.6019 53.4977 77.5297 53.8501 77.3895 54.1774C77.2574 54.5102 77.0594 54.8129 76.8074 55.0673C76.5554 55.3217 76.2547 55.5226 75.9232 55.658C75.5917 55.7934 75.2363 55.8605 74.8782 55.8553C74.5202 55.85 74.1669 55.7725 73.8395 55.6274C73.5002 55.5005 73.1898 55.3067 72.9269 55.0573C72.6641 54.808 72.4541 54.5083 72.3094 54.1762C72.1648 53.844 72.0885 53.4861 72.0851 53.1238C72.0817 52.7615 72.1512 52.4022 72.2895 52.0674ZM80.7895 32.0674L85.5195 34.0174L78.5645 48.6174L75.3995 47.3124L80.7895 32.0674Z" fill="#EBEBEB"/>
<path d="M74.7952 56.3223C74.4063 56.3052 74.0237 56.2188 73.6652 56.0673C72.8558 55.7438 72.2058 55.1154 71.8552 54.3173C71.61 53.7323 71.5472 53.087 71.6748 52.4656C71.8025 51.8443 72.1148 51.2761 72.5708 50.8352C73.0269 50.3943 73.6053 50.1013 74.2306 49.9947C74.8559 49.888 75.4988 49.9726 76.0752 50.2373C76.4679 50.3835 76.8269 50.608 77.1304 50.8971C77.4338 51.1862 77.6754 51.5339 77.8404 51.9191C78.0055 52.3044 78.0906 52.7192 78.0905 53.1383C78.0905 53.5574 78.0053 53.9721 77.8402 54.3573C77.601 54.9616 77.1788 55.4759 76.6328 55.8282C76.0868 56.1806 75.4443 56.3533 74.7952 56.3223ZM74.8452 50.9173C74.3977 50.8896 73.9529 51.003 73.5734 51.2416C73.1939 51.4803 72.899 51.8321 72.7302 52.2473C72.6164 52.5154 72.5578 52.8036 72.5578 53.0948C72.5578 53.386 72.6164 53.6743 72.7302 53.9423C72.9829 54.5121 73.45 54.9594 74.0302 55.1873C74.3072 55.3037 74.6047 55.3636 74.9052 55.3636C75.2056 55.3636 75.5031 55.3037 75.7802 55.1873C76.3176 54.9554 76.7417 54.5205 76.9602 53.9773C77.0742 53.7069 77.1323 53.4162 77.1308 53.1227C77.1293 52.8292 77.0682 52.5391 76.9514 52.2699C76.8345 52.0006 76.6643 51.7579 76.4509 51.5564C76.2376 51.3548 75.9856 51.1987 75.7102 51.0973C75.4341 50.9887 75.1416 50.9278 74.8452 50.9173ZM78.5452 49.1123C78.4901 49.1108 78.4358 49.0989 78.3852 49.0773L75.2202 47.7723C75.1111 47.721 75.0242 47.6321 74.9755 47.5219C74.9268 47.4116 74.9196 47.2875 74.9552 47.1723L80.3552 31.9023C80.4032 31.7792 80.498 31.6802 80.6189 31.6268C80.7397 31.5734 80.8768 31.57 81.0002 31.6173L85.7302 33.5673C85.8504 33.6191 85.9456 33.7161 85.9952 33.8373C86.0438 33.9576 86.0438 34.0921 85.9952 34.2123L79.0002 48.8423C78.9609 48.9287 78.8965 49.0013 78.8153 49.0503C78.7341 49.0994 78.6399 49.1228 78.5452 49.1173V49.1123ZM76.0002 47.0623L78.3302 48.0273L84.8902 34.2623L81.0852 32.6923L76.0002 47.0623Z" fill="#EBEBEB"/>
<path d="M32.7295 66.8173H207.27C209.646 66.8173 211.925 67.7613 213.605 69.4416C215.286 71.1219 216.23 73.4009 216.23 75.7773V217.377H23.7695V75.7723C23.7709 73.3968 24.7154 71.1191 26.3956 69.4398C28.0758 67.7606 30.3541 66.8173 32.7295 66.8173Z" fill="#FAFAFA"/>
<path d="M188.675 181.467C188.675 181.542 157.625 181.602 119.33 181.602C81.035 181.602 50 181.542 50 181.467C50 181.392 81.04 181.337 119.35 181.337C157.66 181.337 188.675 181.397 188.675 181.467Z" fill="#263238"/>
<path d="M175.935 190.117C175.935 190.187 152.205 190.247 122.935 190.247C93.6646 190.247 69.9346 190.187 69.9346 190.117C69.9346 190.047 93.6596 189.982 122.935 189.982C152.21 189.982 175.935 190.027 175.935 190.117Z" fill="#263238"/>
<path d="M216.225 66.8173H23.7695V125.202H216.225V66.8173Z" fill="#E53935"/>
<path d="M216.5 217.617H23.5V66.5673H216.5V217.617ZM24 217.117H216V67.0673H24V217.117Z" fill="#263238"/>
<path d="M103.375 143.867L99.0498 157.072H95.7698L92.8648 148.117L89.8648 157.057H86.5998L82.2598 143.852H85.4298L88.4298 153.137L91.5448 143.852H94.3748L97.3748 153.212L100.45 143.852L103.375 143.867Z" fill="#263238"/>
<path d="M113.095 151.282V157.072H110.34V155.812C109.79 156.732 108.735 157.227 107.245 157.227C104.865 157.227 103.45 155.902 103.45 154.152C103.45 152.402 104.715 151.112 107.81 151.112H110.15C110.15 149.847 109.395 149.112 107.81 149.112C106.759 149.104 105.733 149.435 104.885 150.057L103.83 147.997C105.135 147.165 106.658 146.738 108.205 146.772C111.3 146.772 113.095 148.207 113.095 151.282ZM110.15 153.867V152.827H108.15C106.775 152.827 106.34 153.327 106.34 154.017C106.34 154.707 106.96 155.242 108 155.242C108.458 155.27 108.912 155.151 109.299 154.904C109.685 154.657 109.983 154.294 110.15 153.867Z" fill="#263238"/>
<path d="M122.055 146.772V149.487C121.81 149.487 121.62 149.452 121.395 149.452C119.775 149.452 118.7 150.337 118.7 152.282V157.072H115.755V146.922H118.565V148.262C119.285 147.282 120.5 146.772 122.055 146.772Z" fill="#263238"/>
<path d="M134.19 151.262V157.072H131.245V151.717C131.245 150.072 130.49 149.322 129.19 149.322C127.775 149.322 126.755 150.187 126.755 152.057V157.057H123.81V146.907H126.625V148.117C127.058 147.671 127.581 147.321 128.159 147.09C128.737 146.859 129.358 146.752 129.98 146.777C132.38 146.772 134.19 148.167 134.19 151.262Z" fill="#263238"/>
<path d="M136.5 143.867C136.505 143.637 136.558 143.409 136.654 143.2C136.751 142.99 136.89 142.803 137.062 142.649C137.234 142.495 137.436 142.379 137.655 142.306C137.874 142.234 138.105 142.207 138.335 142.227C139.425 142.227 140.165 142.907 140.165 143.812C140.131 144.271 139.927 144.7 139.592 145.015C139.258 145.33 138.817 145.509 138.358 145.516C137.898 145.523 137.452 145.357 137.109 145.052C136.765 144.747 136.548 144.324 136.5 143.867ZM136.86 146.922H139.805V157.072H136.85L136.86 146.922Z" fill="#263238"/>
<path d="M152.91 151.262V157.072H149.965V151.717C149.965 150.072 149.21 149.322 147.91 149.322C146.495 149.322 145.475 150.187 145.475 152.057V157.057H142.53V146.907H145.34V148.117C145.775 147.671 146.299 147.321 146.878 147.091C147.457 146.86 148.078 146.753 148.7 146.777C151.095 146.772 152.91 148.167 152.91 151.262Z" fill="#263238"/>
<path d="M166.155 146.922V155.377C166.155 159.147 164.115 160.877 160.455 160.877C158.53 160.877 156.665 160.377 155.455 159.477L156.625 157.367C157.668 158.119 158.923 158.522 160.21 158.517C162.285 158.517 163.21 157.572 163.21 155.742V155.307C162.796 155.734 162.296 156.068 161.744 156.286C161.191 156.504 160.598 156.602 160.005 156.572C157.19 156.572 154.93 154.632 154.93 151.667C154.93 148.702 157.19 146.762 160.005 146.762C160.639 146.725 161.273 146.837 161.856 147.09C162.438 147.343 162.954 147.729 163.36 148.217V146.912L166.155 146.922ZM163.25 151.677C163.25 150.177 162.135 149.177 160.59 149.177C159.045 149.177 157.91 150.177 157.91 151.677C157.91 153.177 159.04 154.177 160.59 154.177C162.14 154.177 163.25 153.167 163.25 151.677Z" fill="#263238"/>
<path d="M168.46 155.507C168.494 155.051 168.699 154.623 169.035 154.312C169.371 154 169.812 153.827 170.27 153.827C170.728 153.827 171.169 154 171.505 154.312C171.841 154.623 172.046 155.051 172.08 155.507C172.08 155.987 171.889 156.448 171.55 156.787C171.21 157.127 170.75 157.317 170.27 157.317C169.79 157.317 169.33 157.127 168.99 156.787C168.651 156.448 168.46 155.987 168.46 155.507ZM168.5 143.867H172L171.415 152.487H169.1L168.5 143.867Z" fill="#263238"/>
<path d="M99.9546 169.117H97.0996L96.4996 170.467H95.9346L98.2796 165.337H98.8096L101.155 170.467H100.585L99.9546 169.117ZM99.7546 168.677L98.5246 165.922L97.2946 168.677H99.7546Z" fill="#263238"/>
<path d="M103.875 170.232C103.643 170.415 103.355 170.51 103.06 170.502C102.908 170.523 102.753 170.508 102.608 170.459C102.462 170.41 102.33 170.328 102.221 170.22C102.112 170.112 102.03 169.98 101.98 169.834C101.931 169.689 101.915 169.534 101.935 169.382V167.052H101.245V166.617H101.935V165.777H102.435V166.617H103.605V167.057H102.435V169.357C102.422 169.449 102.43 169.543 102.458 169.632C102.486 169.721 102.534 169.802 102.598 169.87C102.662 169.937 102.74 169.99 102.827 170.023C102.914 170.057 103.007 170.07 103.1 170.062C103.308 170.067 103.511 169.996 103.67 169.862L103.875 170.232Z" fill="#263238"/>
<path d="M106.745 170.232C106.515 170.415 106.228 170.511 105.935 170.502C105.783 170.524 105.627 170.509 105.481 170.461C105.335 170.412 105.202 170.33 105.093 170.222C104.983 170.114 104.9 169.981 104.851 169.836C104.801 169.69 104.785 169.535 104.805 169.382V167.052H104.12V166.617H104.805V165.777H105.305V166.617H106.5V167.057H105.325V169.357C105.312 169.45 105.32 169.544 105.348 169.633C105.377 169.723 105.425 169.804 105.489 169.872C105.554 169.94 105.633 169.992 105.72 170.025C105.808 170.058 105.902 170.071 105.995 170.062C106.203 170.066 106.405 169.995 106.565 169.862L106.745 170.232Z" fill="#263238"/>
<path d="M110.91 168.702H107.685C107.707 169.079 107.877 169.431 108.158 169.682C108.439 169.933 108.808 170.063 109.185 170.042C109.406 170.051 109.627 170.011 109.831 169.925C110.035 169.838 110.217 169.708 110.365 169.542L110.66 169.877C110.382 170.163 110.027 170.361 109.638 170.446C109.249 170.532 108.843 170.502 108.471 170.36C108.099 170.218 107.776 169.971 107.543 169.648C107.31 169.324 107.177 168.94 107.16 168.542C107.147 168.288 107.186 168.034 107.275 167.795C107.364 167.557 107.502 167.339 107.678 167.156C107.855 166.973 108.067 166.828 108.302 166.73C108.537 166.632 108.79 166.583 109.045 166.587C109.299 166.583 109.551 166.631 109.785 166.728C110.02 166.826 110.231 166.972 110.406 167.155C110.582 167.339 110.717 167.557 110.804 167.796C110.89 168.035 110.926 168.289 110.91 168.542C110.915 168.582 110.91 168.642 110.91 168.702ZM107.685 168.312H110.42C110.399 167.964 110.245 167.637 109.991 167.397C109.737 167.158 109.401 167.025 109.052 167.025C108.703 167.025 108.367 167.158 108.113 167.397C107.859 167.637 107.706 167.964 107.685 168.312Z" fill="#263238"/>
<path d="M115.525 168.232V170.467H115.025V168.282C115.049 168.121 115.036 167.957 114.987 167.801C114.939 167.646 114.855 167.504 114.743 167.385C114.632 167.267 114.495 167.175 114.342 167.118C114.19 167.06 114.027 167.038 113.865 167.052C113.681 167.039 113.496 167.066 113.323 167.132C113.151 167.197 112.995 167.3 112.867 167.433C112.739 167.565 112.641 167.724 112.581 167.899C112.521 168.073 112.5 168.259 112.52 168.442V170.467H112.02V166.617H112.52V167.327C112.676 167.085 112.894 166.888 113.151 166.758C113.409 166.628 113.697 166.569 113.985 166.587C114.198 166.581 114.41 166.619 114.607 166.701C114.804 166.783 114.981 166.906 115.127 167.061C115.272 167.217 115.383 167.402 115.452 167.604C115.52 167.806 115.545 168.02 115.525 168.232Z" fill="#263238"/>
<path d="M118.97 170.232C118.738 170.415 118.45 170.51 118.155 170.502C118.002 170.524 117.847 170.509 117.701 170.461C117.555 170.412 117.422 170.33 117.312 170.222C117.203 170.114 117.12 169.981 117.07 169.836C117.02 169.69 117.005 169.535 117.025 169.382V167.052H116.34V166.617H117.025V165.777H117.525V166.617H118.7V167.057H117.525V169.357C117.512 169.45 117.52 169.544 117.548 169.633C117.576 169.723 117.625 169.804 117.689 169.872C117.754 169.94 117.833 169.992 117.92 170.025C118.008 170.058 118.102 170.071 118.195 170.062C118.403 170.066 118.605 169.995 118.765 169.862L118.97 170.232Z" fill="#263238"/>
<path d="M119.795 165.397C119.806 165.303 119.851 165.217 119.921 165.154C119.992 165.091 120.083 165.056 120.177 165.056C120.272 165.056 120.363 165.091 120.434 165.154C120.504 165.217 120.549 165.303 120.56 165.397C120.549 165.491 120.504 165.578 120.434 165.641C120.363 165.704 120.272 165.738 120.177 165.738C120.083 165.738 119.992 165.704 119.921 165.641C119.851 165.578 119.806 165.491 119.795 165.397ZM119.915 166.612H120.415V170.467H119.915V166.612Z" fill="#263238"/>
<path d="M121.5 168.537C121.501 168.15 121.617 167.772 121.833 167.45C122.049 167.129 122.355 166.878 122.713 166.731C123.071 166.583 123.464 166.544 123.844 166.62C124.224 166.696 124.572 166.883 124.846 167.156C125.12 167.43 125.307 167.779 125.382 168.159C125.458 168.538 125.42 168.932 125.272 169.29C125.124 169.648 124.874 169.954 124.552 170.17C124.231 170.386 123.853 170.501 123.465 170.502C123.205 170.512 122.945 170.468 122.702 170.373C122.459 170.277 122.239 170.133 122.054 169.949C121.87 169.764 121.725 169.544 121.63 169.301C121.535 169.058 121.491 168.798 121.5 168.537ZM124.89 168.537C124.877 168.258 124.781 167.988 124.616 167.762C124.45 167.536 124.222 167.364 123.96 167.267C123.697 167.169 123.412 167.151 123.139 167.214C122.866 167.277 122.618 167.419 122.425 167.622C122.232 167.825 122.103 168.08 122.054 168.356C122.005 168.632 122.038 168.916 122.149 169.173C122.259 169.43 122.443 169.649 122.677 169.803C122.911 169.956 123.185 170.038 123.465 170.037C123.66 170.041 123.852 170.003 124.032 169.928C124.211 169.853 124.372 169.741 124.506 169.6C124.639 169.459 124.742 169.292 124.807 169.109C124.873 168.926 124.899 168.731 124.885 168.537H124.89Z" fill="#263238"/>
<path d="M130.025 168.232V170.467H129.525V168.282C129.549 168.121 129.536 167.957 129.487 167.801C129.439 167.646 129.355 167.504 129.243 167.385C129.132 167.267 128.995 167.175 128.842 167.118C128.69 167.06 128.527 167.038 128.365 167.052C128.181 167.039 127.996 167.066 127.823 167.132C127.651 167.197 127.495 167.3 127.367 167.433C127.239 167.565 127.141 167.724 127.081 167.899C127.021 168.073 127 168.259 127.02 168.442V170.467H126.52V166.617H127.02V167.327C127.176 167.085 127.394 166.888 127.651 166.758C127.909 166.628 128.197 166.569 128.485 166.587C128.698 166.581 128.91 166.619 129.107 166.701C129.304 166.783 129.481 166.906 129.627 167.061C129.772 167.217 129.883 167.402 129.952 167.604C130.02 167.806 130.045 168.02 130.025 168.232Z" fill="#263238"/>
<path d="M137.26 168.537C137.274 168.795 137.234 169.052 137.144 169.294C137.053 169.535 136.913 169.755 136.733 169.94C136.553 170.124 136.337 170.27 136.098 170.366C135.859 170.463 135.603 170.509 135.345 170.502C135.056 170.512 134.77 170.447 134.513 170.314C134.256 170.181 134.038 169.984 133.88 169.742V171.887H133.38V166.617H133.88V167.377C134.038 167.125 134.26 166.919 134.523 166.78C134.787 166.641 135.082 166.575 135.38 166.587C135.634 166.584 135.885 166.633 136.119 166.731C136.353 166.829 136.565 166.973 136.741 167.156C136.917 167.339 137.054 167.556 137.143 167.793C137.232 168.031 137.272 168.284 137.26 168.537ZM136.76 168.537C136.747 168.257 136.652 167.986 136.487 167.758C136.322 167.531 136.094 167.357 135.83 167.259C135.567 167.16 135.281 167.141 135.007 167.203C134.733 167.266 134.484 167.407 134.289 167.61C134.095 167.813 133.965 168.069 133.915 168.345C133.864 168.622 133.896 168.907 134.006 169.165C134.117 169.424 134.3 169.644 134.535 169.799C134.769 169.954 135.044 170.037 135.325 170.037C135.518 170.037 135.709 169.997 135.886 169.921C136.063 169.844 136.223 169.732 136.355 169.592C136.487 169.451 136.59 169.285 136.656 169.104C136.722 168.923 136.751 168.73 136.74 168.537H136.76Z" fill="#263238"/>
<path d="M138.325 165.032H138.825V170.467H138.325V165.032Z" fill="#263238"/>
<path d="M143.65 168.702H140.43C140.44 168.889 140.487 169.072 140.568 169.24C140.649 169.408 140.763 169.559 140.902 169.684C141.041 169.808 141.204 169.904 141.38 169.965C141.557 170.027 141.744 170.053 141.93 170.042C142.151 170.049 142.371 170.008 142.575 169.922C142.779 169.835 142.961 169.706 143.11 169.542L143.4 169.877C143.213 170.088 142.981 170.253 142.722 170.362C142.462 170.471 142.181 170.521 141.9 170.507C141.637 170.52 141.375 170.478 141.129 170.384C140.883 170.29 140.659 170.146 140.471 169.962C140.283 169.777 140.135 169.556 140.037 169.312C139.939 169.067 139.892 168.805 139.9 168.542C139.9 168.045 140.098 167.568 140.449 167.216C140.801 166.865 141.278 166.667 141.775 166.667C142.273 166.667 142.749 166.865 143.101 167.216C143.453 167.568 143.65 168.045 143.65 168.542C143.66 168.582 143.65 168.642 143.65 168.702ZM140.43 168.312H143.16C143.131 167.97 142.974 167.652 142.722 167.42C142.469 167.188 142.138 167.059 141.795 167.059C141.452 167.059 141.122 167.188 140.869 167.42C140.616 167.652 140.46 167.97 140.43 168.312Z" fill="#263238"/>
<path d="M147.5 168.077V170.467H147V169.862C146.857 170.079 146.659 170.252 146.425 170.365C146.192 170.478 145.933 170.525 145.675 170.502C144.805 170.502 144.27 170.047 144.27 169.382C144.27 168.717 144.65 168.292 145.77 168.292H147V168.057C147 167.397 146.625 167.057 145.91 167.057C145.441 167.05 144.985 167.212 144.625 167.512L144.39 167.122C144.839 166.779 145.394 166.603 145.96 166.622C146.955 166.582 147.5 167.082 147.5 168.077ZM147 169.307V168.677H145.79C145.045 168.677 144.79 168.972 144.79 169.367C144.79 169.762 145.15 170.092 145.765 170.092C146.027 170.11 146.289 170.044 146.511 169.902C146.733 169.761 146.904 169.553 147 169.307Z" fill="#263238"/>
<path d="M148.4 170.027L148.635 169.617C149.035 169.902 149.515 170.052 150.005 170.047C150.735 170.047 151.035 169.797 151.035 169.417C151.035 168.417 148.535 169.207 148.535 167.682C148.535 167.052 149.075 166.582 150.035 166.582C150.515 166.575 150.987 166.7 151.4 166.942L151.175 167.357C150.837 167.136 150.44 167.023 150.035 167.032C149.34 167.032 149.035 167.302 149.035 167.667C149.035 168.707 151.535 167.922 151.535 169.402C151.535 170.067 150.95 170.502 149.945 170.502C149.393 170.514 148.851 170.347 148.4 170.027Z" fill="#263238"/>
<path d="M155.87 168.702H152.65C152.672 169.079 152.842 169.431 153.123 169.682C153.404 169.933 153.773 170.063 154.15 170.042C154.371 170.049 154.591 170.008 154.795 169.922C154.998 169.835 155.181 169.706 155.33 169.542L155.625 169.877C155.347 170.163 154.992 170.361 154.603 170.446C154.214 170.532 153.808 170.502 153.436 170.36C153.064 170.218 152.741 169.971 152.508 169.648C152.275 169.324 152.142 168.94 152.125 168.542C152.111 168.288 152.15 168.034 152.238 167.796C152.327 167.557 152.464 167.34 152.64 167.156C152.816 166.973 153.028 166.828 153.263 166.73C153.498 166.632 153.75 166.583 154.005 166.587C154.259 166.583 154.511 166.631 154.746 166.728C154.981 166.826 155.192 166.971 155.368 167.155C155.544 167.339 155.679 167.557 155.767 167.796C155.854 168.034 155.891 168.289 155.875 168.542C155.88 168.582 155.87 168.642 155.87 168.702ZM152.65 168.312H155.38C155.35 167.97 155.194 167.652 154.941 167.42C154.688 167.188 154.358 167.059 154.015 167.059C153.672 167.059 153.341 167.188 153.088 167.42C152.836 167.652 152.679 167.97 152.65 168.312Z" fill="#263238"/>
<path d="M107.745 113.457C106.864 113.457 105.999 113.224 105.237 112.784C104.474 112.344 103.841 111.711 103.399 110.949C102.958 110.187 102.725 109.323 102.724 108.442C102.722 107.562 102.952 106.696 103.39 105.932L117.785 80.8222C118.222 80.0586 118.854 79.4248 119.617 78.9856C120.379 78.5463 121.245 78.3174 122.125 78.3222C123.005 78.3169 123.87 78.5456 124.633 78.9849C125.396 79.4242 126.028 80.0583 126.465 80.8222L141.015 105.847C141.466 106.608 141.707 107.475 141.714 108.36C141.72 109.244 141.492 110.115 141.052 110.883C140.613 111.65 139.977 112.287 139.211 112.729C138.444 113.171 137.574 113.402 136.69 113.397L107.74 113.487L107.745 113.457ZM122.145 79.7972C121.526 79.7968 120.918 79.9604 120.383 80.2713C119.848 80.5822 119.405 81.0294 119.1 81.5672L104.705 106.677C104.397 107.213 104.236 107.82 104.237 108.438C104.238 109.056 104.401 109.663 104.711 110.198C105.02 110.732 105.465 111.176 106 111.485C106.535 111.794 107.142 111.957 107.76 111.957L136.71 111.867C137.331 111.873 137.943 111.713 138.482 111.403C139.021 111.094 139.468 110.647 139.777 110.108C140.086 109.569 140.246 108.957 140.24 108.336C140.234 107.714 140.063 107.106 139.745 106.572L125.195 81.5722C124.889 81.0327 124.446 80.5841 123.91 80.2722C123.374 79.9603 122.765 79.7964 122.145 79.7972Z" fill="white"/>
<path d="M120.14 105.327C120.139 105.077 120.189 104.83 120.286 104.599C120.383 104.369 120.526 104.161 120.706 103.987C120.885 103.813 121.099 103.678 121.332 103.588C121.566 103.499 121.815 103.458 122.065 103.467C122.316 103.452 122.569 103.489 122.806 103.574C123.043 103.66 123.261 103.793 123.445 103.965C123.629 104.138 123.777 104.346 123.878 104.577C123.979 104.808 124.033 105.057 124.035 105.309C124.037 105.561 123.988 105.811 123.89 106.044C123.792 106.277 123.648 106.487 123.467 106.662C123.285 106.837 123.07 106.974 122.834 107.063C122.598 107.153 122.347 107.193 122.095 107.182C121.843 107.194 121.592 107.154 121.356 107.066C121.121 106.979 120.905 106.844 120.722 106.671C120.54 106.498 120.394 106.289 120.294 106.058C120.194 105.828 120.141 105.579 120.14 105.327ZM120.2 90.2473H123.75L123.25 101.472H120.875L120.2 90.2473Z" fill="white"/>
<path d="M104.055 119.117C103.83 119.068 103.611 118.991 103.405 118.887C102.828 118.639 102.276 118.338 101.755 117.987C100.015 116.823 98.6463 115.185 97.8097 113.266C96.9731 111.347 96.7042 109.229 97.0349 107.162C97.1274 106.542 97.2798 105.933 97.4899 105.342C97.5571 105.121 97.6494 104.908 97.7649 104.707C97.5294 105.528 97.3457 106.363 97.2149 107.207C96.9415 109.237 97.23 111.302 98.049 113.179C98.868 115.056 100.186 116.672 101.86 117.852C102.565 118.319 103.298 118.741 104.055 119.117Z" fill="white"/>
<path d="M97.8796 118.507C97.8796 118.507 97.7496 118.432 97.5446 118.252C97.256 118.003 96.9884 117.73 96.7446 117.437C95.9211 116.476 95.2729 115.378 94.8296 114.192C94.3835 113.007 94.1467 111.753 94.1296 110.487C94.1245 110.106 94.1463 109.725 94.1946 109.347C94.201 109.205 94.2296 109.065 94.2796 108.932C94.3246 108.932 94.2796 109.532 94.3146 110.482C94.4437 112.973 95.3416 115.363 96.8846 117.322C97.4996 118.067 97.9096 118.472 97.8796 118.507Z" fill="white"/>
<path d="M148.385 101.117C148.472 101.292 148.536 101.477 148.575 101.667C148.645 101.882 148.7 102.1 148.74 102.322C148.806 102.616 148.856 102.913 148.89 103.212C148.994 103.988 149.026 104.771 148.985 105.552C148.928 106.51 148.777 107.459 148.535 108.387C148.274 109.312 147.926 110.209 147.495 111.067C147.136 111.771 146.715 112.44 146.235 113.067C146.04 113.337 145.83 113.567 145.655 113.757C145.509 113.935 145.35 114.102 145.18 114.257C145.048 114.398 144.902 114.525 144.745 114.637C144.705 114.597 145.31 114.037 146.085 112.972C146.538 112.34 146.938 111.671 147.28 110.972C148.121 109.28 148.619 107.438 148.745 105.552C148.795 104.784 148.784 104.013 148.71 103.247C148.575 101.897 148.335 101.117 148.385 101.117Z" fill="white"/>
<path d="M151.66 106.617C151.745 107.05 151.769 107.493 151.73 107.932C151.655 110.066 151.074 112.152 150.035 114.017C149.841 114.412 149.592 114.778 149.295 115.102C149.463 114.701 149.655 114.31 149.87 113.932C150.804 112.057 151.372 110.02 151.545 107.932C151.557 107.492 151.595 107.053 151.66 106.617Z" fill="white"/>
<path d="M23.8852 143.207C23.8852 143.207 34.7452 140.322 35.3852 140.842C38.7152 143.497 56.3252 141.417 56.3252 141.417L73.1302 146.162C73.1302 146.162 75.8602 166.292 77.7052 174.162C78.9352 179.397 74.3152 187.267 74.3152 187.267L68.3852 208.767L73.5102 217.237L23.8652 217.212V143.212L23.8852 143.207Z" fill="#E53935"/>
<path d="M67.1105 166.357C67.1105 166.357 66.9606 166.357 66.6756 166.402C66.3906 166.447 65.9656 166.457 65.4256 166.522C63.8993 166.69 62.3824 166.933 60.8805 167.252C58.9705 167.642 56.7255 168.207 54.2255 168.817C52.9755 169.117 51.6555 169.427 50.2805 169.702C49.5905 169.832 48.8955 169.982 48.1705 170.052L47.6255 170.112H47.0755C46.7055 170.112 46.3355 170.142 45.9605 170.112C43.1683 169.958 40.3937 169.572 37.6655 168.957C35.1655 168.457 32.8855 167.902 30.9855 167.487C29.0855 167.072 27.5405 166.752 26.4855 166.592C25.9505 166.492 25.5255 166.452 25.2455 166.412C24.9655 166.372 24.8105 166.342 24.8105 166.342C24.8105 166.342 25.4155 166.377 26.4955 166.532C27.5755 166.687 29.1205 166.977 31.0255 167.377C32.9305 167.777 35.1905 168.302 37.7105 168.812C40.4329 169.42 43.2005 169.803 45.9855 169.957C46.3555 169.982 46.7255 169.957 47.0905 169.957H47.6355C47.8155 169.957 47.9905 169.917 48.1705 169.897C48.8855 169.832 49.5855 169.682 50.2705 169.552C51.6455 169.282 52.9605 168.972 54.2105 168.677C56.7105 168.077 58.9655 167.517 60.8755 167.147C62.9264 166.7 65.0129 166.435 67.1105 166.357Z" fill="#FAFAFA"/>
<path d="M69.245 204.852L68.855 204.587C68.61 204.402 68.23 204.157 67.74 203.842C66.3388 202.979 64.8464 202.273 63.29 201.737C60.98 200.951 58.5644 200.518 56.125 200.452C53.135 200.488 50.1511 200.732 47.195 201.182C44.2322 201.625 41.248 201.91 38.255 202.037C35.8047 202.118 33.3539 201.892 30.96 201.362C29.3474 200.996 27.7905 200.418 26.33 199.642C25.83 199.357 25.43 199.142 25.175 198.947C24.92 198.752 24.79 198.682 24.79 198.682C24.79 198.682 24.935 198.762 25.195 198.922C25.455 199.082 25.845 199.312 26.36 199.587C27.8282 200.341 29.3879 200.9 31 201.252C33.3859 201.766 35.8262 201.981 38.265 201.892C41.253 201.759 44.232 201.47 47.19 201.027C50.1522 200.573 53.1434 200.334 56.14 200.312C58.5934 200.382 61.0217 200.827 63.34 201.632C64.9012 202.179 66.3943 202.904 67.79 203.792C68.29 204.112 68.65 204.372 68.89 204.562C69.13 204.752 69.245 204.852 69.245 204.852Z" fill="#FAFAFA"/>
<path d="M69.9456 211.947C69.9456 211.947 69.7906 211.997 69.4906 212.077C69.1906 212.157 68.7556 212.272 68.1956 212.452C66.6207 212.964 65.0751 213.561 63.5656 214.242C61.3393 215.296 59.017 216.133 56.6306 216.742C55.2084 217.065 53.754 217.224 52.2956 217.217C50.7319 217.193 49.1737 217.026 47.6406 216.717C44.4906 216.077 41.5956 215.087 38.9306 214.322C36.5827 213.598 34.1695 213.106 31.7256 212.852C30.0786 212.687 28.4168 212.746 26.7856 213.027C26.2106 213.142 25.7856 213.237 25.4706 213.327C25.1556 213.417 25.0156 213.442 25.0156 213.442C25.0156 213.442 25.1656 213.387 25.4606 213.297C25.7556 213.207 26.2006 213.092 26.7756 212.967C28.4107 212.665 30.0798 212.589 31.7356 212.742C34.1892 212.983 36.6128 213.467 38.9706 214.187C41.6406 214.947 44.5356 215.927 47.6706 216.562C49.1957 216.868 50.7454 217.035 52.3006 217.062C53.7469 217.069 55.1893 216.913 56.6006 216.597C58.98 215.981 61.2967 215.144 63.5206 214.097C65.0357 213.422 66.5902 212.839 68.1756 212.352C68.7406 212.177 69.1756 212.072 69.4856 212.002L69.9456 211.947Z" fill="#FAFAFA"/>
<g opacity="0.3">
<path d="M69.8555 203.517C70.1005 195.947 71.3555 187.072 70.2605 180.017C71.7955 183.287 73.4305 190.582 73.4305 190.582C73.171 191.815 72.837 193.03 72.4305 194.222C71.5855 197.077 70.7055 200.672 69.8605 203.532" fill="black"/>
</g>
<path d="M73.0001 187.742C73.0001 187.742 72.8451 187.637 72.5651 187.427C72.1607 187.118 71.7383 186.832 71.3001 186.572C69.6618 185.637 67.8651 185.012 66.0001 184.727C63.2427 184.312 60.4362 184.348 57.6901 184.832C54.5851 185.332 51.2551 186.332 47.7201 187.172C44.1851 188.012 40.7201 188.672 37.5601 188.297C34.7716 187.997 32.0609 187.192 29.5601 185.922C28.6015 185.436 27.6879 184.865 26.8301 184.217C26.4651 183.912 26.1201 183.632 25.8301 183.357C25.5401 183.082 25.2751 182.812 25.0551 182.562L24.5001 181.867C24.3715 181.693 24.253 181.511 24.1451 181.322C23.9601 181.027 23.8701 180.862 23.8701 180.862C23.8701 180.862 23.9801 181.012 24.1701 181.307C24.2701 181.447 24.3751 181.642 24.5351 181.842L25.1001 182.522C25.3251 182.767 25.6001 183.022 25.8801 183.302C26.1601 183.582 26.5201 183.852 26.8801 184.147C27.7387 184.785 28.6523 185.346 29.6101 185.822C32.1038 187.071 34.8017 187.862 37.5751 188.157C40.7101 188.512 44.1651 187.857 47.6851 187.022C51.2051 186.187 54.5451 185.187 57.6851 184.692C60.4457 184.21 63.2668 184.187 66.0351 184.622C67.9026 184.919 69.6984 185.562 71.3301 186.517C71.7657 186.787 72.1848 187.083 72.5851 187.402C72.8651 187.617 73.0001 187.742 73.0001 187.742Z" fill="#FAFAFA"/>
<path d="M62.4551 204.802C62.3665 204.84 62.2744 204.868 62.1801 204.887L61.3751 205.082C60.6801 205.247 59.6701 205.472 58.4151 205.742C55.9151 206.277 52.4151 206.977 48.5951 207.682C44.7751 208.387 41.2551 208.962 38.7251 209.347C37.4601 209.537 36.4301 209.687 35.7251 209.777L34.9101 209.882C34.8139 209.896 34.7163 209.896 34.6201 209.882C34.7116 209.852 34.8052 209.829 34.9001 209.812L35.7101 209.662L38.7101 209.162C41.2101 208.732 44.7101 208.132 48.5651 207.427C52.4201 206.722 55.8801 206.052 58.3951 205.557L61.3701 204.982L62.1851 204.837C62.2735 204.816 62.3641 204.804 62.4551 204.802Z" fill="#263238"/>
<path d="M63.3957 187.062C63.3998 187.165 63.3914 187.267 63.3707 187.367C63.3357 187.562 63.3207 187.867 63.2307 188.227C63.0151 189.277 62.6795 190.299 62.2307 191.272C61.5628 192.712 60.7071 194.057 59.6857 195.272C58.4328 196.764 56.9945 198.09 55.4057 199.217C52.4859 201.201 49.3256 202.806 46.0007 203.992C44.7407 204.492 43.7057 204.832 43.0007 205.072L42.1757 205.347C42.0814 205.382 41.9844 205.408 41.8857 205.427C41.9706 205.371 42.0633 205.327 42.1607 205.297L42.9707 204.977L45.9707 203.822C49.2584 202.594 52.39 200.983 55.3007 199.022C56.8554 197.898 58.266 196.586 59.5007 195.117C60.5213 193.922 61.3818 192.599 62.0607 191.182C62.5205 190.223 62.8775 189.217 63.1257 188.182C63.3057 187.472 63.3707 187.062 63.3957 187.062Z" fill="#263238"/>
<path d="M40.2705 85.6173C45.1105 80.9973 52.6005 78.4223 58.6405 81.3023C62.7005 83.2373 65.3705 87.1923 68.8955 89.9823C71.4655 92.0173 74.6705 93.6273 75.9555 96.6423C77.0855 99.2973 76.4005 102.327 76.0155 105.187C75.6305 108.047 75.7255 111.372 77.8905 113.282C79.0255 114.282 80.5505 114.722 81.8405 115.517C84.4405 117.122 85.9155 120.122 86.3855 123.142C86.8555 126.162 86.4505 129.232 86.0455 132.262L73.3455 134.262L71.3855 130.707L70.5005 136.167L54.3305 137.117L40.2705 85.6173Z" fill="#263238"/>
<path d="M37.9998 90.7673L37.8548 94.2673L35.1548 146.877C34.8698 152.977 40.5398 158.377 47.0698 158.617C53.6698 158.877 56.5198 154.007 56.9098 147.847C57.3198 141.387 57.8698 134.592 57.8698 134.592C57.8698 134.592 66.2748 133.707 68.6548 122.952C69.8398 117.597 70.0998 108.727 70.0798 101.452C70.0752 99.9029 69.7576 98.3704 69.1459 96.9468C68.5343 95.5232 67.6413 94.2379 66.5205 93.168C65.3998 92.0982 64.0743 91.2658 62.6239 90.7209C61.1734 90.1761 59.6278 89.93 58.0798 89.9973L37.9998 90.7673Z" fill="#FFBE9D"/>
<path d="M66.3007 107.877C66.2826 108.241 66.1228 108.583 65.8556 108.831C65.5884 109.079 65.2349 109.212 64.8707 109.202C64.6931 109.205 64.5167 109.172 64.3518 109.106C64.1869 109.04 64.0368 108.942 63.9103 108.817C63.7837 108.692 63.6832 108.544 63.6146 108.38C63.546 108.216 63.5107 108.04 63.5107 107.862C63.5289 107.499 63.6879 107.158 63.9541 106.91C64.2202 106.663 64.5724 106.529 64.9357 106.537C65.114 106.533 65.2912 106.565 65.457 106.631C65.6228 106.696 65.7737 106.794 65.901 106.919C66.0282 107.044 66.1291 107.193 66.1978 107.358C66.2664 107.522 66.3015 107.699 66.3007 107.877Z" fill="#263238"/>
<path d="M67.8999 105.962C67.7149 106.132 66.7049 105.287 65.2099 105.202C63.7149 105.117 62.5649 105.797 62.4149 105.602C62.3399 105.517 62.5349 105.202 63.0349 104.882C63.7097 104.47 64.496 104.278 65.2849 104.332C66.0648 104.377 66.8105 104.667 67.4149 105.162C67.8549 105.547 67.9999 105.882 67.8999 105.962Z" fill="#263238"/>
<path d="M51.7305 107.407C51.7111 107.771 51.5509 108.112 51.284 108.36C51.0171 108.607 50.6643 108.741 50.3005 108.732C50.1222 108.736 49.9451 108.703 49.7796 108.637C49.614 108.571 49.4635 108.472 49.3367 108.347C49.2099 108.221 49.1096 108.072 49.0415 107.907C48.9735 107.742 48.9391 107.566 48.9405 107.387C48.9598 107.025 49.1193 106.684 49.3852 106.437C49.651 106.19 50.0025 106.055 50.3655 106.062C50.544 106.059 50.7213 106.091 50.8871 106.157C51.0529 106.224 51.2038 106.322 51.331 106.448C51.4581 106.573 51.559 106.722 51.6276 106.887C51.6962 107.052 51.7312 107.229 51.7305 107.407Z" fill="#263238"/>
<path d="M53.1451 105.352C52.9651 105.527 51.9551 104.682 50.4551 104.592C48.9551 104.502 47.8101 105.192 47.6601 104.997C47.5851 104.912 47.7801 104.597 48.2801 104.277C48.9553 103.866 49.7413 103.674 50.5301 103.727C51.3105 103.769 52.0569 104.06 52.6601 104.557C53.1001 104.937 53.2351 105.277 53.1451 105.352Z" fill="#263238"/>
<path d="M57.9199 116.797C57.9199 116.712 58.8599 116.607 60.3799 116.507C60.7649 116.507 61.1299 116.437 61.2149 116.177C61.2697 115.784 61.2034 115.382 61.0249 115.027L60.0699 112.027C58.7449 107.782 57.8149 104.302 57.9849 104.252C58.1549 104.202 59.3649 107.597 60.6899 111.842C61.0049 112.887 61.3099 113.887 61.5949 114.842C61.8058 115.314 61.8448 115.845 61.7049 116.342C61.6392 116.47 61.5458 116.581 61.4316 116.667C61.3174 116.754 61.1853 116.813 61.0449 116.842C60.8279 116.887 60.6061 116.903 60.3849 116.892C58.8649 116.932 57.9199 116.882 57.9199 116.797Z" fill="#263238"/>
<path d="M57.8902 134.617C52.7705 134.387 47.8151 132.741 43.5752 129.862C43.5752 129.862 46.6552 137.537 57.5752 137.172L57.8902 134.617Z" fill="#EB996E"/>
<path d="M56.6605 119.377C56.2567 119.158 55.8036 119.046 55.3441 119.051C54.8847 119.056 54.4342 119.179 54.0355 119.407C53.7445 119.564 53.4879 119.777 53.281 120.035C53.074 120.293 52.9208 120.589 52.8305 120.907C52.7448 121.216 52.7558 121.544 52.8623 121.846C52.9687 122.148 53.1653 122.41 53.4255 122.597C53.7526 122.749 54.1173 122.8 54.4734 122.744C54.8294 122.687 55.1608 122.527 55.4255 122.282C55.9784 121.772 56.4238 121.157 56.7355 120.472C56.8465 120.295 56.9212 120.098 56.9555 119.892C56.9713 119.797 56.9589 119.698 56.9198 119.61C56.8808 119.521 56.8167 119.445 56.7355 119.392" fill="#EB996E"/>
<path d="M52.615 101.117C52.56 101.547 51.05 101.677 49.375 102.257C47.7 102.837 46.41 103.612 46.1 103.302C45.965 103.152 46.1 102.727 46.6 102.217C47.2415 101.574 48.0263 101.093 48.89 100.812C49.748 100.512 50.6654 100.423 51.565 100.552C52.25 100.662 52.635 100.907 52.615 101.117Z" fill="#263238"/>
<path d="M68.5005 103.682C68.0905 103.907 67.0005 103.182 65.5605 102.707C64.1205 102.232 62.8305 102.072 62.6555 101.642C62.5855 101.437 62.8855 101.172 63.5155 101.037C64.3763 100.89 65.2607 100.971 66.0805 101.272C66.908 101.544 67.6483 102.03 68.2255 102.682C68.6355 103.177 68.6955 103.567 68.5005 103.682Z" fill="#263238"/>
<path d="M46.0002 84.6172C47.8802 87.3272 48.7502 89.3872 49.7802 94.1172C50.2802 96.4372 48.3552 98.0022 46.4502 99.3472C46.2455 99.4923 46.0077 99.5836 45.7585 99.613C45.5093 99.6423 45.2568 99.6087 45.024 99.5152C44.7912 99.4216 44.5855 99.2712 44.4259 99.0777C44.2663 98.8841 44.1577 98.6536 44.1102 98.4072C44.1102 98.4072 44.5002 105.617 41.8052 108.767C40.5352 110.242 40.4202 112.182 40.6602 113.827C40.9266 115.51 41.6852 117.075 42.8402 118.327C45.7602 121.597 46.4302 126.827 44.2202 130.632C43.585 131.569 42.9992 132.539 42.4652 133.537C42.1935 134.134 42.0553 134.782 42.0602 135.437C42.0803 135.821 41.9525 136.197 41.7032 136.489C41.4539 136.781 41.1021 136.967 40.7202 137.007C31.7287 138.013 22.6518 137.991 13.6652 136.942C13.3568 136.905 13.0675 136.773 12.8373 136.564C12.6071 136.356 12.4474 136.081 12.3802 135.777C11.7702 132.777 13.0552 129.552 14.6502 126.852C16.4352 123.852 18.6802 120.957 19.3702 117.522C20.0202 114.292 19.2502 110.757 20.6552 107.772C22.3752 104.112 26.7902 102.497 29.0802 99.1622C31.2452 96.0172 31.2152 91.7922 33.1652 88.5122C35.6652 84.2972 41.5652 82.5122 45.9952 84.6122" fill="#263238"/>
<path d="M46.3652 88.6173C49.7302 90.4873 51.1702 94.7223 54.4302 96.7673C57.4002 98.6273 61.1902 98.2673 64.6702 97.8773C64.5652 97.1073 64.4652 96.3323 64.3602 95.5623C64.6479 96.2673 65.0632 96.9131 65.5852 97.4673C65.8491 97.7415 66.1822 97.9392 66.5492 98.0396C66.9162 98.1399 67.3036 98.1391 67.6702 98.0373C68.8502 97.6023 69.0552 96.0123 68.7952 94.7873C68.3276 92.8233 67.3417 91.0206 65.9402 89.5673C63.4415 86.8556 60.049 85.1355 56.3848 84.7222C52.7206 84.309 49.0302 85.2303 45.9902 87.3173" fill="#263238"/>
<path d="M33.8504 96.4773C34.52 94.8333 34.7341 93.0392 34.4701 91.2838C34.2062 89.5284 33.4739 87.8767 32.3504 86.5023C31.2743 85.2685 29.8599 84.3773 28.2825 83.9392C26.705 83.5011 25.0337 83.5352 23.4754 84.0373C22.0243 84.4807 20.7582 85.3868 19.8704 86.6173C18.2454 88.9673 18.4304 92.5123 19.9554 94.9223C20.7091 96.0598 21.7116 97.011 22.8871 97.7039C24.0626 98.3969 25.3802 98.8135 26.7404 98.9223C29.3704 99.1723 32.0154 98.4223 34.4904 97.3873" fill="#263238"/>
<path d="M29.0801 97.0222C29.1201 96.9822 29.7201 97.5222 30.8351 98.1922C31.4888 98.5863 32.1766 98.921 32.8901 99.1922C34.6452 99.8493 36.52 100.125 38.3901 100.002C39.1486 99.9549 39.9015 99.8411 40.6401 99.6622C41.9001 99.3522 42.6401 99.0022 42.6401 99.0522C42.4875 99.1662 42.319 99.2571 42.1401 99.3222C41.9397 99.4232 41.7325 99.51 41.5201 99.5822C41.2434 99.6887 40.9614 99.7805 40.6751 99.8572C39.9284 100.066 39.1631 100.202 38.3901 100.262C36.4867 100.409 34.575 100.12 32.8001 99.4172C32.0799 99.1338 31.3884 98.7822 30.7351 98.3672C30.4814 98.2161 30.2376 98.0491 30.0051 97.8672C29.8287 97.7356 29.6616 97.592 29.5051 97.4372C29.3469 97.3169 29.2041 97.1775 29.0801 97.0222Z" fill="#455A64"/>
<path d="M42.9303 103.737C42.7381 103.817 42.5365 103.873 42.3303 103.902C41.9403 103.987 41.3753 104.097 40.6653 104.197C38.8153 104.491 36.9269 104.44 35.0953 104.047C33.2459 103.622 31.5864 102.604 30.3703 101.147C30.0118 100.703 29.7188 100.21 29.5003 99.6823C29.4119 99.4937 29.3513 99.2933 29.3203 99.0873C29.6447 99.7747 30.0474 100.422 30.5203 101.017C31.742 102.394 33.3619 103.357 35.1553 103.772C36.9628 104.157 38.8224 104.233 40.6553 103.997C41.3603 103.922 41.9303 103.842 42.3253 103.792C42.524 103.749 42.7272 103.731 42.9303 103.737Z" fill="#455A64"/>
<path d="M22.5002 136.387C22.5002 136.387 22.4752 136.387 22.4352 136.312C22.3708 136.232 22.3107 136.149 22.2552 136.062C22.0565 135.722 21.9225 135.347 21.8602 134.957C21.7766 134.234 21.8519 133.502 22.0808 132.811C22.3096 132.12 22.6866 131.487 23.1852 130.957C23.8643 130.236 24.644 129.616 25.5002 129.117C26.4102 128.557 27.4352 128.052 28.4352 127.422C29.5012 126.797 30.423 125.954 31.1402 124.947C31.4955 124.41 31.7371 123.806 31.8502 123.172C31.9567 122.509 31.9432 121.831 31.8102 121.172C31.4961 119.875 31.0764 118.606 30.5552 117.377C30.0657 116.205 29.7946 114.952 29.7552 113.682C29.7639 111.521 30.4883 109.423 31.8152 107.717C32.6834 106.56 33.8146 105.626 35.1152 104.992L35.7302 104.722L36.2302 104.572C36.3581 104.526 36.4905 104.492 36.6252 104.472C36.5026 104.533 36.3756 104.585 36.2452 104.627L35.7902 104.802L35.1902 105.092C33.93 105.757 32.8388 106.701 32.0002 107.852C30.7111 109.529 30.0084 111.582 30.0002 113.697C30.0481 114.934 30.3191 116.152 30.8002 117.292C31.3352 118.529 31.765 119.808 32.0852 121.117C32.2233 121.804 32.2369 122.51 32.1252 123.202C32.0164 123.888 31.7587 124.542 31.3702 125.117C30.6263 126.139 29.6736 126.992 28.5752 127.617C27.5752 128.252 26.5302 128.747 25.6252 129.297C24.7697 129.787 23.9913 130.4 23.3152 131.117C22.8262 131.625 22.4511 132.231 22.2148 132.894C21.9786 133.558 21.8867 134.265 21.9452 134.967C22.0313 135.474 22.2202 135.957 22.5002 136.387Z" fill="#455A64"/>
<path d="M36.9598 137.057C36.8493 137.007 36.7452 136.943 36.6498 136.867C36.3821 136.653 36.1609 136.385 35.9998 136.082C35.7367 135.595 35.5863 135.055 35.5598 134.502C35.5286 133.771 35.6337 133.04 35.8698 132.347C36.3698 130.762 37.7448 129.347 38.8048 127.562C39.3777 126.639 39.6935 125.579 39.7198 124.492C39.6985 123.325 39.431 122.175 38.9348 121.117C37.9698 118.897 36.4348 117.117 35.3998 115.252C34.8858 114.382 34.4843 113.449 34.2048 112.477C33.9701 111.621 33.9089 110.727 34.0248 109.847C34.151 108.558 34.7558 107.363 35.7198 106.497C35.9891 106.278 36.2889 106.1 36.6098 105.967C36.7196 105.916 36.8356 105.879 36.9548 105.857C36.1658 106.194 35.4896 106.75 35.0059 107.459C34.5222 108.167 34.2512 109 34.2248 109.857C34.1244 110.709 34.1958 111.573 34.4348 112.397C34.7162 113.351 35.1178 114.265 35.6298 115.117C36.1298 116.022 36.7848 116.932 37.4248 117.887C38.1079 118.868 38.7003 119.909 39.1948 120.997C39.6972 122.096 39.9629 123.289 39.9748 124.497C39.9406 125.63 39.6039 126.733 38.9998 127.692C37.8998 129.517 36.4998 130.897 36.0298 132.412C35.7899 133.079 35.6746 133.784 35.6898 134.492C35.7005 135.027 35.8285 135.553 36.0648 136.032C36.2893 136.432 36.594 136.781 36.9598 137.057Z" fill="#455A64"/>
<path d="M59.745 96.9323C59.745 96.9323 59.675 96.9323 59.545 96.8373C59.3594 96.7311 59.1822 96.6107 59.015 96.4773C58.4121 95.973 57.9042 95.3652 57.515 94.6823C56.9525 93.67 56.4822 92.609 56.11 91.5123C55.88 90.9023 55.635 90.2723 55.325 89.6423C55.0036 88.9966 54.6201 88.3837 54.18 87.8123C52.622 85.7893 50.4724 84.302 48.03 83.5573C47.0117 83.2746 45.9686 83.0904 44.915 83.0073C45.201 82.9793 45.4891 82.9793 45.775 83.0073C46.5558 83.0532 47.3298 83.1789 48.085 83.3823C49.2071 83.6931 50.2771 84.1682 51.26 84.7923C53.1149 85.9402 54.61 87.5861 55.575 89.5423C55.885 90.1873 56.13 90.8273 56.355 91.4373C56.7117 92.5274 57.1582 93.5861 57.69 94.6023C58.0548 95.2794 58.5296 95.891 59.095 96.4123C59.5 96.7573 59.76 96.9073 59.745 96.9323Z" fill="#455A64"/>
<path d="M67.3351 97.1173C67.2355 97.1166 67.1363 97.1032 67.0401 97.0773C66.7626 97.0253 66.4911 96.9449 66.2301 96.8373C65.2648 96.444 64.3989 95.8411 63.6951 95.0723C62.6562 93.937 61.7902 92.6549 61.1251 91.2673C60.3201 89.7423 59.5501 87.9973 58.3201 86.4623C57.1554 85.0266 55.5884 83.9715 53.8201 83.4323C52.3673 82.9972 50.8655 82.7469 49.3501 82.6873C48.0551 82.6173 47.0001 82.6373 46.2701 82.6423H45.4151C45.3171 82.6542 45.2181 82.6542 45.1201 82.6423C45.2151 82.6186 45.3123 82.6052 45.4101 82.6023C45.6001 82.6023 45.9101 82.5623 46.2501 82.5473C46.9751 82.5073 48.0301 82.4573 49.3401 82.5023C50.8773 82.5349 52.4036 82.7685 53.8801 83.1973C55.7108 83.7363 57.3354 84.8171 58.5401 86.2973C59.8051 87.8773 60.5701 89.6423 61.3551 91.1623C62.0058 92.5355 62.8475 93.8098 63.8551 94.9473C64.5325 95.7117 65.3618 96.3264 66.2901 96.7523C66.9351 97.0373 67.3401 97.1173 67.3351 97.1173Z" fill="#455A64"/>
<path d="M79.0254 132.847C78.9954 132.847 79.1804 132.462 79.3854 131.757C79.6763 130.764 79.8194 129.733 79.8104 128.697C79.8092 127.165 79.4676 125.652 78.8104 124.267C78.4088 123.455 77.9047 122.697 77.3104 122.012C76.7004 121.292 76.0004 120.607 75.3104 119.887C74.6058 119.195 73.9555 118.45 73.3654 117.657C72.8276 116.907 72.3669 116.105 71.9904 115.262C71.3596 113.837 70.9742 112.316 70.8504 110.762C70.7718 109.712 70.8222 108.656 71.0004 107.617C71.0554 107.252 71.1304 106.972 71.1754 106.782C71.1945 106.684 71.2247 106.589 71.2654 106.497C71.2954 106.497 71.1954 106.902 71.1104 107.632C70.9791 108.661 70.964 109.701 71.0654 110.732C71.1331 111.444 71.2568 112.15 71.4354 112.842C71.633 113.637 71.9042 114.412 72.2454 115.157C72.6192 115.981 73.0748 116.765 73.6054 117.497C74.1913 118.275 74.8348 119.007 75.5304 119.687C76.2304 120.407 76.9354 121.102 77.5304 121.837C79.1779 123.739 80.0678 126.181 80.0304 128.697C80.0292 129.749 79.8604 130.794 79.5304 131.792C79.4384 132.062 79.3298 132.326 79.2054 132.582C79.1577 132.678 79.0972 132.768 79.0254 132.847Z" fill="#455A64"/>
<path d="M19.6906 94.0773C19.6877 93.8435 19.7215 93.6107 19.7906 93.3873C19.9415 92.7709 20.17 92.1762 20.4706 91.6173C20.9269 90.7304 21.5626 89.948 22.3372 89.3197C23.1119 88.6914 24.0086 88.2308 24.9706 87.9673C26.2136 87.7203 27.5016 87.8392 28.6784 88.3095C29.8552 88.7799 30.8703 89.5816 31.6006 90.6173C31.7416 90.7958 31.8546 90.9948 31.9356 91.2073C31.4264 90.589 30.8569 90.0229 30.2356 89.5173C29.5063 88.957 28.6644 88.5611 27.7677 88.3565C26.8711 88.152 25.9408 88.1437 25.0406 88.3323C24.1206 88.5845 23.26 89.0171 22.5089 89.6051C21.7578 90.1932 21.1312 90.9248 20.6656 91.7573C20.2691 92.4986 19.9427 93.2753 19.6906 94.0773Z" fill="#455A64"/>
<path d="M25.7148 97.2623C25.7217 96.7216 25.7973 96.1839 25.9398 95.6623C26.1661 94.3764 26.7207 93.1708 27.5498 92.1623C27.9643 91.6998 28.5081 91.3725 29.1107 91.2227C29.7134 91.073 30.3471 91.1076 30.9298 91.3223C31.2842 91.4715 31.588 91.7198 31.8048 92.0373C31.9548 92.2723 31.9998 92.4223 31.9848 92.4323C31.6816 92.0568 31.2922 91.7601 30.8498 91.5673C30.3083 91.4066 29.7324 91.4021 29.1884 91.5542C28.6444 91.7063 28.1544 92.009 27.7748 92.4273C26.9914 93.3925 26.4406 94.5251 26.1648 95.7373C26.0543 96.2564 25.9039 96.7663 25.7148 97.2623Z" fill="#455A64"/>
<path d="M34.0756 87.1172C34.1606 87.1872 33.0756 88.7072 32.2906 90.9272C31.5056 93.1472 31.4006 95.0872 31.2906 95.0772C31.1806 95.0672 31.1755 93.0772 31.9805 90.7922C32.7855 88.5072 34.0256 87.0722 34.0756 87.1172Z" fill="#E53935"/>
<path d="M10.5803 122.472C10.8704 122.83 11.245 123.11 11.6703 123.287C12.1711 123.488 12.714 123.562 13.2503 123.502C13.9618 123.434 14.6353 123.15 15.1803 122.687C16.4103 121.687 17.0853 119.722 17.0303 117.637C17.0303 116.587 16.8853 115.487 16.7803 114.342C16.6383 113.155 16.6585 111.954 16.8403 110.772C16.9441 110.172 17.1326 109.59 17.4003 109.042C17.6728 108.52 18.0198 108.04 18.4303 107.617C19.2276 106.839 20.1484 106.199 21.1553 105.722C22.1053 105.222 23.0303 104.857 23.8903 104.477C24.6859 104.13 25.4503 103.715 26.1753 103.237C27.2499 102.579 28.1247 101.641 28.7053 100.522C28.8891 100.101 29.0234 99.6596 29.1053 99.2073C29.1053 99.2073 29.1053 99.3273 29.0603 99.5623C29.0025 99.9068 28.9017 100.243 28.7603 100.562C28.1959 101.709 27.3211 102.674 26.2353 103.347C25.5078 103.834 24.74 104.257 23.9403 104.612C23.0853 104.997 22.1603 105.387 21.2203 105.862C20.2312 106.338 19.326 106.971 18.5403 107.737C18.1397 108.154 17.8027 108.627 17.5403 109.142C17.2798 109.677 17.0947 110.246 16.9903 110.832C16.5753 113.232 17.1853 115.547 17.1753 117.667C17.1653 119.787 16.5253 121.767 15.2503 122.802C14.6845 123.275 13.9854 123.56 13.2503 123.617C12.7016 123.673 12.1477 123.588 11.6403 123.372C11.2015 123.201 10.8274 122.897 10.5703 122.502L10.5803 122.472Z" fill="#263238"/>
<path d="M73.9999 87.2123C74.0462 87.3092 74.0798 87.4117 74.0999 87.5173C74.1635 87.8237 74.1427 88.1417 74.0399 88.4373C73.8427 88.9804 73.4702 89.4423 72.9813 89.7501C72.4924 90.058 71.9148 90.1942 71.3399 90.1373C70.5486 90.0429 69.8026 89.7177 69.1949 89.2023C68.5054 88.6197 67.9232 87.9208 67.4749 87.1373C66.9749 86.3323 66.5249 85.4423 65.9299 84.6373C65.3235 83.7749 64.6094 82.9936 63.8049 82.3123C61.9528 80.7451 59.691 79.7406 57.2865 79.4172C54.882 79.0938 52.4352 79.4651 50.2349 80.4873C49.8749 80.6573 49.5949 80.7973 49.4149 80.9023C49.2349 81.0073 49.1299 81.0473 49.1299 81.0473C49.4725 80.816 49.8319 80.6105 50.2049 80.4323C51.2254 79.9361 52.3086 79.5812 53.4249 79.3773C55.2741 79.0256 57.1788 79.0962 58.9969 79.5836C60.815 80.071 62.4996 80.9628 63.9249 82.1923C64.7403 82.881 65.463 83.6726 66.0749 84.5473C66.6749 85.3973 67.1199 86.2873 67.6149 87.0873C68.0543 87.8582 68.6225 88.5482 69.2949 89.1273C69.8826 89.6297 70.6034 89.951 71.3699 90.0523C72.0042 90.1248 72.6416 89.9452 73.1449 89.5523C73.5337 89.2646 73.8307 88.8704 73.9999 88.4173C74.1069 88.1318 74.1379 87.8234 74.0899 87.5223C74.0299 87.3173 73.9999 87.2123 73.9999 87.2123Z" fill="#263238"/>
<path d="M42.3254 133.212L42.4204 133.167L42.7054 133.037C42.9604 132.917 43.3304 132.742 43.7854 132.482C45.1006 131.765 46.2081 130.719 47.0004 129.447C47.5224 128.567 47.8259 127.574 47.8854 126.552C47.9165 125.985 47.8557 125.416 47.7054 124.867C47.5268 124.294 47.2693 123.749 46.9404 123.247C46.1636 122.204 45.2619 121.261 44.2554 120.437C43.7554 119.982 43.2204 119.532 42.7204 119.037C42.1978 118.544 41.7362 117.99 41.3454 117.387C41.1522 117.08 40.9849 116.757 40.8454 116.422C40.7265 116.082 40.646 115.73 40.6054 115.372C40.5172 114.672 40.596 113.961 40.8354 113.297C41.3412 112.085 41.9999 110.943 42.7954 109.897C43.4844 108.944 44.0301 107.894 44.4154 106.782C44.7373 105.812 44.9306 104.803 44.9904 103.782C45.0789 102.295 44.875 100.806 44.3904 99.3973C44.2635 99.0135 44.1132 98.6378 43.9404 98.2723C43.8204 98.0223 43.7654 97.8823 43.7654 97.8823C43.7654 97.8823 43.8404 98.0123 43.9654 98.2573C44.158 98.6185 44.3251 98.9928 44.4654 99.3773C44.9739 100.789 45.1949 102.289 45.1154 103.787C45.0455 104.822 44.8387 105.842 44.5004 106.822C44.113 107.947 43.5657 109.009 42.8754 109.977C42.0911 111.015 41.441 112.147 40.9404 113.347C40.7108 113.987 40.6354 114.673 40.7204 115.347C40.7605 115.689 40.8393 116.024 40.9554 116.347C41.0927 116.674 41.2601 116.987 41.4554 117.282C41.8372 117.877 42.2906 118.423 42.8054 118.907C43.3054 119.407 43.8054 119.847 44.3054 120.302C45.3223 121.134 46.2311 122.09 47.0104 123.147C47.3468 123.663 47.6078 124.223 47.7854 124.812C47.9379 125.374 47.9987 125.956 47.9654 126.537C47.8959 127.579 47.5806 128.59 47.0454 129.487C46.2439 130.763 45.1215 131.806 43.7904 132.512C43.3246 132.79 42.8342 133.025 42.3254 133.212Z" fill="#263238"/>
<path d="M82.3804 113.372L82.4554 113.397C82.5314 113.423 82.6037 113.458 82.6704 113.502C82.9249 113.679 83.1132 113.936 83.2054 114.232C83.2851 114.465 83.312 114.713 83.2843 114.958C83.2567 115.202 83.1751 115.438 83.0454 115.647C82.8571 115.914 82.6065 116.13 82.3154 116.277C82.0243 116.424 81.7016 116.498 81.3754 116.492C80.9825 116.492 80.5937 116.412 80.2333 116.255C79.8729 116.099 79.5486 115.869 79.2804 115.582C78.6622 114.935 78.1959 114.158 77.9154 113.307C77.2604 111.532 77.2404 109.422 77.4454 107.307C77.6504 105.192 77.9454 103.137 77.8454 101.282C77.8044 100.407 77.6464 99.5408 77.3754 98.7073C77.1302 97.9896 76.7743 97.3148 76.3204 96.7073C75.6826 95.799 74.7875 95.1025 73.7504 94.7073C73.3648 94.5803 72.968 94.4899 72.5654 94.4373C72.5654 94.4373 72.6754 94.4373 72.8804 94.4373C73.0102 94.4439 73.139 94.4623 73.2654 94.4923C73.4362 94.5227 73.6037 94.5695 73.7654 94.6323C74.83 95.0118 75.7518 95.7102 76.4054 96.6323C76.8721 97.251 77.2383 97.9394 77.4904 98.6723C77.7735 99.5159 77.9417 100.394 77.9904 101.282C78.1154 103.157 77.8104 105.197 77.6004 107.332C77.3904 109.467 77.4154 111.542 78.0504 113.292C78.3215 114.122 78.7722 114.882 79.3704 115.517C79.6247 115.796 79.9334 116.019 80.2774 116.173C80.6215 116.327 80.9935 116.408 81.3704 116.412C81.6863 116.422 81.9997 116.355 82.2838 116.216C82.5678 116.078 82.8137 115.872 83.0004 115.617C83.1255 115.419 83.2055 115.196 83.2349 114.964C83.2643 114.731 83.2423 114.495 83.1704 114.272C83.0871 113.983 82.9115 113.728 82.6704 113.547C82.5004 113.412 82.3754 113.387 82.3804 113.372Z" fill="#263238"/>
<path d="M35.1648 142.197C35.1648 142.197 39.2498 150.482 47.8948 150.117C56.5398 149.752 57.4398 142.117 57.4398 142.117L62.2798 147.442L57.4398 159.357L50.3248 162.432L38.7348 159.357L35.6348 154.447L27.9648 145.372L35.1648 142.197Z" fill="#E53935"/>
<path d="M63.94 151.117H63.5C63.0912 151.153 62.6874 151.232 62.295 151.352C61.6785 151.561 61.088 151.839 60.535 152.182C59.885 152.577 59.185 153.092 58.41 153.682C57.5797 154.327 56.6947 154.897 55.765 155.387C55.2338 155.641 54.6818 155.848 54.115 156.007C53.5136 156.169 52.8998 156.281 52.28 156.342C49.725 156.607 46.91 156.042 44.145 155.082C41.38 154.122 38.79 153.027 36.32 152.447C35.1529 152.171 33.9529 152.06 32.755 152.117C31.7118 152.153 30.6725 152.263 29.645 152.447C28.15 152.7 26.6943 153.148 25.315 153.777C25.07 153.887 24.865 154.007 24.685 154.107C24.5307 154.187 24.382 154.277 24.24 154.377L23.875 154.612C24.3087 154.261 24.784 153.963 25.29 153.727C26.6648 153.069 28.1234 152.603 29.625 152.342C30.6568 152.149 31.7012 152.031 32.75 151.987C33.9591 151.925 35.171 152.032 36.35 152.307C38.85 152.887 41.425 153.987 44.195 154.932C46.965 155.877 49.74 156.432 52.265 156.202C52.8773 156.14 53.484 156.031 54.08 155.877C54.6391 155.724 55.1831 155.52 55.705 155.267C56.6346 154.791 57.5183 154.231 58.345 153.592C59.125 153.027 59.845 152.517 60.49 152.127C61.0519 151.788 61.6508 151.515 62.275 151.312C62.6744 151.2 63.0855 151.135 63.5 151.117C63.795 151.117 63.94 151.117 63.94 151.117Z" fill="#FAFAFA"/>
<path d="M64.9699 122.467L68.2599 129.117L68.5599 132.717C68.5599 132.717 68.8599 131.632 69.2299 130.612C69.5999 129.592 69.8349 126.402 69.8349 126.402L67.4349 121.427C67.4349 121.427 66.0199 118.682 67.7299 117.402L70.2699 120.757C70.2699 120.757 68.2699 116.902 70.1549 115.852L72.2999 118.262C72.2225 118.139 72.1729 118.001 72.1544 117.857C72.1359 117.713 72.149 117.567 72.1928 117.428C72.2365 117.29 72.3099 117.162 72.4079 117.055C72.5058 116.948 72.626 116.863 72.7599 116.807L78.1749 123.752L77.4999 133.977L75.6449 144.617L76.5299 146.207L66.9149 152.867C66.9149 152.867 63.9149 146.292 63.7049 144.117C63.4949 141.942 65.6399 130.417 65.6399 130.417C65.6399 130.417 63.5949 126.322 63.8599 124.682C64.1249 123.042 64.9699 122.467 64.9699 122.467Z" fill="#FFBE9D"/>
<path d="M67.6906 154.462L67.6306 154.367L67.4806 154.062L66.9156 152.867C66.4156 151.812 65.7256 150.257 64.9156 148.232C64.4497 147.114 64.0523 145.969 63.7256 144.802C63.5731 144.118 63.541 143.413 63.6306 142.717C63.6906 142.007 63.7706 141.267 63.8706 140.507C64.2656 137.467 64.8306 134.047 65.5006 130.297V130.407C64.8728 129.159 64.3526 127.859 63.9456 126.522C63.8421 126.168 63.7619 125.807 63.7056 125.442C63.6787 125.25 63.667 125.056 63.6706 124.862V124.567L63.7256 124.282C63.8032 123.902 63.9309 123.534 64.1056 123.187C64.2813 122.817 64.5355 122.489 64.8506 122.227L65.0206 122.092L65.1256 122.297C66.1706 124.407 67.2806 126.627 68.4206 128.922V128.957V128.992C68.5206 130.122 68.6206 131.352 68.7256 132.597L68.3356 132.557C68.4906 132.057 68.6506 131.557 68.8356 131.057L69.0756 130.302C69.1497 130.051 69.2082 129.796 69.2506 129.537C69.4306 128.482 69.5356 127.382 69.6206 126.282V126.387L68.1856 123.387C67.9406 122.887 67.6856 122.387 67.4456 121.852C67.3256 121.597 67.1856 121.352 67.0756 121.057C66.9621 120.783 66.8685 120.5 66.7956 120.212C66.6496 119.673 66.6206 119.109 66.7106 118.557C66.8044 117.983 67.116 117.467 67.5806 117.117L67.7456 116.997L67.8656 117.157L70.4056 120.517L70.0606 120.732C69.6414 119.911 69.3433 119.034 69.1756 118.127C69.0856 117.663 69.0856 117.186 69.1756 116.722C69.2266 116.479 69.3288 116.249 69.4754 116.048C69.6219 115.848 69.8094 115.68 70.0256 115.557L70.1706 115.477L70.2756 115.602L72.4506 118.217L72.1256 118.432C71.9759 118.122 71.9269 117.772 71.9856 117.432C72.0228 117.257 72.0999 117.092 72.2109 116.95C72.3218 116.809 72.4637 116.695 72.6256 116.617L72.7706 116.542L72.8706 116.667L78.2856 123.532L78.3306 123.592V123.657C78.0806 127.347 77.8306 130.767 77.6356 133.897C76.9056 137.987 76.2706 141.552 75.7356 144.527V144.452L79.2856 151.022L80.2156 152.772L80.4506 153.227C80.4773 153.279 80.5006 153.333 80.5206 153.387C80.4812 153.343 80.4476 153.295 80.4206 153.242L80.1606 152.802L79.1606 151.082C78.3106 149.582 77.0756 147.352 75.5106 144.582V144.547V144.507C76.0106 141.507 76.6256 137.962 77.3256 133.862C77.5206 130.732 77.7406 127.307 77.9706 123.622L78.0106 123.747L72.5706 116.892L72.8156 116.947C72.7053 117 72.6084 117.076 72.5322 117.172C72.456 117.267 72.4024 117.378 72.3756 117.497C72.3353 117.754 72.3736 118.017 72.4856 118.252L73.0806 119.572L72.1606 118.467L70.0006 115.877L70.2556 115.922C70.0876 116.018 69.9421 116.149 69.8291 116.306C69.7161 116.463 69.6382 116.643 69.6006 116.832C69.5255 117.244 69.5255 117.666 69.6006 118.077C69.7617 118.947 70.048 119.789 70.4506 120.577L70.1106 120.797L67.5706 117.442L67.8556 117.482C67.4729 117.77 67.2166 118.195 67.1406 118.667C67.0616 119.168 67.0905 119.679 67.2256 120.167C67.2918 120.437 67.3787 120.701 67.4856 120.957C67.5856 121.212 67.7206 121.457 67.8406 121.727L68.5806 123.262L70.0206 126.262L70.0456 126.312V126.367C69.9556 127.482 69.8506 128.582 69.6606 129.662C69.6173 129.936 69.5572 130.206 69.4806 130.472C69.3956 130.732 69.3156 130.972 69.2356 131.237L68.7606 132.737L68.4506 133.707L68.3706 132.707C68.2656 131.462 68.1656 130.237 68.0706 129.107V129.177C66.9356 126.882 65.8356 124.677 64.7906 122.547L65.0606 122.617C64.7981 122.843 64.5852 123.12 64.4356 123.432C64.2738 123.749 64.1545 124.085 64.0806 124.432C63.9704 125.125 64.034 125.835 64.2656 126.497C64.6579 127.814 65.1596 129.095 65.7656 130.327V130.377V130.432C65.0806 134.167 64.4906 137.587 64.0756 140.612C63.9706 141.367 63.8856 142.112 63.8206 142.812C63.7278 143.478 63.7515 144.155 63.8906 144.812C64.2003 145.973 64.581 147.113 65.0306 148.227C65.8206 150.257 66.4956 151.822 66.9506 152.892C67.1806 153.417 67.3506 153.827 67.4506 154.107L67.5806 154.417C67.6856 154.427 67.6956 154.462 67.6906 154.462Z" fill="#EB996E"/>
<path d="M72.8255 131.707C72.7534 131.121 72.7534 130.528 72.8255 129.942C72.8805 128.852 72.9905 127.352 73.1405 125.697L73.1805 125.242L73.2155 125.377C72.3455 124.082 71.5855 122.917 71.0555 122.067C70.7365 121.63 70.4729 121.155 70.2705 120.652C70.6539 121.03 70.9898 121.453 71.2705 121.912C71.8605 122.722 72.6555 123.857 73.5305 125.147L73.5755 125.207V125.277C73.5755 125.422 73.5505 125.577 73.5355 125.732C73.3905 127.387 73.2355 128.887 73.1055 129.967C73.0783 130.556 72.9843 131.14 72.8255 131.707Z" fill="#EB996E"/>
<path d="M75.6599 128.867C75.5983 128.331 75.5983 127.789 75.6599 127.252C75.7149 126.252 75.8149 124.867 75.9499 123.312L75.9949 123.457L75.6899 123.067C74.6899 121.737 73.7699 120.522 73.1349 119.632C72.7558 119.172 72.432 118.668 72.1699 118.132C72.6195 118.523 73.0207 118.966 73.3649 119.452C74.0599 120.297 74.9999 121.482 76.0199 122.812C76.1199 122.942 76.2199 123.077 76.3199 123.202L76.3649 123.267V123.347C76.2199 124.897 76.0699 126.277 75.9449 127.272C75.918 127.814 75.8222 128.35 75.6599 128.867Z" fill="#EB996E"/>
<path d="M64.3203 150.642L77.7253 144.982C77.7253 144.982 97.2253 188.687 98.3453 191.512C101.035 198.167 98.3753 208.042 91.0553 207.862C87.6053 207.782 77.7253 206.442 75.0303 195.947C74.1853 192.657 71.7903 184.772 71.7903 184.772L64.3203 150.642Z" fill="#E53935"/>
<path d="M77.725 144.982C77.6515 145.034 77.5727 145.077 77.49 145.112L76.785 145.452L74.1 146.722L64.47 151.222L64.53 151.102C65.325 155.572 66.315 160.887 67.53 166.537C69.27 174.742 71.17 182.097 72.63 187.392C73.375 190.027 73.98 192.162 74.4 193.657C74.61 194.382 74.77 194.952 74.9 195.357L75.02 195.802C75.0394 195.852 75.0512 195.904 75.055 195.957C75.0299 195.911 75.0098 195.863 74.995 195.812C74.96 195.697 74.91 195.557 74.85 195.372L74.32 193.687C73.865 192.217 73.225 190.087 72.47 187.442C70.97 182.157 69.035 174.802 67.29 166.592C66.085 160.937 65.11 155.617 64.335 151.137V151.052L64.415 151.017L74.085 146.617L76.8 145.402L77.515 145.087L77.725 144.982Z" fill="#263238"/>
<path d="M96.1756 188.717C96.1417 188.787 96.1015 188.854 96.0556 188.917L95.6856 189.482C95.4958 189.782 95.287 190.069 95.0606 190.342C94.8006 190.667 94.5256 191.057 94.1656 191.432L93.6106 192.042C93.4156 192.252 93.1956 192.452 92.9756 192.667C92.5406 193.107 92.0306 193.517 91.5006 193.967C90.3144 194.893 89.0458 195.708 87.7106 196.402C86.3648 197.075 84.9586 197.619 83.5106 198.027C82.8406 198.192 82.2056 198.367 81.5956 198.457C81.2906 198.507 81.0006 198.572 80.7156 198.607L79.8956 198.692C79.3956 198.762 78.8956 198.757 78.4856 198.777C78.131 198.8 77.7753 198.8 77.4206 198.777L76.7456 198.747C76.6691 198.752 76.5922 198.752 76.5156 198.747C76.5938 198.74 76.6725 198.74 76.7506 198.747H77.4206C77.7754 198.766 78.1309 198.766 78.4856 198.747C78.8956 198.717 79.3706 198.717 79.8856 198.637L80.6956 198.542C80.9806 198.502 81.2706 198.437 81.5706 198.387C82.1756 198.292 82.8056 198.112 83.4756 197.947C86.3596 197.133 89.0556 195.76 91.4106 193.907C91.9356 193.467 92.4506 193.062 92.9106 192.627C93.1306 192.417 93.3556 192.222 93.5506 192.012C93.7456 191.802 93.9306 191.607 94.1056 191.412C94.4706 191.042 94.7556 190.662 95.0206 190.347C95.248 190.077 95.4617 189.795 95.6606 189.502L96.0556 188.957L96.1756 188.717Z" fill="#FAFAFA"/>
<path d="M92.5002 176.872C92.4723 176.944 92.4371 177.013 92.3952 177.077C92.3202 177.207 92.2202 177.412 92.0552 177.652C91.6104 178.342 91.0869 178.978 90.4952 179.547C89.6239 180.402 88.6233 181.114 87.5302 181.657C86.1923 182.333 84.7347 182.739 83.2402 182.852C81.7523 182.893 80.2634 182.826 78.7852 182.652C77.5839 182.523 76.3703 182.564 75.1802 182.772C74.3783 182.916 73.6112 183.211 72.9202 183.642C72.4202 183.952 72.2152 184.187 72.2002 184.172C72.4062 183.951 72.6379 183.754 72.8902 183.587C73.5775 183.131 74.3494 182.816 75.1602 182.662C76.3583 182.438 77.5823 182.386 78.7952 182.507C80.2674 182.672 81.7493 182.736 83.2302 182.697C84.7045 182.586 86.143 182.189 87.4652 181.527C88.5513 180.998 89.5483 180.303 90.4202 179.467C91.0108 178.908 91.5404 178.288 92.0002 177.617C92.1702 177.387 92.2752 177.187 92.3652 177.062C92.4061 176.996 92.4512 176.933 92.5002 176.872Z" fill="#FAFAFA"/>
<path d="M68.8301 171.672C68.8301 171.672 69.1001 171.672 69.5801 171.672C70.2589 171.656 70.9321 171.545 71.5801 171.342C72.537 171.037 73.446 170.597 74.2801 170.037C75.2993 169.339 76.2698 168.572 77.1851 167.742C78.1027 166.909 79.0676 166.129 80.0751 165.407C80.9101 164.823 81.82 164.354 82.7801 164.012C83.4241 163.784 84.0978 163.651 84.7801 163.617C85.0305 163.605 85.2815 163.615 85.5301 163.647C85.5301 163.647 85.2601 163.647 84.7801 163.677C84.0967 163.733 83.4239 163.881 82.7801 164.117C81.8372 164.469 80.9446 164.943 80.1251 165.527C79.1255 166.253 78.1657 167.033 77.2501 167.862C76.3311 168.696 75.3536 169.463 74.3251 170.157C73.4761 170.72 72.5497 171.156 71.5751 171.452C70.9161 171.646 70.2319 171.74 69.5451 171.732C69.3054 171.735 69.066 171.715 68.8301 171.672Z" fill="#FAFAFA"/>
<path d="M78.8054 151.452C78.7985 151.501 78.785 151.548 78.7654 151.592C78.717 151.725 78.6585 151.854 78.5904 151.977C78.3324 152.434 77.9936 152.841 77.5904 153.177C76.9979 153.676 76.3204 154.064 75.5904 154.322C74.6986 154.623 73.7734 154.812 72.8354 154.887C71.8354 154.992 70.9004 155.032 70.0504 155.127C69.2951 155.2 68.5473 155.337 67.8154 155.537C67.3258 155.679 66.8518 155.87 66.4004 156.107C66.0804 156.277 65.9004 156.392 65.9004 156.377C65.9347 156.342 65.9734 156.312 66.0154 156.287C66.1275 156.202 66.2444 156.124 66.3654 156.052C66.8114 155.791 67.2863 155.583 67.7804 155.432C68.5151 155.214 69.2682 155.063 70.0304 154.982C70.8854 154.882 71.8304 154.832 72.8154 154.732C73.7403 154.658 74.6532 154.475 75.5354 154.187C76.2494 153.94 76.9145 153.569 77.5004 153.092C78.0511 152.649 78.4968 152.089 78.8054 151.452Z" fill="#FAFAFA"/>
<path d="M197.999 195.397C199.154 196.777 201.109 196.112 201.954 195.132C202.799 194.152 203.074 192.822 203.319 191.552C203.884 188.652 204.439 185.612 203.574 182.787C203.352 181.927 202.897 181.145 202.259 180.527C201.936 180.224 201.538 180.011 201.107 179.909C200.675 179.807 200.224 179.82 199.799 179.947C198.799 180.302 198.299 181.342 197.909 182.322C196.828 185.211 196.401 188.304 196.659 191.377C196.784 192.807 197.084 194.292 197.999 195.377" fill="#E53935"/>
<g opacity="0.2">
<path d="M197.999 195.397C199.154 196.777 201.109 196.112 201.954 195.132C202.799 194.152 203.074 192.822 203.319 191.552C203.884 188.652 204.439 185.612 203.574 182.787C203.352 181.927 202.897 181.145 202.259 180.527C201.936 180.224 201.538 180.011 201.107 179.909C200.675 179.807 200.224 179.82 199.799 179.947C198.799 180.302 198.299 181.342 197.909 182.322C196.828 185.211 196.401 188.304 196.659 191.377C196.784 192.807 197.084 194.292 197.999 195.377" fill="black"/>
</g>
<path d="M202.525 202.487C204.177 201.52 206.097 201.112 208 201.322C209.028 201.32 210.026 201.663 210.835 202.297C211.585 202.987 211.835 204.297 211.11 205.017C210.633 205.402 210.038 205.61 209.425 205.607C207.965 205.717 206.32 205.607 205.235 206.607C204.615 207.167 204.235 208.037 203.47 208.357C203.08 208.485 202.66 208.482 202.272 208.349C201.884 208.216 201.55 207.961 201.32 207.622C200.875 206.924 200.715 206.08 200.875 205.267C200.915 204.708 201.085 204.165 201.372 203.683C201.658 203.2 202.053 202.791 202.525 202.487Z" fill="#E53935"/>
<path d="M195.38 197.757C195.848 197.019 196.129 196.178 196.198 195.306C196.267 194.435 196.122 193.56 195.775 192.757C195.062 191.159 193.924 189.787 192.485 188.792C190.839 187.573 188.971 186.688 186.985 186.187C186.216 185.953 185.406 185.888 184.61 185.997C184.212 186.055 183.834 186.21 183.51 186.448C183.185 186.686 182.924 187 182.75 187.362C182.295 188.457 182.93 189.677 183.595 190.662C184.758 192.397 186.057 194.038 187.48 195.567C188.625 196.797 189.915 197.997 191.53 198.457C193.145 198.917 194.765 198.697 195.5 197.542" fill="#E53935"/>
<path d="M199.92 217.537C199.956 217.314 199.967 217.088 199.955 216.862C199.955 216.362 199.955 215.757 199.955 215.027C199.964 214.123 200.02 213.22 200.125 212.322C200.268 211.227 200.499 210.145 200.815 209.087C201.121 208.029 201.576 207.019 202.165 206.087C202.647 205.331 203.291 204.691 204.05 204.212C204.566 203.899 205.127 203.668 205.715 203.527C205.938 203.5 206.158 203.448 206.37 203.372C206.144 203.364 205.917 203.381 205.695 203.422C205.081 203.526 204.49 203.737 203.95 204.047C203.146 204.517 202.462 205.165 201.95 205.942C201.334 206.888 200.86 207.919 200.545 209.002C200.224 210.076 199.997 211.175 199.865 212.287C199.773 213.196 199.736 214.109 199.755 215.022C199.755 215.797 199.8 216.427 199.825 216.857C199.835 217.086 199.866 217.314 199.92 217.537Z" fill="#263238"/>
<path d="M199.92 216.117C199.935 216.013 199.935 215.907 199.92 215.802C199.92 215.572 199.875 215.277 199.84 214.922C199.77 214.152 199.67 213.042 199.59 211.667C199.41 208.917 199.31 205.107 199.395 200.902C199.48 196.697 199.755 192.902 200.07 190.162C200.145 189.477 200.22 188.857 200.3 188.317C200.38 187.777 200.43 187.317 200.495 186.927C200.56 186.537 200.59 186.277 200.625 186.047C200.637 185.944 200.637 185.84 200.625 185.737C200.588 185.834 200.561 185.935 200.545 186.037C200.495 186.267 200.435 186.557 200.365 186.907C200.28 187.287 200.205 187.752 200.12 188.292C200.035 188.832 199.935 189.452 199.855 190.137C199.406 193.707 199.152 197.299 199.095 200.897C199.01 205.112 199.14 208.927 199.37 211.682C199.475 213.057 199.605 214.182 199.71 214.932C199.765 215.287 199.805 215.582 199.84 215.812C199.855 215.917 199.882 216.019 199.92 216.117Z" fill="#263238"/>
<path d="M199.285 208.797C199.279 208.487 199.249 208.178 199.195 207.872C199.11 207.282 198.95 206.432 198.695 205.397C198.383 204.185 198.002 202.991 197.555 201.822C197.018 200.385 196.38 198.988 195.645 197.642C194.357 195.158 192.627 192.93 190.54 191.067C190.18 190.748 189.799 190.452 189.4 190.182C189.225 190.062 189.07 189.937 188.9 189.842L188.5 189.617C188.238 189.452 187.964 189.309 187.68 189.187C188.639 189.812 189.559 190.494 190.435 191.232C192.46 193.121 194.151 195.339 195.435 197.792C196.164 199.128 196.804 200.511 197.35 201.932C197.807 203.089 198.204 204.269 198.54 205.467C198.825 206.467 199.01 207.332 199.13 207.912C199.159 208.211 199.211 208.506 199.285 208.797Z" fill="#263238"/>
</svg>
