<svg width="251" height="250" viewBox="0 0 251 250" fill="none" xmlns="http://www.w3.org/2000/svg">
<path d="M136.08 189.375H84.0051V229.54H136.08V189.375Z" fill="#EBEBEB"/>
<path d="M123.035 229.26C122.965 229.26 122.905 220.305 122.905 209.26C122.905 198.215 122.965 189.26 123.035 189.26C123.105 189.26 123.165 198.215 123.165 209.26C123.165 220.305 123.105 229.26 123.035 229.26Z" fill="#E0E0E0"/>
<path d="M131.665 220.4H127.675V224.915H131.665V220.4Z" fill="#FAFAFA"/>
<path d="M105.81 189.48H99.895V198.05H105.81V189.48Z" fill="#E0E0E0"/>
<path d="M105.81 220.85H99.895V229.42H105.81V220.85Z" fill="#E0E0E0"/>
<path d="M230.575 179.305H164.91V229.95H230.575V179.305Z" fill="#EBEBEB"/>
<path d="M214.12 229.59C214.05 229.59 213.99 218.305 213.99 204.38C213.99 190.455 214.05 179.17 214.12 179.17C214.19 179.17 214.25 190.455 214.25 204.38C214.25 218.305 214.195 229.59 214.12 229.59Z" fill="#E0E0E0"/>
<path d="M225.005 218.42H219.97V224.11H225.005V218.42Z" fill="#FAFAFA"/>
<path d="M192.4 179.435H184.94V190.24H192.4V179.435Z" fill="#E0E0E0"/>
<path d="M192.4 218.99H184.94V229.795H192.4V218.99Z" fill="#E0E0E0"/>
<path d="M41.23 180.795C43.89 179.425 47.02 179.245 49.97 179.735C51.555 179.995 53.205 180.47 54.285 181.66C55.365 182.85 55.565 184.945 54.33 185.97C53.59 186.58 52.565 186.67 51.605 186.66C49.295 186.63 46.735 186.225 44.89 187.615C43.835 188.41 43.135 189.725 41.89 190.115C40.645 190.505 39.27 189.77 38.62 188.66C38.0187 187.502 37.8862 186.158 38.25 184.905C38.3972 184.037 38.7427 183.214 39.2595 182.502C39.7764 181.789 40.4507 181.205 41.23 180.795Z" fill="#EBEBEB"/>
<path d="M35.1401 169.04C36.7651 171.36 39.9251 170.595 41.3901 169.175C42.8551 167.755 43.4751 165.705 44.0351 163.75C45.3251 159.275 46.6201 154.58 45.6651 150.025C45.4352 148.644 44.8278 147.353 43.9101 146.295C43.4455 145.776 42.8532 145.386 42.192 145.166C41.5307 144.946 40.8234 144.903 40.1401 145.04C38.5451 145.46 37.5551 147.04 36.8401 148.505C34.732 152.885 33.6285 157.68 33.6101 162.54C33.6101 164.805 33.8651 167.175 35.1401 169.04Z" fill="#EBEBEB"/>
<path d="M30.6801 172.37C32.4451 170.275 32.7801 167.225 31.9951 164.6C31.2101 161.975 29.4351 159.745 27.3901 157.92C24.9849 155.781 22.1861 154.13 19.1501 153.06C17.9734 152.585 16.7077 152.37 15.4401 152.43C14.8077 152.466 14.1938 152.656 13.6517 152.984C13.1097 153.312 12.6559 153.767 12.3301 154.31C11.4601 155.965 12.2951 157.97 13.1951 159.61C14.78 162.496 16.5889 165.252 18.6051 167.855C20.2301 169.945 22.1051 172.01 24.5601 172.955C27.0151 173.9 29.6051 173.79 30.9151 172.075" fill="#EBEBEB"/>
<path d="M35.0301 204.05C35.1169 203.706 35.1672 203.354 35.1801 203C35.2551 202.23 35.3451 201.265 35.4601 200.12C35.6034 198.703 35.8187 197.295 36.1051 195.9C36.4808 194.195 36.9941 192.522 37.6401 190.9C38.2736 189.288 39.1303 187.773 40.1851 186.4C41.0474 185.283 42.145 184.37 43.4001 183.725C44.2536 183.304 45.1682 183.021 46.1101 182.885C46.4646 182.871 46.8167 182.819 47.1601 182.73C46.8062 182.691 46.449 182.691 46.0951 182.73C45.117 182.804 44.1601 183.053 43.2701 183.465C41.9448 184.09 40.7826 185.014 39.8751 186.165C38.7712 187.557 37.8813 189.105 37.2351 190.76C36.5899 192.402 36.088 194.097 35.7351 195.825C35.4631 197.238 35.2744 198.665 35.1701 200.1C35.0801 201.325 35.0451 202.315 35.0301 203C34.9932 203.349 34.9932 203.701 35.0301 204.05Z" fill="#E0E0E0"/>
<path d="M35.2301 201.84C35.2598 201.675 35.2699 201.507 35.2601 201.34C35.2601 200.97 35.2601 200.505 35.2601 199.94C35.2601 198.725 35.2601 196.965 35.3201 194.795C35.4301 190.455 35.8201 185.795 36.5251 179.2C37.2101 173.005 38.1251 165.8 39.0951 161.115C39.3001 160.05 39.5101 159.09 39.7101 158.25C39.9101 157.41 40.0551 156.68 40.2101 156.095C40.3651 155.51 40.4501 155.095 40.5401 154.735C40.5891 154.572 40.6176 154.405 40.6251 154.235C40.5498 154.381 40.4927 154.535 40.4551 154.695C40.3451 155.05 40.2101 155.49 40.0451 156.035C39.8801 156.58 39.6801 157.34 39.4701 158.175C39.2601 159.01 39.0201 159.97 38.7951 161.035C37.594 166.576 36.691 172.177 36.0901 177.815C35.3701 184.415 35.0451 190.425 35.0151 194.775C35.0151 196.95 35.0151 198.715 35.0901 199.93C35.1251 200.495 35.1551 200.96 35.1751 201.325C35.1727 201.498 35.1912 201.671 35.2301 201.84Z" fill="#E0E0E0"/>
<path d="M35.2601 190.25C35.2983 189.762 35.2983 189.273 35.2601 188.785C35.2051 187.845 35.0751 186.49 34.8101 184.825C34.4831 182.878 34.0457 180.952 33.5001 179.055C32.8696 176.72 32.0622 174.437 31.0851 172.225C29.4123 168.149 27.0115 164.411 24.0001 161.195C23.4777 160.643 22.9198 160.125 22.3301 159.645C22.0751 159.425 21.8301 159.21 21.6201 159.04L21.0001 158.595C20.611 158.298 20.1979 158.034 19.7651 157.805C19.6951 157.9 21.5101 158.97 23.8001 161.405C26.713 164.651 29.05 168.372 30.7101 172.405C31.6704 174.603 32.4806 176.863 33.1351 179.17C33.685 181.049 34.1405 182.955 34.5001 184.88C34.8001 186.525 35.0001 187.88 35.0801 188.8C35.1015 189.287 35.1617 189.772 35.2601 190.25Z" fill="#E0E0E0"/>
<path d="M23.28 208.93L24.44 224.845H44.885L46.045 208.93H23.28Z" fill="#EBEBEB"/>
<path d="M48.4802 202.66H21.3052V208.93H48.4802V202.66Z" fill="#EBEBEB"/>
<path d="M21.3052 224.235V225.97H22.5852H48.0352V224.235H21.3052Z" fill="#E0E0E0"/>
<path d="M23.835 228.84L22.585 225.78H47.06L45.6 228.84H23.835Z" fill="#E0E0E0"/>
<path d="M45.665 214.13C45.6395 214.184 45.6076 214.234 45.57 214.28C45.49 214.385 45.385 214.52 45.265 214.685L44.075 216.185L44.02 216.255L43.97 216.185L41.045 212.14H41.21L38.33 216.215L38.24 216.345L38.14 216.225L34.725 212.16H34.92L34.735 212.4L31.68 216.225L31.575 216.355L31.485 216.22L28.6 212.145H28.77L25.22 216.185L25.16 216.26L25.11 216.175L24 214.335C23.88 214.135 23.79 213.97 23.715 213.835C23.6773 213.779 23.647 213.719 23.625 213.655C23.6718 213.703 23.7121 213.757 23.745 213.815L24.06 214.29L25.225 216.125H25.115L28.615 212.035L28.7 211.93L28.78 212.04L31.69 216.1H31.5L34.545 212.265C34.61 212.185 34.675 212.105 34.73 212.03L34.83 211.905L34.93 212.025L38.335 216.1H38.145L41.055 212.045L41.14 211.925L41.22 212.045C42.375 213.69 43.355 215.085 44.085 216.135H43.98L45.22 214.635C45.355 214.48 45.465 214.355 45.55 214.25C45.5853 214.207 45.6238 214.167 45.665 214.13Z" fill="#F5F5F5"/>
<path d="M46.3302 208.825C46.3302 208.895 41.2052 208.955 34.8902 208.955C28.5752 208.955 23.4502 208.895 23.4502 208.825C23.4502 208.755 28.5702 208.7 34.8902 208.7C41.2102 208.7 46.3302 208.755 46.3302 208.825Z" fill="#F5F5F5"/>
<path d="M189.711 28.4006L185.521 28.4232L185.634 49.2729L189.824 49.2503L189.711 28.4006Z" fill="#E0E0E0"/>
<path d="M160.072 28.4561L149.222 28.5148L149.284 40.0246L160.134 39.9659L160.072 28.4561Z" fill="#EBEBEB"/>
<path d="M170.871 28.3976L160.021 28.4563L160.084 39.9662L170.934 39.9075L170.871 28.3976Z" fill="#F5F5F5"/>
<path d="M149.235 31.7C156.448 31.76 163.665 31.7267 170.885 31.6C170.915 31.6 170.945 31.5879 170.966 31.5663C170.988 31.5447 171 31.5155 171 31.485C171 31.4545 170.988 31.4252 170.966 31.4037C170.945 31.3821 170.915 31.37 170.885 31.37C163.675 31.33 156.445 31.37 149.235 31.505C149.213 31.51 149.193 31.5224 149.179 31.5401C149.165 31.5578 149.157 31.5798 149.157 31.6025C149.157 31.6252 149.165 31.6471 149.179 31.6649C149.193 31.6826 149.213 31.695 149.235 31.7Z" fill="#E0E0E0"/>
<path d="M162.173 39.7746L142.458 39.8812L142.509 49.2611L162.224 49.1544L162.173 39.7746Z" fill="#EBEBEB"/>
<path d="M181.792 39.6684L162.078 39.7751L162.128 49.1549L181.843 49.0483L181.792 39.6684Z" fill="#F5F5F5"/>
<path d="M142.47 42.5C155.565 42.645 168.705 42.5 181.805 42.305C181.836 42.305 181.865 42.2929 181.886 42.2713C181.908 42.2497 181.92 42.2205 181.92 42.19C181.92 42.1595 181.908 42.1303 181.886 42.1087C181.865 42.0871 181.836 42.075 181.805 42.075C168.71 42.005 155.565 42.01 142.47 42.3C142.444 42.3 142.418 42.3105 142.399 42.3293C142.381 42.348 142.37 42.3735 142.37 42.4C142.37 42.4265 142.381 42.452 142.399 42.4707C142.418 42.4895 142.444 42.5 142.47 42.5Z" fill="#E0E0E0"/>
<path d="M211.475 49.27H135.095V52.63H211.475V49.27Z" fill="#E0E0E0"/>
<path d="M150.7 50.885H147.6V62.35H150.7V50.885Z" fill="#E0E0E0"/>
<path d="M196.985 50.885H193.885V62.35H196.985V50.885Z" fill="#E0E0E0"/>
<path d="M193.799 20.6234L189.609 20.6461L189.764 49.3207L193.954 49.298L193.799 20.6234Z" fill="#EBEBEB"/>
<path d="M200.343 25.963L193.833 25.9983L193.959 49.2379L200.468 49.2027L200.343 25.963Z" fill="#F5F5F5"/>
<path d="M200.3 30.45C198.136 30.6028 195.964 30.6028 193.8 30.45C195.964 30.3038 198.136 30.3038 200.3 30.45Z" fill="#E0E0E0"/>
<path d="M200.3 29.5C199.219 29.6094 198.131 29.6462 197.045 29.61C195.959 29.646 194.871 29.6092 193.79 29.5C195.954 29.3471 198.126 29.3471 200.29 29.5H200.3Z" fill="#E0E0E0"/>
<path d="M200.3 45.715C198.136 45.8679 195.964 45.8679 193.8 45.715C195.964 45.5688 198.136 45.5688 200.3 45.715Z" fill="#E0E0E0"/>
<path d="M200.3 44.74C198.136 44.8862 195.964 44.8862 193.8 44.74C195.964 44.5872 198.136 44.5872 200.3 44.74Z" fill="#E0E0E0"/>
<path d="M197.15 42.61C197.09 42.61 197.04 40.265 197.04 37.375C197.04 34.485 197.09 32.135 197.15 32.135C197.21 32.135 197.265 34.48 197.265 37.375C197.265 40.27 197.215 42.61 197.15 42.61Z" fill="#E0E0E0"/>
<path d="M207.46 31.68H200.375V49.22H207.46V31.68Z" fill="#EBEBEB"/>
<path d="M191.64 26.735C192.306 26.735 192.845 26.1955 192.845 25.53C192.845 24.8645 192.306 24.325 191.64 24.325C190.975 24.325 190.435 24.8645 190.435 25.53C190.435 26.1955 190.975 26.735 191.64 26.735Z" fill="#E0E0E0"/>
<path d="M192.015 28.845H191.27V45.905H192.015V28.845Z" fill="#E0E0E0"/>
<path d="M232.83 229.675C232.83 229.75 184.77 229.805 125.505 229.805C66.2399 229.805 18.1699 229.75 18.1699 229.675C18.1699 229.6 66.2199 229.545 125.505 229.545C184.79 229.545 232.83 229.605 232.83 229.675Z" fill="#263238"/>
<path d="M75.105 46.175C77.4629 49.0606 78.7397 52.6787 78.715 56.405C78.69 58.515 78.3 60.84 79.53 62.555C80.46 63.855 82.16 64.51 82.915 65.92C83.825 67.615 83.05 69.76 83.61 71.6C84.4 74.21 87.46 75.305 89.275 77.34C90.0487 78.2399 90.59 79.3157 90.8515 80.4733C91.113 81.6309 91.0867 82.8349 90.775 83.98C90.4444 85.1203 89.8463 86.1652 89.0306 87.0279C88.2149 87.8906 87.205 88.5461 86.085 88.94C84.8891 89.4115 83.5551 89.3899 82.375 88.88C81.15 88.27 80.375 87.015 79.775 85.79C78.57 83.38 67.985 70.355 67.385 67.725" fill="#263238"/>
<path d="M67.4051 43.105C63.0751 42.405 58.9051 45.28 57.0901 49.27C55.2751 53.26 55.2151 57.77 55.0901 62.17C54.9651 66.57 54.6451 71.13 52.4101 74.9C50.9901 77.295 48.7901 79.4 48.4451 82.155C48.1351 84.625 49.4151 87.115 48.9901 89.57C48.6201 91.71 46.9901 93.57 47.0551 95.735C47.1351 98.345 49.8201 100.31 52.4251 100.38C55.0301 100.45 57.4701 99.085 59.5151 97.465C62.8469 94.8196 65.5131 91.4308 67.3001 87.57" fill="#263238"/>
<path d="M60.28 53.425C60.1439 52.3358 60.2281 51.2304 60.5275 50.1743C60.8269 49.1183 61.3354 48.1332 62.0228 47.2774C62.7102 46.4216 63.5625 45.7127 64.5291 45.1927C65.4958 44.6726 66.5571 44.352 67.65 44.25C72.015 43.83 75.9 47.085 76.555 51.425C77.13 55.23 77.62 59.07 77.605 60.465C77.55 64.67 75.105 66.305 74.105 66.8C73.7453 66.9291 73.3733 67.0212 72.995 67.075V67.105L73.925 71.935C74.35 75.1 72.585 77.935 69.425 78.38C66.265 78.825 63.78 76.41 63.295 73.245L60.28 53.425Z" fill="#FFBE9D"/>
<path d="M75.6951 53.265C75.6251 53.365 75.0701 53.07 74.3601 53.175C73.6501 53.28 73.1751 53.71 73.0851 53.635C72.9951 53.56 73.0851 53.435 73.3051 53.235C73.5785 52.9687 73.928 52.7939 74.3051 52.735C74.6751 52.678 75.0536 52.741 75.3851 52.915C75.6351 53.075 75.7301 53.225 75.6951 53.265Z" fill="#263238"/>
<path d="M69.365 54.805C69.295 54.905 68.74 54.605 68.025 54.71C67.31 54.815 66.845 55.25 66.755 55.175C66.665 55.1 66.755 54.97 66.975 54.775C67.2484 54.5087 67.5979 54.3339 67.975 54.275C68.3455 54.2223 68.7232 54.287 69.055 54.46C69.3 54.615 69.4 54.76 69.365 54.805Z" fill="#263238"/>
<path d="M71.96 58.62C72.3177 58.448 72.6957 58.322 73.085 58.245C73.265 58.2 73.43 58.14 73.445 58.01C73.4288 57.8273 73.3593 57.6534 73.245 57.51L72.5 56.18C71.465 54.32 70.69 52.78 70.765 52.735C70.84 52.69 71.765 54.175 72.765 56.035C73.02 56.495 73.265 56.935 73.485 57.35C73.6303 57.5533 73.701 57.8006 73.685 58.05C73.6685 58.1182 73.6365 58.1817 73.5914 58.2355C73.5463 58.2893 73.4893 58.3319 73.425 58.36C73.3275 58.4027 73.2251 58.4329 73.12 58.45C72.7424 58.557 72.3525 58.6142 71.96 58.62Z" fill="#263238"/>
<path d="M72.955 67.08C72.955 67.08 70.24 67.705 66.5 66.14C66.5 66.14 68.115 69.615 73.21 68.38L72.955 67.08Z" fill="#EB996E"/>
<path d="M69.0001 52.94C68.9601 53.145 68.2351 53.155 67.4151 53.38C66.5951 53.605 65.9501 53.925 65.8151 53.77C65.7551 53.695 65.8451 53.495 66.0901 53.27C66.42 52.9878 66.8098 52.7845 67.2299 52.6753C67.6501 52.5662 68.0896 52.5541 68.5151 52.64C68.8451 52.715 69.0001 52.845 69.0001 52.94Z" fill="#263238"/>
<path d="M75.1101 51.69C75.0101 51.87 74.4951 51.775 73.9051 51.85C73.3151 51.925 72.8301 52.12 72.6901 51.965C72.6301 51.89 72.6901 51.72 72.8801 51.535C73.1423 51.3026 73.4713 51.159 73.8201 51.125C74.1645 51.0835 74.5133 51.1481 74.8201 51.31C75.0601 51.445 75.1551 51.6 75.1101 51.69Z" fill="#263238"/>
<path d="M67.8201 55.725C67.8311 55.8024 67.8574 55.8768 67.8974 55.944C67.9374 56.0111 67.9903 56.0696 68.0531 56.1162C68.1159 56.1627 68.1873 56.1963 68.2632 56.2149C68.3391 56.2336 68.4179 56.2371 68.4951 56.225C68.5702 56.2164 68.6428 56.1929 68.7087 56.1559C68.7747 56.1189 68.8326 56.0692 68.8791 56.0097C68.9256 55.9501 68.9598 55.8819 68.9798 55.809C68.9997 55.7361 69.0049 55.66 68.9951 55.585C68.9717 55.4293 68.8875 55.2893 68.7609 55.1956C68.6344 55.1018 68.4759 55.0621 68.3201 55.085C68.2448 55.093 68.1718 55.1161 68.1056 55.1528C68.0393 55.1896 67.9811 55.2393 67.9345 55.299C67.8878 55.3587 67.8537 55.4272 67.834 55.5004C67.8144 55.5736 67.8096 55.65 67.8201 55.725Z" fill="#263238"/>
<path d="M74.1251 54.36C74.1485 54.5157 74.2327 54.6557 74.3593 54.7495C74.4858 54.8432 74.6443 54.8829 74.8001 54.86C74.8751 54.8514 74.9478 54.8279 75.0137 54.7909C75.0796 54.7539 75.1375 54.7042 75.184 54.6447C75.2306 54.5851 75.2648 54.5169 75.2847 54.444C75.3046 54.3711 75.3098 54.2949 75.3001 54.22C75.2766 54.0643 75.1924 53.9243 75.0659 53.8305C74.9393 53.7368 74.7808 53.6971 74.6251 53.72C74.5497 53.728 74.4767 53.7511 74.4105 53.7878C74.3442 53.8246 74.286 53.8743 74.2394 53.934C74.1927 53.9937 74.1586 54.0622 74.1389 54.1354C74.1193 54.2086 74.1146 54.285 74.1251 54.36Z" fill="#263238"/>
<path d="M73.0801 60C72.8839 59.9389 72.6724 59.9485 72.4824 60.027C72.2924 60.1056 72.136 60.2482 72.0401 60.43C71.9486 60.597 71.9114 60.7884 71.9338 60.9775C71.9563 61.1666 72.0371 61.344 72.1651 61.485C72.3014 61.6189 72.4808 61.6999 72.6714 61.7137C72.8619 61.7274 73.0511 61.6729 73.2051 61.56C73.398 61.3844 73.5146 61.1404 73.5301 60.88C73.5641 60.6413 73.507 60.3985 73.3701 60.2C73.2999 60.1029 73.1996 60.0317 73.0848 59.9974C72.9701 59.963 72.8472 59.9675 72.7351 60.01" fill="#EB996E"/>
<path d="M75.9999 48C75.6074 46.4158 74.6281 45.0398 73.2599 44.15C72.14 43.3411 70.8097 42.8739 69.4299 42.805C68.0416 42.7452 66.686 43.2378 65.6599 44.175C64.9318 44.8967 64.5154 45.8749 64.4999 46.9L64.5799 46.2C64.3698 46.7696 64.3698 47.3954 64.5799 47.965C64.6949 48.27 64.8349 48.58 64.9549 48.885C65.3129 49.7664 65.9769 50.489 66.8249 50.92C67.209 51.126 67.6391 51.231 68.0749 51.225C68.2931 51.2206 68.5077 51.1687 68.7037 51.0728C68.8997 50.977 69.0725 50.8395 69.2099 50.67C69.5204 50.128 69.6167 49.4895 69.4799 48.88C69.808 49.4823 70.2762 49.9967 70.8449 50.38C71.1353 50.5656 71.4807 50.6455 71.8231 50.6064C72.1655 50.5672 72.484 50.4114 72.7249 50.165C73.1349 49.665 72.9749 48.875 72.7249 48.255C73.1118 48.8398 73.6536 49.3055 74.2899 49.6C74.4574 49.6961 74.6429 49.7563 74.8348 49.777C75.0268 49.7976 75.2209 49.7782 75.4049 49.72C75.5521 49.647 75.6807 49.5416 75.7812 49.4117C75.8817 49.2818 75.9513 49.1308 75.9849 48.97C76.0592 48.6515 76.0643 48.3207 75.9999 48Z" fill="#263238"/>
<path d="M72.385 49.33C72.34 49.33 72.35 48.735 72.155 47.83C71.93 46.6274 71.3254 45.5286 70.43 44.695C69.9378 44.2475 69.344 43.9265 68.7 43.76C68.1725 43.6306 67.6232 43.6169 67.09 43.72C66.5985 43.8349 66.129 44.0291 65.7 44.295C65.7 44.295 65.785 44.17 66.005 44.01C66.3207 43.7892 66.6752 43.6297 67.05 43.54C67.6107 43.4087 68.1942 43.4087 68.755 43.54C69.4459 43.7125 70.0822 44.0564 70.605 44.54C71.5426 45.408 72.1548 46.5708 72.34 47.835C72.3995 48.2087 72.4296 48.5866 72.43 48.965C72.4361 49.0884 72.4209 49.2119 72.385 49.33Z" fill="#455A64"/>
<path d="M118.435 107.625L99.21 100C99.21 100 89.365 87.085 89.57 86.835L82.655 94.405L92.705 108L116 113.46L120 112.35C119.12 108.105 118.435 107.625 118.435 107.625Z" fill="#FFBE9D"/>
<path d="M76.5349 70.78L73.9149 69.78L62.6049 71.215V73.215L62.2799 73.255C59.8419 73.7734 57.5036 74.6817 55.3549 75.945C53.3423 77.1736 51.7432 78.9761 50.763 81.1208C49.7829 83.2654 49.4667 85.6542 49.8549 87.98C50.3149 90.84 51.2049 94.315 52.9249 96.325C56.2099 100.17 59.2099 95.42 59.2099 95.42C59.2099 95.42 61.2699 100.12 61.1499 102.345C61.0499 104.21 60.2299 108.09 59.9649 109.3C59.9541 109.348 59.9531 109.398 59.9622 109.447C59.9713 109.496 59.9903 109.542 60.0179 109.583C60.0455 109.625 60.0812 109.66 60.1228 109.687C60.1644 109.714 60.2111 109.732 60.2599 109.74L84.1199 114.155L84.2349 108.32L83.4749 84.32L82.3999 75C82.3999 75 82.4349 70.55 76.5349 70.78Z" fill="#FEC303"/>
<path d="M82.0352 73.45L91.1352 86.595L83.8102 95.515L82.0352 73.45Z" fill="#FEC303"/>
<path d="M83.9999 101.11C83.9673 100.828 83.9556 100.544 83.9649 100.26C83.9649 99.67 83.9649 98.895 83.9349 97.95C83.8907 95.4137 83.7087 92.8816 83.3899 90.365C83.0149 87.415 82.4399 84.78 82.0049 82.865L81.4749 80.615C81.3981 80.3428 81.3413 80.0654 81.3049 79.785C81.4187 80.0448 81.509 80.3142 81.5749 80.59C81.7299 81.09 81.9399 81.875 82.1799 82.825C82.8255 85.292 83.3165 87.7968 83.6499 90.325C83.9714 92.8521 84.1284 95.3975 84.1199 97.945C84.1199 98.945 84.0949 99.715 84.0649 100.26C84.0675 100.545 84.0458 100.829 83.9999 101.11Z" fill="#263238"/>
<path d="M61.5999 81.125C61.5999 81.165 60.9099 81.16 59.8049 81.215C58.3631 81.2932 56.9292 81.4787 55.5149 81.77C54.1011 82.0667 52.7107 82.4661 51.3549 82.965C50.3149 83.35 49.6899 83.635 49.6699 83.595C49.7981 83.4946 49.9394 83.4121 50.0899 83.35C50.3649 83.2 50.7749 83.01 51.2899 82.795C53.9879 81.6809 56.8713 81.0838 59.7899 81.035C60.3499 81.035 60.7899 81.035 61.1149 81.065C61.2787 81.0597 61.4423 81.08 61.5999 81.125Z" fill="#FAFAFA"/>
<path d="M82.6749 87.14C82.3092 87.2729 81.9276 87.3569 81.5399 87.39C79.691 87.6599 77.8179 87.7236 75.9549 87.58C75.5659 87.5733 75.1793 87.5162 74.8049 87.41C75.1908 87.3757 75.579 87.3757 75.9649 87.41C76.6749 87.41 77.6599 87.41 78.7449 87.41C79.8299 87.41 80.8099 87.3 81.5199 87.235C81.9013 87.1684 82.2879 87.1366 82.6749 87.14Z" fill="#FAFAFA"/>
<path d="M86.8501 81.195C86.299 81.8318 85.6386 82.3652 84.9001 82.77C84.2029 83.2413 83.425 83.5803 82.6051 83.77C82.5751 83.7 83.6051 83.27 84.7651 82.53C85.9251 81.79 86.8001 81.135 86.8501 81.195Z" fill="#FAFAFA"/>
<path d="M83.175 75.1C81.5975 76.519 79.5875 77.3646 77.47 77.5C77.47 77.42 78.845 77.21 80.425 76.535C82.005 75.86 83.125 75.035 83.175 75.1Z" fill="#FAFAFA"/>
<path d="M83.6701 97.32C83.523 97.4189 83.3653 97.5011 83.2001 97.565C82.8851 97.715 82.4301 97.9 81.8501 98.115C80.3432 98.6565 78.7877 99.0517 77.2051 99.295C75.6225 99.5393 74.0199 99.6281 72.4201 99.56C71.8051 99.535 71.3101 99.49 70.9701 99.445C70.7921 99.4332 70.6159 99.4013 70.4451 99.35C70.4451 99.305 71.2051 99.35 72.4451 99.38C75.6241 99.4097 78.7868 98.9234 81.8101 97.94C82.9501 97.565 83.6551 97.28 83.6701 97.32Z" fill="#FAFAFA"/>
<path d="M83.8551 104.095C83.8551 104.095 83.7851 104.145 83.6401 104.22L83.0001 104.5C82.4501 104.76 81.6351 105.1 80.6151 105.5C79.5951 105.9 78.3601 106.285 76.9701 106.665C73.9483 107.479 70.8465 107.96 67.7201 108.1C66.2801 108.155 64.9851 108.15 63.8951 108.1C62.8051 108.05 61.9301 107.97 61.3251 107.885L60.6301 107.79C60.5483 107.784 60.4676 107.767 60.3901 107.74C60.4713 107.727 60.554 107.727 60.6351 107.74L61.3351 107.785C61.9401 107.835 62.8351 107.885 63.9001 107.915C64.9651 107.945 66.2801 107.915 67.7101 107.865C69.1401 107.815 70.7101 107.635 72.3451 107.365C73.9801 107.095 75.5201 106.77 76.9101 106.42C78.3001 106.07 79.5301 105.675 80.5501 105.31C81.5701 104.945 82.4001 104.64 82.9601 104.41L83.6101 104.155C83.6895 104.126 83.7716 104.106 83.8551 104.095Z" fill="#FAFAFA"/>
<path d="M40 210.39L37.295 222.605L32.36 231.65C32.2761 231.804 32.2248 231.974 32.2092 232.15C32.1936 232.325 32.2141 232.501 32.2694 232.668C32.3247 232.835 32.4136 232.988 32.5307 233.12C32.6478 233.251 32.7905 233.356 32.95 233.43C33.1353 233.515 33.3382 233.554 33.5417 233.545C33.7453 233.535 33.9436 233.477 34.12 233.375C36.41 232.055 44.815 227.14 44.96 226.235C45.135 225.19 48.67 213.54 48.67 213.54L40 210.39Z" fill="#FEC303"/>
<g opacity="0.6">
<path d="M32.95 233.43L45.165 225.43L45.035 225.93C44.9281 226.376 44.6657 226.77 44.2949 227.04C43.2949 227.755 40.51 229.675 34.16 233.385C33.9776 233.492 33.7717 233.552 33.5606 233.56C33.3495 233.567 33.1397 233.523 32.95 233.43Z" fill="white"/>
</g>
<g opacity="0.6">
<path d="M43.6301 220.885C43.4537 220.959 43.3107 221.095 43.2285 221.267C43.1464 221.44 43.1309 221.637 43.1851 221.82C43.2519 221.998 43.3844 222.144 43.5555 222.228C43.7266 222.312 43.9233 222.327 44.1051 222.27C44.294 222.192 44.4469 222.046 44.5338 221.861C44.6208 221.676 44.6355 221.465 44.5751 221.27C44.4866 221.093 44.3336 220.957 44.1477 220.889C43.9617 220.821 43.7569 220.827 43.5751 220.905" fill="white"/>
</g>
<path d="M37.0301 228.8C36.8284 228.35 36.5453 227.942 36.1951 227.595C35.7918 227.314 35.3387 227.112 34.8601 227C34.8601 226.965 35.0351 226.91 35.3301 226.94C35.714 226.989 36.0753 227.149 36.3701 227.4C36.6672 227.641 36.8864 227.965 37.0001 228.33C37.0851 228.615 37.0601 228.8 37.0301 228.8Z" fill="#263238"/>
<path d="M35.765 230.215C35.695 230.255 35.4 229.765 34.815 229.43C34.4419 229.257 34.0577 229.108 33.665 228.985C33.8809 228.914 34.1105 228.896 34.3348 228.932C34.5591 228.967 34.7718 229.056 34.955 229.19C35.62 229.575 35.835 230.2 35.765 230.215Z" fill="#263238"/>
<path d="M39.1501 227.11C38.7249 226.638 38.2635 226.2 37.7701 225.8C37.2265 225.468 36.6581 225.179 36.0701 224.935C36.7463 224.921 37.4055 225.148 37.9301 225.575C38.5085 225.923 38.9417 226.468 39.1501 227.11Z" fill="#263238"/>
<path d="M40.2849 223.465C40.2349 223.53 39.6299 223.085 38.7849 222.84C37.9399 222.595 37.1749 222.635 37.1699 222.55C37.7264 222.406 38.3116 222.415 38.8634 222.576C39.4152 222.737 39.9133 223.044 40.3049 223.465H40.2849Z" fill="#263238"/>
<path d="M41.17 219.9C40.6823 219.598 40.1558 219.365 39.605 219.205C39.0376 219.128 38.4624 219.128 37.895 219.205C37.895 219.175 38.05 219.055 38.37 218.96C38.7907 218.846 39.2322 218.831 39.6593 218.918C40.0864 219.005 40.4874 219.191 40.83 219.46C41.085 219.7 41.19 219.88 41.17 219.9Z" fill="#263238"/>
<path d="M39.79 218.53C39.7903 218.371 39.8244 218.215 39.89 218.07C40.0316 217.657 40.2562 217.278 40.55 216.955C40.7421 216.699 41.0125 216.513 41.32 216.425C41.4247 216.408 41.5321 216.423 41.6284 216.467C41.7246 216.512 41.8053 216.584 41.86 216.675C41.9519 216.861 41.9715 217.075 41.915 217.275C41.7868 217.676 41.5231 218.02 41.1692 218.248C40.8153 218.476 40.3931 218.574 39.975 218.525C39.5626 218.466 39.1769 218.287 38.8663 218.009C38.5558 217.732 38.3344 217.368 38.23 216.965C38.206 216.863 38.2038 216.756 38.2236 216.653C38.2434 216.549 38.2848 216.451 38.345 216.365C38.4141 216.284 38.507 216.228 38.6104 216.204C38.7138 216.179 38.8222 216.189 38.92 216.23C39.2026 216.371 39.4438 216.583 39.62 216.845C39.885 217.192 40.0864 217.583 40.215 218C40.2759 218.149 40.3048 218.309 40.3 218.47C40.0984 217.931 39.8169 217.425 39.465 216.97C39.3011 216.756 39.0885 216.585 38.845 216.47C38.7914 216.447 38.7318 216.442 38.675 216.455C38.6182 216.469 38.5673 216.5 38.53 216.545C38.495 216.604 38.4726 216.669 38.464 216.737C38.4554 216.805 38.4608 216.874 38.48 216.94C38.5843 217.279 38.7823 217.582 39.0512 217.814C39.3201 218.046 39.649 218.197 40 218.25C40.3536 218.291 40.7108 218.211 41.0131 218.023C41.3155 217.835 41.5453 217.55 41.665 217.215C41.7134 217.079 41.7134 216.931 41.665 216.795C41.6366 216.744 41.5929 216.703 41.54 216.678C41.4871 216.652 41.4276 216.645 41.37 216.655C41.1094 216.727 40.8772 216.877 40.705 217.085C40.3214 217.512 40.0121 218.001 39.79 218.53Z" fill="#263238"/>
<g opacity="0.3">
<path d="M39.67 211.715L39.085 214.515L47.93 215.985L48.67 213.54L39.985 210.39L39.67 211.715Z" fill="black"/>
</g>
<path d="M79.5 214.91L78.77 224.67C78.77 224.67 88.45 228.67 88.49 230.51L69.49 229.775L69.99 214.515L79.5 214.91Z" fill="#FEC303"/>
<g opacity="0.6">
<path d="M72.945 223.62C72.7606 223.669 72.6007 223.785 72.4956 223.944C72.3906 224.104 72.3477 224.296 72.375 224.485C72.4171 224.671 72.5283 224.834 72.6862 224.941C72.8441 225.047 73.0367 225.09 73.225 225.06C73.4211 225.008 73.5909 224.885 73.7018 224.715C73.8126 224.545 73.8565 224.34 73.825 224.14C73.7618 223.95 73.6276 223.792 73.4506 223.699C73.2735 223.606 73.0672 223.585 72.875 223.64" fill="white"/>
</g>
<g opacity="0.6">
<path d="M69.5 229.775L69.61 228.235L87.785 229.5C87.785 229.5 88.62 229.9 88.5 230.5L69.5 229.775Z" fill="white"/>
</g>
<path d="M79.09 224.585C79.09 224.68 78.6201 224.705 78.1551 224.985C77.6901 225.265 77.4301 225.645 77.3451 225.605C77.2601 225.565 77.4201 225.035 77.9901 224.705C78.5601 224.375 79.115 224.5 79.09 224.585Z" fill="#263238"/>
<path d="M81.0501 225.5C81.0501 225.595 80.6601 225.735 80.3301 226.115C80.0001 226.495 79.8951 226.905 79.8001 226.9C79.7051 226.895 79.6701 226.365 80.0901 225.9C80.5101 225.435 81.0501 225.4 81.0501 225.5Z" fill="#263238"/>
<path d="M82.0901 227.915C82.0051 227.915 81.8951 227.46 82.1501 226.965C82.4051 226.47 82.8501 226.28 82.8851 226.36C82.9201 226.44 82.6451 226.7 82.4401 227.11C82.2351 227.52 82.1801 227.91 82.0901 227.915Z" fill="#263238"/>
<path d="M79.0001 222.345C78.9601 222.425 78.5401 222.28 78.0001 222.295C77.4601 222.31 77.0601 222.46 77.0001 222.38C76.9401 222.3 77.3601 221.985 78.0001 221.975C78.6401 221.965 79.0601 222.275 79.0001 222.345Z" fill="#263238"/>
<g opacity="0.3">
<path d="M79.3652 216.845L79.2352 218.585L69.9102 218.135L69.9752 216.125L79.3652 216.845Z" fill="black"/>
</g>
<path d="M79.1249 220.37C78.8108 220.446 78.4816 220.432 78.1749 220.33C77.8283 220.258 77.4923 220.142 77.1749 219.985C76.9898 219.894 76.8111 219.79 76.6399 219.675C76.5356 219.611 76.4412 219.532 76.3599 219.44C76.3048 219.368 76.2749 219.28 76.2749 219.19C76.2749 219.1 76.3048 219.012 76.3599 218.94C76.4085 218.877 76.4716 218.826 76.5438 218.792C76.616 218.758 76.6952 218.742 76.7749 218.745C76.8953 218.75 77.0146 218.77 77.1299 218.805C77.33 218.863 77.5242 218.94 77.7099 219.035C78.0257 219.189 78.3144 219.394 78.5649 219.64C78.9899 220.065 79.1249 220.42 79.0949 220.435C79.0649 220.45 78.8499 220.165 78.4149 219.81C78.1596 219.61 77.8808 219.442 77.5849 219.31C77.4085 219.237 77.2283 219.173 77.0449 219.12C76.8449 219.06 76.6749 219.055 76.6199 219.12C76.5649 219.185 76.6199 219.17 76.6199 219.23C76.6799 219.296 76.7489 219.353 76.8249 219.4C76.9853 219.512 77.1523 219.613 77.3249 219.705C77.6133 219.864 77.9164 219.995 78.2299 220.095C78.5344 220.165 78.8335 220.257 79.1249 220.37Z" fill="#263238"/>
<path d="M79.0001 220.5C78.834 220.22 78.7589 219.895 78.7852 219.57C78.7871 219.218 78.8445 218.869 78.9552 218.535C79.0269 218.339 79.1156 218.15 79.2202 217.97C79.2763 217.846 79.3633 217.739 79.4727 217.659C79.5821 217.578 79.7103 217.527 79.8452 217.51C79.9305 217.516 80.0126 217.545 80.0816 217.596C80.1507 217.646 80.204 217.715 80.2352 217.795C80.2786 217.907 80.3055 218.025 80.3152 218.145C80.348 218.357 80.348 218.573 80.3152 218.785C80.2483 219.138 80.0955 219.47 79.8702 219.75C79.4802 220.25 79.0902 220.325 79.0802 220.295C79.0702 220.265 79.3801 220.08 79.6851 219.615C79.8602 219.35 79.9746 219.049 80.0201 218.735C80.0455 218.553 80.0455 218.367 80.0201 218.185C79.9951 217.985 79.9251 217.815 79.8501 217.835C79.7751 217.855 79.5901 217.975 79.5051 218.135C79.4075 218.295 79.3223 218.462 79.2501 218.635C79.1344 218.937 79.0604 219.253 79.0301 219.575C78.9651 220.135 79.0501 220.5 79.0001 220.5Z" fill="#263238"/>
<path d="M59.86 109.65C59.86 109.65 56.86 109.785 54.86 120.045C52.86 130.305 37.615 213.44 37.615 213.44L48.67 213.54L69.5 134.5L68.115 216L79.345 216.86C79.345 216.86 87.77 126.715 87.845 121.47C87.945 114.93 84.19 108.315 84.19 108.315L59.86 109.65Z" fill="#263238"/>
<path d="M75.0549 108.775C75.1249 108.775 73.9749 114.65 72.4899 121.865C71.0049 129.08 69.7449 134.92 69.6749 134.905C69.6049 134.89 70.7499 129.03 72.2349 121.815C73.7199 114.6 74.9999 108.76 75.0549 108.775Z" fill="#455A64"/>
<path d="M76.7751 110.24C76.7751 110.21 77.0751 110.12 77.4201 110.425C77.5181 110.514 77.5957 110.623 77.6474 110.745C77.6992 110.866 77.724 110.998 77.7201 111.13C77.7076 111.297 77.6478 111.457 77.5478 111.592C77.4478 111.726 77.3116 111.83 77.1551 111.89C77.0024 111.959 76.8334 111.984 76.6672 111.962C76.501 111.94 76.3443 111.872 76.2151 111.765C76.1184 111.674 76.0421 111.564 75.9912 111.442C75.9404 111.319 75.9161 111.187 75.9201 111.055C75.9201 110.595 76.2301 110.435 76.2351 110.465C76.1508 110.649 76.1065 110.848 76.1051 111.05C76.1118 111.152 76.1387 111.251 76.1842 111.342C76.2297 111.433 76.2929 111.514 76.3701 111.58C76.4688 111.648 76.5829 111.69 76.7021 111.702C76.8213 111.715 76.9416 111.697 77.0521 111.651C77.1627 111.604 77.2598 111.531 77.3345 111.438C77.4093 111.344 77.4594 111.233 77.4801 111.115C77.4875 111.014 77.4744 110.912 77.4418 110.816C77.4092 110.72 77.3576 110.631 77.2901 110.555C77.0451 110.27 76.7701 110.28 76.7751 110.24Z" fill="#455A64"/>
<path d="M76.3001 114.3C76.3001 114.27 76.6101 114.3 76.8001 114.715C76.8484 114.833 76.8703 114.961 76.8643 115.089C76.8582 115.217 76.8244 115.342 76.7651 115.455C76.6791 115.59 76.558 115.699 76.4149 115.77C76.2717 115.841 76.1119 115.872 75.9525 115.859C75.7931 115.846 75.6403 115.79 75.5104 115.697C75.3805 115.604 75.2784 115.477 75.2151 115.33C75.1751 115.209 75.1621 115.082 75.1767 114.956C75.1914 114.829 75.2335 114.708 75.3001 114.6C75.5351 114.225 75.8551 114.235 75.8451 114.265C75.8351 114.295 75.6051 114.365 75.4601 114.685C75.3867 114.864 75.3867 115.066 75.4601 115.245C75.5123 115.344 75.5888 115.429 75.6823 115.49C75.7759 115.552 75.8836 115.589 75.9953 115.598C76.1071 115.607 76.2193 115.588 76.3215 115.542C76.4238 115.496 76.5127 115.425 76.5801 115.335C76.6743 115.164 76.6976 114.963 76.6451 114.775C76.5001 114.435 76.2751 114.335 76.3001 114.3Z" fill="#455A64"/>
<path d="M65.705 110.34C65.6844 110.512 65.6407 110.68 65.575 110.84C65.4188 111.298 65.2231 111.741 64.99 112.165C64.2271 113.579 63.1253 114.783 61.7832 115.666C60.4411 116.55 58.9007 117.088 57.3 117.23C56.8192 117.272 56.3357 117.272 55.855 117.23C55.6856 117.225 55.5176 117.198 55.355 117.15C55.355 117.1 56.11 117.185 57.305 117.035C58.8624 116.846 60.3548 116.298 61.6649 115.435C62.9749 114.572 64.0669 113.417 64.855 112.06C65.44 111.05 65.66 110.325 65.705 110.34Z" fill="#455A64"/>
<path d="M87.2151 117.635C87.2151 117.635 87.0851 117.575 86.8801 117.435C86.5936 117.229 86.3259 116.998 86.0801 116.745C85.2578 115.913 84.6162 114.919 84.1954 113.828C83.7747 112.736 83.584 111.569 83.6351 110.4C83.6465 110.048 83.6917 109.698 83.7701 109.355C83.8251 109.11 83.8601 108.98 83.8801 108.985C83.9001 108.99 83.8201 109.53 83.8201 110.405C83.8209 112.702 84.6743 114.917 86.2151 116.62C86.8001 117.265 87.2401 117.595 87.2151 117.635Z" fill="#455A64"/>
<path d="M126 117.925C126.165 117.525 126.12 117.685 123.47 115.925C123.47 115.925 127.27 118.425 126.875 117.235C126.533 116.784 126.115 116.397 125.64 116.09C126.64 116.68 127.22 116.745 127.395 116.505C127.695 116.09 125.52 114.505 124.485 113.79C125.431 114.467 126.424 115.077 127.455 115.615C128.07 115.805 127.775 115.085 127.36 114.56C126.945 114.035 123.725 110.935 122.86 110.01C122.778 109.94 122.712 109.852 122.666 109.754C122.621 109.655 122.597 109.548 122.597 109.44C122.597 109.332 122.621 109.225 122.666 109.126C122.712 109.028 122.778 108.94 122.86 108.87C124.41 107.87 125.09 106.275 125.07 105.75C125.053 105.632 124.999 105.522 124.915 105.437C124.832 105.351 124.723 105.294 124.606 105.274C124.488 105.254 124.367 105.272 124.26 105.325C124.153 105.378 124.065 105.464 124.01 105.57C123.619 106.056 123.163 106.487 122.655 106.85C122.261 107.157 121.818 107.396 121.345 107.555C120.795 107.735 118.09 107.585 117.51 107.29L115.665 113.545C115.665 113.545 122.36 116.675 123.63 117.285C125.19 118.025 125.885 118.23 126 117.925Z" fill="#FFBE9D"/>
<path d="M122.265 115C122.21 115.075 123.08 115.71 124.205 116.425C125.33 117.14 126.275 117.655 126.32 117.58C126.365 117.505 125.495 116.865 124.375 116.155C123.255 115.445 122.315 114.905 122.265 115Z" fill="#EB996E"/>
<path d="M122.895 113.775C122.845 113.85 123.735 114.58 124.895 115.41C126.055 116.24 127.015 116.855 127.065 116.785C127.115 116.715 126.23 115.98 125.065 115.15C123.9 114.32 122.95 113.705 122.895 113.775Z" fill="#EB996E"/>
<path d="M123.56 112.535C123.51 112.605 124.34 113.315 125.415 114.115C126.49 114.915 127.415 115.505 127.455 115.435C127.495 115.365 126.68 114.655 125.605 113.855C124.53 113.055 123.615 112.465 123.56 112.535Z" fill="#EB996E"/>
<path d="M55.4651 89.88L60.3751 90.15C60.7229 91.5207 61.1879 92.859 61.7651 94.15C65.7201 87.29 68.7651 78.095 69.5451 74.4C69.4351 74.0367 69.3001 73.6267 69.1401 73.17C69.0203 72.4797 69.0407 71.7723 69.2001 71.09C69.3351 70.27 69.5651 69.16 69.6301 68.65C69.8451 67.09 70.0951 66.84 70.6301 67.02C71.3701 67.26 70.3251 71.405 70.9301 71.495C71.2601 71.54 71.6551 70.12 71.7751 68.955C71.8951 67.79 72.4151 64.21 72.8001 63.955C73.3651 63.605 73.8551 64.16 73.7151 65.32C73.5751 66.48 73.3901 69.995 74.0051 70.04C74.6201 70.085 75.1201 64.145 75.1201 64.145C75.1201 64.145 75.0251 62.855 75.7351 62.885C77.0201 62.94 76.0201 69.205 75.9101 69.8C75.8301 70.21 76.5001 70.3 76.5601 69.84C76.6201 69.38 76.9301 63.895 78.2351 63.94C79.2351 63.975 77.4601 69.1 78.0251 70.29C78.5901 71.48 78.9801 66.255 79.9401 66.325C80.2951 66.355 80.5601 66.425 79.9051 69.38C79.2659 71.7298 78.4997 74.0432 77.6101 76.31C76.1101 84.51 69.4151 110.74 58.9551 105.94C53.1051 103.255 50.3701 89.94 50.3701 89.94L55.4651 89.88Z" fill="#FFBE9D"/>
<path d="M77.6201 76.355C77.6287 76.2931 77.6455 76.2325 77.6701 76.175C77.7151 76.045 77.7701 75.875 77.8451 75.675C78.0101 75.2 78.2351 74.54 78.5301 73.675C78.8251 72.81 79.1801 71.76 79.5301 70.52C79.7101 69.905 79.8601 69.235 79.9951 68.52C80.0651 68.16 80.1301 67.79 80.1751 67.41C80.1875 67.2219 80.1875 67.0331 80.1751 66.845C80.1751 66.65 80.1301 66.49 79.9751 66.485C79.8201 66.48 79.7101 66.575 79.6001 66.74C79.5005 66.9166 79.4184 67.1024 79.3551 67.295C79.2151 67.69 79.1051 68.11 78.9951 68.535C78.8851 68.96 78.7851 69.405 78.6551 69.855C78.5984 70.1015 78.4967 70.3354 78.3551 70.545C78.3195 70.5861 78.2725 70.6156 78.2201 70.63C78.187 70.6373 78.1528 70.637 78.1199 70.6292C78.087 70.6214 78.0563 70.6063 78.0301 70.585C77.9726 70.5323 77.9252 70.4696 77.8901 70.4C77.8372 70.2772 77.8019 70.1476 77.7851 70.015C77.7623 69.0065 77.863 67.999 78.0851 67.015C78.1701 66.515 78.2601 66.015 78.3251 65.515C78.3551 65.26 78.3851 65.015 78.3901 64.745C78.3951 64.475 78.3551 64.19 78.2501 64.145C78.1451 64.1 77.8901 64.24 77.7501 64.45C77.6119 64.6718 77.5026 64.9104 77.4251 65.16C77.2546 65.6823 77.1258 66.2173 77.0401 66.76C76.9451 67.31 76.8701 67.87 76.8051 68.44C76.7801 68.725 76.7501 69.01 76.7251 69.3L76.6851 69.735C76.6904 69.8279 76.6753 69.9208 76.6407 70.0073C76.6061 70.0937 76.553 70.1714 76.4851 70.235C76.3994 70.2976 76.2961 70.3313 76.1901 70.3313C76.084 70.3313 75.9807 70.2976 75.8951 70.235C75.8466 70.203 75.8055 70.161 75.7744 70.1119C75.7434 70.0627 75.7232 70.0075 75.7151 69.95C75.7075 69.8969 75.7075 69.8431 75.7151 69.79V69.685L75.8501 68.81C75.9351 68.22 76.0051 67.63 76.0601 67.03C76.1151 66.43 76.1601 65.825 76.1701 65.22C76.1994 64.621 76.1387 64.021 75.9901 63.44C75.9556 63.2926 75.8662 63.1638 75.7401 63.08C75.6798 63.0606 75.6149 63.0608 75.5547 63.0806C75.4945 63.1004 75.4421 63.1386 75.4051 63.19C75.2432 63.486 75.1768 63.8248 75.2151 64.16C75.1051 65.335 74.9801 66.49 74.8101 67.625C74.7251 68.19 74.6301 68.755 74.4901 69.31C74.4501 69.445 74.4101 69.585 74.3601 69.725C74.3125 69.8947 74.2128 70.0451 74.0751 70.155C74.0141 70.1849 73.9449 70.1933 73.8786 70.1788C73.8123 70.1642 73.7529 70.1277 73.7101 70.075C73.649 70.0109 73.6029 69.934 73.5751 69.85C73.5211 69.7113 73.4826 69.5671 73.4601 69.42C73.3429 68.3319 73.3328 67.235 73.4301 66.145C73.504 65.6369 73.5324 65.1232 73.5151 64.61C73.4989 64.391 73.3985 64.1867 73.2351 64.04C73.1967 64.0161 73.1538 64.0003 73.1092 63.9934C73.0645 63.9865 73.0189 63.9888 72.9751 64C72.9283 64.0158 72.8831 64.0359 72.8401 64.06C72.7951 64.1 72.8001 64.06 72.7701 64.145C72.5892 64.5947 72.4568 65.0623 72.3751 65.54C72.2751 66.04 72.1901 66.495 72.1151 66.965C72.0401 67.435 71.9701 67.895 71.9101 68.355C71.8501 68.815 71.8201 69.265 71.7301 69.715C71.6524 70.1546 71.5352 70.5864 71.3801 71.005C71.3389 71.1115 71.2904 71.2151 71.2351 71.315C71.1651 71.41 71.1251 71.53 70.9351 71.59C70.8864 71.5989 70.8363 71.5932 70.7909 71.5737C70.7455 71.5541 70.7069 71.5215 70.6801 71.48C70.6451 71.4223 70.6182 71.36 70.6001 71.295C70.5776 71.1863 70.5642 71.0759 70.5601 70.965C70.5601 70.11 70.6751 69.33 70.7201 68.575C70.7527 68.2141 70.7527 67.8509 70.7201 67.49C70.7201 67.33 70.6451 67.14 70.5551 67.105C70.492 67.0741 70.4228 67.058 70.3526 67.058C70.2824 67.058 70.2131 67.0741 70.1501 67.105C69.9402 67.3304 69.8102 67.6185 69.7801 67.925C69.7051 68.23 69.6751 68.54 69.6201 68.835C69.4101 70.015 69.1901 71.035 69.0851 71.865C69.0358 72.23 69.0358 72.6 69.0851 72.965C69.1551 73.265 69.2601 73.535 69.3151 73.745C69.3701 73.955 69.4251 74.105 69.4601 74.245C69.4787 74.2986 69.4921 74.3538 69.5001 74.41C69.4701 74.3616 69.4466 74.3095 69.4301 74.255L69.2601 73.755C69.1901 73.54 69.0851 73.3 69.0001 72.97C68.9466 72.5952 68.9466 72.2148 69.0001 71.84C69.0951 70.995 69.2951 69.985 69.5001 68.8C69.5551 68.505 69.5851 68.195 69.6501 67.875C69.6859 67.706 69.7309 67.5391 69.7851 67.375C69.8351 67.1931 69.9441 67.0331 70.0951 66.92C70.1859 66.8718 70.2872 66.8467 70.3901 66.8467C70.4929 66.8467 70.5942 66.8718 70.6851 66.92C70.7828 66.9816 70.8631 67.0673 70.9183 67.1689C70.9734 67.2704 71.0016 67.3844 71.0001 67.5C71.0351 67.8759 71.0351 68.2541 71.0001 68.63C70.9651 69.39 70.8451 70.185 70.8651 70.995C70.8687 71.0908 70.8804 71.1862 70.9001 71.28C70.9001 71.375 70.9701 71.415 70.9601 71.395C70.9501 71.375 71.0551 71.315 71.0951 71.235C71.1444 71.1463 71.1878 71.0544 71.2251 70.96C71.3732 70.5547 71.482 70.1361 71.5501 69.71C71.6351 69.275 71.6651 68.825 71.7251 68.36C71.7851 67.895 71.8451 67.435 71.9201 66.96C71.9951 66.485 72.0801 66.01 72.1751 65.525C72.2564 65.0185 72.3974 64.5234 72.5951 64.05C72.635 63.9706 72.6954 63.9033 72.7701 63.855C72.8365 63.8186 72.907 63.79 72.9801 63.77C73.0639 63.746 73.1519 63.7403 73.2382 63.7533C73.3245 63.7662 73.4069 63.7975 73.4801 63.845C73.5961 63.9371 73.6919 64.0521 73.7616 64.1829C73.8313 64.3136 73.8733 64.4573 73.8851 64.605C73.9226 64.8771 73.9226 65.153 73.8851 65.425C73.8601 65.68 73.8351 65.925 73.8201 66.205C73.7226 67.27 73.7327 68.342 73.8501 69.405C73.8715 69.5313 73.905 69.6552 73.9501 69.775C73.9651 69.8234 73.9907 69.8678 74.0251 69.905C74.0251 69.905 74.0251 69.905 74.0501 69.905C74.0501 70.02 74.0501 69.905 74.0501 69.95C74.0501 69.995 74.0501 69.95 74.0501 69.91C74.1124 69.8265 74.1614 69.7337 74.1951 69.635C74.2417 69.5117 74.2817 69.3817 74.3151 69.245C74.4501 68.715 74.5401 68.155 74.6251 67.595C74.7951 66.47 74.9201 65.315 75.0251 64.145V64.17C74.9806 63.7579 75.07 63.3424 75.2801 62.985C75.3603 62.8829 75.4703 62.8082 75.5948 62.7715C75.7194 62.7348 75.8523 62.7377 75.9751 62.78C76.0799 62.8382 76.172 62.9169 76.2459 63.0113C76.3198 63.1058 76.3739 63.2142 76.4051 63.33C76.5652 63.9448 76.6309 64.5804 76.6001 65.215C76.6001 65.835 76.5451 66.445 76.4901 67.05C76.4351 67.655 76.3601 68.25 76.2751 68.84C76.2301 69.14 76.1851 69.43 76.1401 69.725C76.1001 69.91 76.1101 69.915 76.1401 69.97C76.1748 69.9934 76.2157 70.006 76.2576 70.006C76.2994 70.006 76.3404 69.9934 76.3751 69.97C76.4351 69.925 76.4451 69.84 76.4601 69.675L76.4951 69.24L76.5851 68.375C76.6451 67.805 76.7251 67.235 76.8201 66.68C76.9126 66.1225 77.0463 65.5727 77.2201 65.035C77.3108 64.7632 77.4334 64.5031 77.5851 64.26C77.6677 64.129 77.7766 64.0166 77.9051 63.93C77.9763 63.8784 78.0589 63.8447 78.1459 63.8316C78.2329 63.8186 78.3218 63.8266 78.4051 63.855C78.4817 63.9022 78.5463 63.9665 78.594 64.0428C78.6417 64.1192 78.6712 64.2054 78.6801 64.295C78.7007 64.4357 78.7091 64.5779 78.7051 64.72C78.7051 64.995 78.6701 65.26 78.6401 65.525C78.5701 66.025 78.4751 66.555 78.3851 67.06C78.1703 68.0098 78.0663 68.9813 78.0751 69.955C78.0892 70.0596 78.116 70.162 78.1551 70.26C78.1732 70.2955 78.195 70.329 78.2201 70.36C78.2201 70.36 78.2201 70.36 78.2201 70.325C78.3323 70.1443 78.415 69.9468 78.4651 69.74C78.5951 69.305 78.7001 68.865 78.8151 68.435C78.9182 68.0072 79.0434 67.5849 79.1901 67.17C79.2593 66.9645 79.3498 66.7668 79.4601 66.58C79.5197 66.4782 79.5977 66.3884 79.6901 66.315C79.7403 66.2714 79.8004 66.2405 79.8651 66.225C79.9297 66.2149 79.9955 66.2149 80.0601 66.225C80.1283 66.2318 80.1935 66.2567 80.2488 66.2972C80.3042 66.3376 80.3478 66.3921 80.3751 66.455C80.4168 66.5601 80.4389 66.6719 80.4401 66.785C80.4439 66.9873 80.4322 67.1895 80.4051 67.39C80.3601 67.78 80.2851 68.15 80.2151 68.515C80.0701 69.23 79.9101 69.91 79.7151 70.515C79.3401 71.755 78.9651 72.805 78.6601 73.66C78.3551 74.515 78.0951 75.16 77.9201 75.62C77.8351 75.83 77.7651 75.995 77.7151 76.12C77.6927 76.2018 77.6608 76.2807 77.6201 76.355Z" fill="#EB996E"/>
<path d="M50.325 90.445C51.275 93.8 53.135 98.975 55.13 104.445C55.1928 104.621 55.3066 104.775 55.4569 104.886C55.6071 104.998 55.7871 105.062 55.974 105.071C56.1609 105.08 56.3463 105.034 56.5067 104.937C56.6671 104.841 56.7952 104.699 56.875 104.53L61.7649 94.185C61.7649 94.185 60.585 85.685 60.685 85.99C60.785 86.295 50.595 87.09 50.595 87.09L50.325 90.445Z" fill="#FEC303"/>
<path d="M61.345 88.78C61.345 88.82 60.735 89 59.77 89.37C58.5088 89.8487 57.2938 90.4412 56.14 91.14C54.9877 91.8421 53.9001 92.6453 52.89 93.54C52.115 94.225 51.67 94.695 51.64 94.665C51.61 94.635 51.725 94.525 51.915 94.3C52.1828 93.9873 52.4665 93.6886 52.765 93.405C53.7506 92.456 54.837 91.6177 56.005 90.905C57.1733 90.2011 58.4137 89.6244 59.705 89.185C60.0953 89.0505 60.4925 88.937 60.895 88.845C61.0406 88.7995 61.1925 88.7775 61.345 88.78Z" fill="#FAFAFA"/>
<path d="M63.285 91.36C62.9672 91.0396 62.6917 90.6801 62.465 90.29C61.881 89.3796 61.3791 88.4191 60.965 87.42C60.5506 86.4178 60.2276 85.3803 60 84.32C59.8834 83.8863 59.8246 83.4391 59.825 82.99C59.9741 83.4092 60.0927 83.8387 60.18 84.275C60.4478 85.3103 60.7818 86.3274 61.18 87.32C61.5959 88.3073 62.0735 89.2676 62.61 90.195C62.8596 90.5685 63.0851 90.9576 63.285 91.36Z" fill="#263238"/>
<path d="M66.5451 45.55C65.6969 46.9481 65.171 48.5177 65.0058 50.1447C64.8406 51.7716 65.0402 53.4149 65.5901 54.955C66.0901 56.33 66.8902 57.685 66.7452 59.145C66.6002 60.605 65.4602 62.05 65.8602 63.49C66.1002 64.345 66.8301 64.99 67.1151 65.82C67.4401 66.82 67.1152 67.875 66.9402 68.9C66.5402 71.52 67.3801 74.155 67.5851 76.795C67.7901 79.435 67.0851 82.53 64.7251 83.68C64.0101 84.03 63.0752 84.13 62.4801 83.595C61.7201 82.92 61.9301 81.7 62.1401 80.7C64.2101 70.7 57.8152 60.94 59.2752 50.82C59.5102 49.2 60.4152 46.45 61.5802 45.32C62.7452 44.19 65.9802 44.32 67.0802 45.52" fill="#263238"/>
<path d="M56.6951 74.56C56.6951 74.56 57.0001 74.2 57.4501 73.49C58.0816 72.4873 58.5239 71.3772 58.7551 70.215C58.9059 69.4144 58.958 68.5983 58.9101 67.785C58.8226 66.8393 58.7876 65.8895 58.8051 64.94C58.8349 64.42 58.9307 63.9059 59.0901 63.41C59.2728 62.8992 59.5038 62.4069 59.7801 61.94C60.3401 60.995 61.0451 60.115 61.6951 59.175C62.3625 58.2866 62.8268 57.2625 63.0551 56.175C63.1659 55.1507 63.1068 54.1151 62.8801 53.11C62.6909 52.1759 62.617 51.2221 62.6601 50.27C62.7196 49.4383 62.8877 48.618 63.1601 47.83C63.542 46.6865 64.1432 45.6284 64.9301 44.715C65.1391 44.4667 65.3664 44.2344 65.6101 44.02C65.6873 43.9377 65.7747 43.8654 65.8701 43.805C65.8701 43.805 65.5351 44.13 65.0051 44.805C63.7427 46.3719 63.0046 48.2958 62.8951 50.305C62.8616 51.2415 62.9439 52.1786 63.1401 53.095C63.3786 54.1271 63.4428 55.1917 63.3301 56.245C63.093 57.3628 62.6153 58.4156 61.9301 59.33C61.2751 60.285 60.5701 61.16 60.0201 62.08C59.7495 62.5296 59.5251 63.0053 59.3501 63.5C59.1919 63.9756 59.0961 64.4697 59.0651 64.97C59.0429 65.9091 59.0697 66.8487 59.1451 67.785C59.1848 68.6147 59.1209 69.4461 58.9551 70.26C58.7045 71.4381 58.2292 72.5568 57.5551 73.555C57.3726 73.8248 57.1721 74.0821 56.9551 74.325C56.8773 74.4126 56.7901 74.4914 56.6951 74.56Z" fill="#455A64"/>
<path d="M51.9551 75.305C51.9954 75.1884 52.0473 75.0762 52.1101 74.97C52.2351 74.735 52.3951 74.425 52.6101 74.035C53.0301 73.22 53.6551 72.035 54.2701 70.535C55.0224 68.7831 55.4396 66.9057 55.5001 65C55.5004 64.4509 55.4586 63.9027 55.3751 63.36C55.2901 62.8 55.1601 62.235 55.0751 61.645C54.9711 61.0347 54.9847 60.4102 55.1151 59.805C55.2842 59.1837 55.6319 58.6256 56.1151 58.2C57.0551 57.345 58.1901 56.785 58.7801 55.78C59.2912 54.7835 59.5925 53.6926 59.6651 52.575C59.7709 51.5504 60.0026 50.5428 60.3551 49.575C61.1476 47.4972 62.5597 45.7133 64.4001 44.465C64.6935 44.2675 64.9991 44.0888 65.3151 43.93C65.4218 43.8661 65.536 43.8157 65.6551 43.78C65.6551 43.78 65.2051 44.02 64.4601 44.55C63.41 45.2993 62.501 46.2287 61.7751 47.295C61.2716 48.026 60.8618 48.8171 60.5551 49.65C60.2181 50.6201 59.9999 51.6274 59.9051 52.65C59.7551 53.715 59.6351 54.905 58.9951 55.96C58.3551 57.015 57.1851 57.615 56.2901 58.46C55.834 58.8558 55.5052 59.3777 55.3451 59.96C55.2235 60.5326 55.2117 61.123 55.3101 61.7C55.3901 62.275 55.5151 62.845 55.6001 63.41C55.6866 63.9657 55.7267 64.5276 55.7201 65.09C55.6521 67.0306 55.2125 68.9401 54.4251 70.715C53.9136 71.9145 53.3326 73.0831 52.6851 74.215L52.1551 75C52.0994 75.1084 52.0323 75.2107 51.9551 75.305Z" fill="#455A64"/>
<path d="M217.385 216.59C217.408 216.517 217.438 216.447 217.475 216.38C217.545 216.23 217.64 216.03 217.755 215.775C218.103 214.994 218.382 214.184 218.59 213.355C219.14 211.205 219.335 207.92 218.52 204.02C218.077 201.893 217.498 199.797 216.785 197.745C216.055 195.52 215.2 193.16 214.505 190.605C213.72 187.94 213.341 185.173 213.38 182.395C213.485 179.49 214.345 176.595 215.29 173.705C216.235 170.815 217.21 168 217.5 165.15C217.822 162.417 217.273 159.652 215.93 157.25C214.68 154.945 213.105 152.97 211.93 150.93C210.83 149.034 210.019 146.985 209.525 144.85C208.816 141.759 208.763 138.553 209.37 135.44C209.591 134.301 209.926 133.187 210.37 132.115C210.357 132.19 210.337 132.264 210.31 132.335L210.11 132.97C209.94 133.53 209.715 134.37 209.5 135.47C208.941 138.569 209.025 141.75 209.745 144.815C210.247 146.924 211.061 148.946 212.16 150.815C213.335 152.815 214.915 154.815 216.195 157.13C217.571 159.581 218.136 162.404 217.81 165.195C217.515 168.085 216.535 170.93 215.59 173.815C214.645 176.7 213.795 179.565 213.69 182.42C213.645 185.17 214.016 187.911 214.79 190.55C215.475 193.09 216.315 195.45 217.04 197.685C217.746 199.748 218.314 201.856 218.74 203.995C219.535 207.925 219.31 211.245 218.74 213.4C218.517 214.231 218.217 215.039 217.845 215.815L217.535 216.41C217.492 216.476 217.442 216.536 217.385 216.59Z" fill="#263238"/>
<path d="M213.53 152.945C213.53 152.945 211.14 145.29 215.43 140.81C215.463 140.774 215.506 140.748 215.553 140.735C215.6 140.721 215.65 140.721 215.698 140.735C215.745 140.748 215.787 140.775 215.82 140.811C215.853 140.847 215.876 140.892 215.885 140.94C216.115 142.205 216.4 146.055 213.53 152.945Z" fill="#FEC303"/>
<path d="M214.965 143.36C214.957 143.834 214.904 144.306 214.805 144.77C214.645 145.745 214.46 146.885 214.26 148.145C214.06 149.405 213.875 150.55 213.72 151.52C213.676 151.993 213.593 152.461 213.47 152.92C213.423 152.447 213.433 151.97 213.5 151.5C213.58 150.625 213.735 149.425 213.95 148.105C214.165 146.785 214.4 145.605 214.585 144.74C214.658 144.267 214.785 143.804 214.965 143.36Z" fill="#263238"/>
<path d="M216.34 171C216.34 171 217.805 163.115 223.695 161.165C223.742 161.149 223.792 161.146 223.84 161.156C223.888 161.167 223.932 161.191 223.967 161.225C224.002 161.259 224.027 161.303 224.039 161.35C224.051 161.398 224.05 161.448 224.035 161.495C223.645 162.71 222.1 166.245 216.34 171Z" fill="#FEC303"/>
<path d="M222.09 163.19C221.862 163.606 221.594 164 221.29 164.365L219.225 167.09L217.175 169.825C216.917 170.222 216.624 170.595 216.3 170.94C216.483 170.5 216.718 170.084 217 169.7C217.5 168.965 218.18 167.975 219 166.91C219.82 165.845 220.565 164.91 221.13 164.23C221.411 163.849 221.733 163.5 222.09 163.19Z" fill="#263238"/>
<path d="M214.75 190.765C214.75 190.765 213.86 182.795 218.93 179.22C218.969 179.189 219.016 179.171 219.065 179.166C219.115 179.161 219.165 179.171 219.209 179.193C219.253 179.216 219.29 179.251 219.315 179.294C219.34 179.336 219.352 179.385 219.35 179.435C219.335 180.72 218.88 184.55 214.75 190.765Z" fill="#FEC303"/>
<path d="M218 181.63C217.907 182.096 217.765 182.55 217.575 182.985L216.395 186.195C215.955 187.395 215.56 188.48 215.225 189.405C215.097 189.86 214.93 190.304 214.725 190.73C214.771 190.256 214.875 189.789 215.035 189.34C215.28 188.5 215.66 187.34 216.125 186.09C216.59 184.84 217.045 183.715 217.39 182.91C217.549 182.464 217.754 182.035 218 181.63Z" fill="#263238"/>
<path d="M219.185 210.655C219.185 210.655 218.585 202.655 223.775 199.265C223.816 199.237 223.863 199.221 223.912 199.219C223.962 199.216 224.011 199.228 224.054 199.251C224.097 199.275 224.132 199.311 224.156 199.354C224.181 199.397 224.192 199.446 224.19 199.495C224.13 200.78 223.54 204.595 219.185 210.655Z" fill="#FEC303"/>
<path d="M222.745 201.645C222.633 202.107 222.474 202.556 222.27 202.985C221.9 203.895 221.46 204.985 220.975 206.15C220.49 207.315 220.065 208.4 219.695 209.315C219.547 209.766 219.358 210.203 219.13 210.62C219.196 210.147 219.319 209.684 219.495 209.24C219.77 208.41 220.19 207.27 220.7 206.035C221.21 204.8 221.7 203.69 222.075 202.9C222.253 202.459 222.478 202.038 222.745 201.645Z" fill="#263238"/>
<path d="M210.09 146.22C210.09 146.22 203 142.5 202.845 136.305C202.845 136.256 202.857 136.209 202.882 136.167C202.906 136.125 202.942 136.09 202.984 136.067C203.027 136.043 203.075 136.031 203.123 136.033C203.172 136.034 203.219 136.049 203.26 136.075C204.315 136.805 207.245 139.325 210.09 146.22Z" fill="#FEC303"/>
<path d="M204.32 138.435C204.653 138.775 204.949 139.149 205.205 139.55C205.785 140.345 206.46 141.285 207.205 142.32L209.205 145.08C209.51 145.443 209.781 145.833 210.015 146.245C209.649 145.941 209.322 145.593 209.04 145.21C208.475 144.54 207.735 143.58 206.955 142.495C206.175 141.41 205.49 140.405 205.02 139.67C204.744 139.284 204.51 138.87 204.32 138.435Z" fill="#263238"/>
<path d="M217.725 162.655C217.725 162.655 210.405 159.38 209.89 153.195C209.886 153.146 209.895 153.098 209.917 153.054C209.939 153.01 209.972 152.974 210.013 152.948C210.055 152.922 210.103 152.908 210.151 152.907C210.2 152.907 210.248 152.92 210.29 152.945C211.385 153.61 214.46 155.94 217.725 162.655Z" fill="#FEC303"/>
<path d="M211.5 155.235C211.853 155.552 212.171 155.906 212.45 156.29L214.62 158.935L216.795 161.57C217.121 161.915 217.415 162.288 217.675 162.685C217.291 162.402 216.942 162.075 216.635 161.71C216.035 161.07 215.235 160.16 214.39 159.125C213.545 158.09 212.805 157.125 212.285 156.42C211.98 156.055 211.717 155.658 211.5 155.235Z" fill="#263238"/>
<path d="M213.5 181C213.5 181 208.5 174.75 210.835 169C210.854 168.955 210.884 168.916 210.923 168.887C210.963 168.858 211.009 168.84 211.058 168.836C211.106 168.832 211.155 168.842 211.199 168.863C211.242 168.885 211.279 168.919 211.305 168.96C212 170.045 213.665 173.525 213.5 181Z" fill="#FEC303"/>
<path d="M211.34 171.54C211.511 171.984 211.635 172.445 211.71 172.915C211.92 173.875 212.165 175.005 212.435 176.255C212.705 177.505 212.96 178.63 213.17 179.59C213.304 180.046 213.396 180.513 213.445 180.985C213.226 180.56 213.058 180.11 212.945 179.645C212.7 178.8 212.4 177.645 212.12 176.315C211.84 174.985 211.62 173.815 211.48 172.955C211.382 172.49 211.335 172.015 211.34 171.54Z" fill="#263238"/>
<path d="M218.5 202.555C218.5 202.555 211.235 199.16 210.825 192.97C210.82 192.921 210.829 192.871 210.851 192.827C210.873 192.782 210.907 192.745 210.95 192.719C210.992 192.693 211.04 192.679 211.09 192.679C211.14 192.679 211.188 192.694 211.23 192.72C212.305 193.405 215.34 195.79 218.5 202.555Z" fill="#FEC303"/>
<path d="M212.385 195.03C212.729 195.358 213.04 195.718 213.315 196.105L215.44 198.78L217.57 201.455C217.89 201.805 218.178 202.183 218.43 202.585C218.058 202.293 217.722 201.957 217.43 201.585C216.835 200.935 216.055 200.01 215.225 198.96C214.395 197.91 213.675 196.935 213.165 196.22C212.86 195.855 212.598 195.456 212.385 195.03Z" fill="#263238"/>
<path d="M232.955 171.035C232.955 171.035 232.955 171.095 232.955 171.21C232.955 171.325 232.955 171.515 232.955 171.71C232.955 172.21 232.905 172.845 232.87 173.655C232.78 175.365 232.645 177.75 232.49 180.6C231.99 183.5 230.49 186.715 228.49 189.84C227.035 192.14 225.49 194.23 224.19 196.175C223.003 197.882 221.938 199.67 221 201.525C220.379 202.779 219.877 204.088 219.5 205.435C219.375 205.91 219.275 206.285 219.22 206.54C219.196 206.673 219.161 206.803 219.115 206.93C219.117 206.795 219.134 206.661 219.165 206.53C219.2 206.27 219.275 205.89 219.39 205.405C219.726 204.034 220.204 202.702 220.815 201.43C221.744 199.56 222.809 197.76 224 196.045C225.31 194.085 226.825 191.99 228.275 189.705C230.25 186.595 231.72 183.43 232.275 180.575C232.475 177.73 232.64 175.35 232.775 173.64C232.84 172.83 232.895 172.185 232.935 171.7C232.935 171.5 232.97 171.33 232.985 171.2C232.968 171.146 232.958 171.091 232.955 171.035Z" fill="#263238"/>
<path d="M228.63 189.265C228.63 189.265 231.705 181.865 227.84 177.01C227.81 176.971 227.77 176.941 227.724 176.924C227.678 176.907 227.628 176.902 227.58 176.912C227.532 176.921 227.487 176.943 227.451 176.977C227.415 177.01 227.388 177.053 227.375 177.1C227.03 178.34 226.395 182.145 228.63 189.265Z" fill="#FEC303"/>
<path d="M228.07 179.595C228.203 180.051 228.285 180.521 228.315 180.995C228.425 181.865 228.545 183.07 228.64 184.405C228.735 185.74 228.78 186.95 228.78 187.83C228.81 188.305 228.781 188.782 228.695 189.25C228.609 188.783 228.567 188.31 228.57 187.835C228.505 186.835 228.425 185.7 228.34 184.425C228.255 183.15 228.175 181.995 228.105 181.015C228.047 180.544 228.035 180.068 228.07 179.595Z" fill="#263238"/>
<g opacity="0.3">
<path d="M228.63 189.265C228.63 189.265 231.705 181.865 227.84 177.01C227.81 176.971 227.77 176.941 227.724 176.924C227.678 176.907 227.628 176.902 227.58 176.912C227.532 176.921 227.487 176.943 227.451 176.977C227.415 177.01 227.388 177.053 227.375 177.1C227.03 178.34 226.395 182.145 228.63 189.265Z" fill="black"/>
</g>
<path d="M219.105 207.11C219.105 207.11 221.57 199.48 217.32 194.96C217.287 194.924 217.245 194.898 217.198 194.884C217.151 194.871 217.101 194.87 217.054 194.883C217.007 194.896 216.965 194.922 216.931 194.957C216.898 194.993 216.875 195.037 216.865 195.085C216.625 196.345 216.3 200.195 219.105 207.11Z" fill="#FEC303"/>
<path d="M217.76 197.5C217.933 197.944 218.054 198.408 218.12 198.88C218.3 199.735 218.515 200.93 218.72 202.25C218.925 203.57 219.065 204.775 219.14 205.65C219.205 206.122 219.213 206.601 219.165 207.075C219.046 206.616 218.966 206.148 218.925 205.675C218.78 204.7 218.61 203.56 218.425 202.295C218.24 201.03 218.06 199.89 217.925 198.915C217.824 198.45 217.768 197.976 217.76 197.5Z" fill="#263238"/>
<g opacity="0.3">
<path d="M219.105 207.11C219.105 207.11 221.57 199.48 217.32 194.96C217.287 194.924 217.245 194.898 217.198 194.884C217.151 194.871 217.101 194.87 217.054 194.883C217.007 194.896 216.965 194.922 216.931 194.957C216.898 194.993 216.875 195.037 216.865 195.085C216.625 196.345 216.3 200.195 219.105 207.11Z" fill="black"/>
</g>
<path d="M232.55 180.22C232.55 180.22 239.115 175.62 238.455 169.45C238.45 169.401 238.432 169.355 238.402 169.317C238.372 169.278 238.332 169.248 238.287 169.23C238.242 169.213 238.192 169.208 238.144 169.217C238.096 169.226 238.051 169.248 238.015 169.28C237.06 170.14 234.5 173 232.55 180.22Z" fill="#FEC303"/>
<g opacity="0.3">
<path d="M232.55 180.22C232.55 180.22 239.115 175.62 238.455 169.45C238.45 169.401 238.432 169.355 238.402 169.317C238.372 169.278 238.332 169.248 238.287 169.23C238.242 169.213 238.192 169.208 238.144 169.217C238.096 169.226 238.051 169.248 238.015 169.28C237.06 170.14 234.5 173 232.55 180.22Z" fill="black"/>
</g>
<path d="M237.265 171.755C237.135 172.213 236.952 172.654 236.72 173.07C236.345 173.86 235.8 174.94 235.165 176.12C234.53 177.3 233.92 178.345 233.45 179.085C233.219 179.5 232.938 179.887 232.615 180.235C232.791 179.795 233.008 179.373 233.265 178.975C233.735 178.11 234.29 177.1 234.9 175.975L236.53 172.975C236.735 172.545 236.981 172.137 237.265 171.755Z" fill="#263238"/>
<path d="M221.755 199.545C221.755 199.545 229.675 198.31 231.795 192.48C231.812 192.434 231.816 192.385 231.807 192.337C231.798 192.29 231.776 192.245 231.744 192.209C231.711 192.173 231.67 192.146 231.623 192.132C231.576 192.119 231.527 192.118 231.48 192.13C230.245 192.5 226.665 193.925 221.755 199.545Z" fill="#FEC303"/>
<g opacity="0.3">
<path d="M221.755 199.545C221.755 199.545 229.675 198.31 231.795 192.48C231.812 192.434 231.816 192.385 231.807 192.337C231.798 192.29 231.776 192.245 231.744 192.209C231.711 192.173 231.67 192.146 231.623 192.132C231.576 192.119 231.527 192.118 231.48 192.13C230.245 192.5 226.665 193.925 221.755 199.545Z" fill="black"/>
</g>
<path d="M229.715 194.025C229.394 194.375 229.035 194.689 228.645 194.96C227.96 195.51 226.995 196.24 225.91 197.02C224.825 197.8 223.81 198.465 223.06 198.925C222.669 199.198 222.246 199.421 221.8 199.59C222.155 199.274 222.538 198.991 222.945 198.745L225.735 196.775L228.52 194.775C228.891 194.483 229.291 194.232 229.715 194.025Z" fill="#263238"/>
<path d="M214.195 214.125L211.885 229.675H226.285L224.42 214.125H214.195Z" fill="#455A64"/>
<path d="M225 218.94C225 219.025 222.4 219.09 219.195 219.09C215.99 219.09 213.385 219.025 213.385 218.94C215.318 218.792 217.257 218.742 219.195 218.79C221.131 218.742 223.069 218.792 225 218.94Z" fill="#263238"/>
<path d="M225.28 220.18C225.28 220.265 222.595 220.33 219.28 220.33C215.965 220.33 213.28 220.265 213.28 220.18C213.28 220.095 215.965 220.03 219.28 220.03C222.595 220.03 225.28 220.095 225.28 220.18Z" fill="#263238"/>
<path d="M169.285 63.27C169.285 63.27 169.15 63.27 168.89 63.27C168.51 63.2475 168.13 63.2475 167.75 63.27C166.282 63.356 164.839 63.6943 163.485 64.27C161.339 65.1694 159.472 66.6243 158.075 68.485C157.214 69.6468 156.573 70.9569 156.185 72.35C155.31 75.6686 155.783 79.1986 157.5 82.17C157.968 82.9927 158.539 83.7522 159.2 84.43C159.867 85.1481 160.643 85.7557 161.5 86.23C162.38 86.725 163.376 86.9754 164.385 86.955C165.426 86.9425 166.423 86.5391 167.18 85.825C167.546 85.4417 167.833 84.9901 168.024 84.4959C168.215 84.0017 168.307 83.4748 168.295 82.945C168.287 81.8444 167.938 80.7733 167.295 79.88C166 78.055 163.9 76.83 161.665 76.17C159.348 75.5191 156.9 75.4846 154.565 76.07C153.373 76.3801 152.224 76.8369 151.145 77.43C150.055 78.0449 149.066 78.8222 148.21 79.735C148.005 79.97 147.77 80.185 147.585 80.445L147.02 81.205C146.677 81.7405 146.369 82.2985 146.1 82.875C145.565 84.0456 145.2 85.2864 145.015 86.56C144.652 89.1044 144.998 91.6996 146.015 94.06C146.987 96.3664 148.68 98.296 150.84 99.56C151.888 100.158 153.057 100.512 154.26 100.595C155.44 100.661 156.614 100.379 157.635 99.785C158.649 99.2246 159.45 98.3461 159.915 97.285C160.354 96.2392 160.384 95.067 160 94C159.605 92.9705 158.959 92.0561 158.12 91.34C157.307 90.6371 156.369 90.0927 155.355 89.735C153.378 89.1116 151.263 89.0751 149.265 89.63C147.396 90.1364 145.68 91.0926 144.265 92.415C142.977 93.6492 141.996 95.1682 141.4 96.85C140.359 99.7682 140.407 102.964 141.535 105.85C142.415 108.004 143.832 109.898 145.65 111.35C146.795 112.269 148.071 113.012 149.435 113.555C149.905 113.73 150.27 113.86 150.52 113.93L150.89 114.05C150.89 114.05 150.76 114.025 150.51 113.955C150.141 113.856 149.777 113.738 149.42 113.6C148.038 113.081 146.746 112.349 145.59 111.43C143.741 109.979 142.297 108.076 141.395 105.905C140.247 102.992 140.188 99.7626 141.23 96.81C141.827 95.1027 142.819 93.5607 144.125 92.31C145.56 90.9611 147.302 89.9827 149.2 89.46C151.239 88.891 153.4 88.9258 155.42 89.56C156.464 89.9239 157.429 90.4821 158.265 91.205C159.137 91.9446 159.807 92.8922 160.215 93.96C160.626 95.0748 160.608 96.3026 160.165 97.405C159.672 98.5079 158.835 99.4217 157.78 100.01C156.721 100.627 155.505 100.923 154.28 100.86C153.047 100.774 151.85 100.408 150.78 99.79C148.571 98.5083 146.836 96.5453 145.835 94.195C144.796 91.7913 144.44 89.1479 144.805 86.555C144.996 85.2556 145.37 83.9897 145.915 82.795C146.19 82.2062 146.504 81.6366 146.855 81.09L147.435 80.315C147.62 80.05 147.86 79.815 148.07 79.585C148.946 78.6548 149.957 77.8625 151.07 77.235C152.175 76.6306 153.35 76.167 154.57 75.855C156.95 75.2587 159.444 75.2949 161.805 75.96C164.085 76.64 166.22 77.885 167.565 79.775C168.241 80.7056 168.608 81.8248 168.615 82.975C168.639 84.107 168.213 85.2023 167.43 86.02C166.63 86.7709 165.577 87.1939 164.48 87.205C163.43 87.2288 162.394 86.9679 161.48 86.45C160.602 85.9657 159.809 85.3427 159.13 84.605C158.461 83.912 157.881 83.1376 157.405 82.3C155.657 79.2734 155.182 75.6765 156.085 72.3C156.485 70.8907 157.141 69.5671 158.02 68.395C159.443 66.5202 161.342 65.0612 163.52 64.17C164.885 63.6054 166.339 63.2871 167.815 63.23C168.198 63.2047 168.582 63.2047 168.965 63.23L169.285 63.27Z" fill="#263238"/>
<path d="M185.98 113.3H115.875V167.37H185.98V113.3Z" fill="#FEC303"/>
<path d="M115.875 113.3L128.825 125.38H197.74L185.98 113.3H115.875Z" fill="#FEC303"/>
<path d="M115.875 113.3L186 113.175H186.055L186.095 113.21L197.735 125.165L197.855 125.29L198.07 125.51H197.76L128.845 125.455H128.815L115.875 113.3L128.875 125.3H128.82L197.735 125.25L197.645 125.47L197.52 125.345L185.885 113.39L185.975 113.43L115.875 113.3Z" fill="#263238"/>
<path d="M136.935 138.235C136.555 138.249 136.196 138.411 135.935 138.687C135.674 138.963 135.531 139.33 135.538 139.71C135.545 140.09 135.7 140.452 135.972 140.719C136.243 140.985 136.608 141.134 136.988 141.134C137.368 141.134 137.732 140.985 138.004 140.719C138.275 140.452 138.43 140.09 138.437 139.71C138.444 139.33 138.302 138.963 138.04 138.687C137.779 138.411 137.42 138.249 137.04 138.235" fill="#263238"/>
<path d="M153.5 138.235C153.122 138.249 152.764 138.412 152.505 138.687C152.245 138.962 152.103 139.328 152.11 139.706C152.118 140.085 152.273 140.445 152.543 140.71C152.813 140.975 153.177 141.124 153.555 141.124C153.934 141.124 154.297 140.975 154.567 140.71C154.837 140.445 154.993 140.085 155 139.706C155.007 139.328 154.866 138.962 154.606 138.687C154.346 138.412 153.988 138.249 153.61 138.235" fill="#263238"/>
<path d="M153.595 151.175C153.306 150.07 152.836 149.021 152.205 148.07C151.503 147.053 150.601 146.188 149.555 145.53C148.293 144.692 146.821 144.226 145.306 144.185C143.792 144.143 142.296 144.528 140.99 145.295C139.911 145.897 138.964 146.71 138.205 147.685C137.521 148.601 136.996 149.625 136.65 150.715C136.654 150.634 136.667 150.553 136.69 150.475C136.738 150.25 136.8 150.028 136.875 149.81C137.149 149.007 137.549 148.252 138.06 147.575C138.814 146.554 139.773 145.703 140.875 145.075C142.215 144.275 143.755 143.873 145.315 143.915C146.875 143.958 148.391 144.443 149.685 145.315C150.75 145.999 151.659 146.898 152.355 147.955C152.83 148.66 153.19 149.437 153.42 150.255C153.482 150.477 153.53 150.702 153.565 150.93C153.582 151.011 153.592 151.093 153.595 151.175Z" fill="#263238"/>
<path opacity="0.5" d="M116.035 113.895L128.435 129.615H185.98V125.38H128.825L116.035 113.895Z" fill="black"/>
<path d="M172.155 167.25C172.085 167.25 172.025 157.845 172.025 146.25C172.025 134.655 172.085 125.25 172.155 125.25C172.225 125.25 172.29 134.65 172.29 146.25C172.29 157.85 172.23 167.25 172.155 167.25Z" fill="#263238"/>
<path d="M183.165 154.99H176.985V161.975H183.165V154.99Z" fill="#F5F5F5"/>
<path d="M115.875 113.3L101.485 125.38H115.875V113.3Z" fill="#FEC303"/>
<g opacity="0.4">
<path d="M115.875 113.3L101.485 125.38H115.875V113.3Z" fill="black"/>
</g>
<path d="M188.05 167.37H107.445V229.54H188.05V167.37Z" fill="#FEC303"/>
<path opacity="0.3" d="M188.05 167.37H107.445V229.54H188.05V167.37Z" fill="black"/>
<path d="M167.855 229.1C167.785 229.1 167.725 215.245 167.725 198.155C167.725 181.065 167.785 167.205 167.855 167.205C167.925 167.205 167.985 181.06 167.985 198.155C167.985 215.25 167.925 229.1 167.855 229.1Z" fill="#263238"/>
<path d="M181.215 215.39H175.035V222.375H181.215V215.39Z" fill="#F5F5F5"/>
<path d="M141.19 167.535H132.035V180.8H141.19V167.535Z" fill="#263238"/>
<path d="M141.19 216.09H132.035V229.355H141.19V216.09Z" fill="#263238"/>
<path d="M187.35 167.37H187.14H186.535L184.21 167.395L175.645 167.435L147.4 167.5L119.145 167.465L110.585 167.425L108.26 167.4L110.585 167.375L119.145 167.335L147.4 167.295L175.645 167.335L184.21 167.375L186.535 167.4H187.14L187.35 167.37Z" fill="#263238"/>
<path d="M49.2099 59.735L40.4299 57.575H40.4949C38.2279 59.017 35.6063 59.8044 32.9199 59.85C31.3295 59.8572 29.747 59.6263 28.2249 59.165C25.549 58.3058 23.175 56.6985 21.3834 54.533C19.5919 52.3676 18.4577 49.7345 18.1149 46.945C17.8457 44.8353 18.0439 42.6922 18.6954 40.6677C19.3469 38.6431 20.4358 36.7867 21.8849 35.23C22.6467 34.3933 23.5004 33.6452 24.4299 33C24.8999 32.705 25.3699 32.4 25.8599 32.145L26.6049 31.785L26.9749 31.605L27.3649 31.465C29.3726 30.6867 31.5264 30.3574 33.6749 30.5C36.5544 30.687 39.3141 31.7221 41.6062 33.475C43.8983 35.2279 45.6202 37.62 46.5549 40.35C47.0742 41.8771 47.3476 43.4771 47.3649 45.09C47.3774 47.7705 46.649 50.4024 45.2599 52.695V52.615C47.6999 57.02 48.9299 59.245 49.2049 59.735C48.9199 59.235 47.6449 57.05 45.1199 52.69V52.65V52.61C46.4591 50.3396 47.1508 47.7457 47.1199 45.11C47.0967 43.5229 46.8199 41.9497 46.2999 40.45C45.3754 37.7759 43.6825 35.4339 41.4332 33.7174C39.1839 32.0009 36.4782 30.9861 33.6549 30.8C31.5487 30.6627 29.4379 30.9869 27.4699 31.75L27.0899 31.885L26.7249 32.065L25.9949 32.415C25.4949 32.67 25.0549 32.965 24.5899 33.255C23.6783 33.8829 22.8398 34.6108 22.0899 35.425C20.6673 36.9532 19.5981 38.7754 18.9578 40.7627C18.3176 42.75 18.122 44.8537 18.3849 46.925C18.8485 50.7196 20.7953 54.1764 23.7999 56.54C25.1432 57.6044 26.6677 58.4174 28.2999 58.94C29.7946 59.4021 31.3504 59.6363 32.9149 59.635C35.5692 59.6066 38.1642 58.8471 40.4149 57.44H40.4449H40.4999L49.2099 59.735Z" fill="#263238"/>
<path d="M31.4999 38.65L31.9449 46C31.9626 46.2899 32.0858 46.5633 32.2912 46.7687C32.4966 46.974 32.77 47.0972 33.0599 47.115C33.3649 47.1322 33.665 47.032 33.8984 46.8348C34.1318 46.6377 34.2808 46.3586 34.3149 46.055L35.1299 38.69C35.1441 38.5582 35.1301 38.4249 35.0888 38.299C35.0476 38.173 34.9801 38.0573 34.8907 37.9594C34.8014 37.8615 34.6922 37.7838 34.5705 37.7313C34.4488 37.6788 34.3174 37.6528 34.1849 37.655H32.3999C32.2746 37.6587 32.1514 37.6877 32.0376 37.7403C31.9239 37.7928 31.8219 37.8678 31.7378 37.9607C31.6538 38.0536 31.5894 38.1626 31.5485 38.281C31.5076 38.3995 31.491 38.525 31.4999 38.65Z" fill="#FEC303"/>
<path d="M34.9999 51.22C34.888 51.5557 34.6791 51.8508 34.3996 52.0679C34.1201 52.2849 33.7825 52.4143 33.4295 52.4395C33.0765 52.4648 32.7239 52.3848 32.4163 52.2098C32.1087 52.0347 31.86 51.7724 31.7014 51.456C31.5429 51.1396 31.4817 50.7833 31.5255 50.4321C31.5694 50.0809 31.7164 49.7507 31.948 49.483C32.1795 49.2153 32.4852 49.0223 32.8264 48.9283C33.1676 48.8344 33.529 48.8436 33.8649 48.955C34.0883 49.029 34.2948 49.1464 34.4728 49.3003C34.6508 49.4543 34.7966 49.6418 34.902 49.8521C35.0075 50.0625 35.0704 50.2916 35.0872 50.5263C35.1039 50.761 35.0743 50.9967 34.9999 51.22Z" fill="#FEC303"/>
</svg>
