<svg width="250" height="250" viewBox="0 0 250 250" fill="none" xmlns="http://www.w3.org/2000/svg">
<path d="M102.53 22.07C102.53 22.07 125.89 17.335 147.145 22.07C160.145 24.965 187.52 31.83 193.985 47.39C200.45 62.95 169.335 76.225 184.62 92.01C191.215 98.82 222.86 107.8 221.08 151.97C219.3 196.14 172.935 223.065 108.5 221.865C44.0651 220.665 6.86505 162.07 31.7851 133.215C56.7051 104.36 67.4351 104.275 56.1401 80.775C44.8451 57.275 60.5251 28.795 102.53 22.07Z" fill="#FEC303"/>
<path opacity="0.7" d="M102.53 22.07C102.53 22.07 125.89 17.335 147.145 22.07C160.145 24.965 187.52 31.83 193.985 47.39C200.45 62.95 169.335 76.225 184.62 92.01C191.215 98.82 222.86 107.8 221.08 151.97C219.3 196.14 172.935 223.065 108.5 221.865C44.0651 220.665 6.86505 162.07 31.7851 133.215C56.7051 104.36 67.4351 104.275 56.1401 80.775C44.8451 57.275 60.5251 28.795 102.53 22.07Z" fill="white"/>
<path d="M165.29 83.9851H84.71L74.655 33.9651H175.345L165.29 83.9851Z" fill="#263238"/>
<path d="M82.215 35.5901L67.375 136.505H182.625L167.785 35.5901" fill="#FEC303"/>
<mask id="mask0_572_30563" style="mask-type:luminance" maskUnits="userSpaceOnUse" x="67" y="35" width="116" height="102">
<path d="M82.215 35.5901L67.375 136.505H182.625L167.785 35.5901" fill="white"/>
</mask>
<g mask="url(#mask0_572_30563)">
<path opacity="0.3" d="M182.625 136.505H67.375L73.58 94.3052H176.42L182.625 136.505Z" fill="black" fill-opacity="0.7"/>
</g>
<path d="M82.215 35.5901L67.375 136.505H182.625L167.785 35.5901" stroke="#263238" stroke-linecap="round" stroke-linejoin="round"/>
<path d="M164.65 35.5901H85.3499L71.5999 136.505H178.4L164.65 35.5901Z" fill="#263238"/>
<path d="M156.815 43.2802H113.77L113.27 42.1802C113.136 41.8816 112.918 41.6283 112.643 41.4509C112.368 41.2734 112.047 41.1794 111.72 41.1802H101.96C101.695 41.1802 101.44 41.2855 101.253 41.4731C101.065 41.6606 100.96 41.915 100.96 42.1802V43.3002H93.185C93.0447 43.3004 92.9062 43.3318 92.7795 43.3919C92.6527 43.4521 92.5409 43.5396 92.452 43.6481C92.3631 43.7566 92.2993 43.8834 92.2652 44.0195C92.2312 44.1556 92.2277 44.2976 92.255 44.4352L98.615 76.0602H151.385L157.745 44.4352C157.776 44.2962 157.775 44.152 157.742 44.0134C157.71 43.8748 157.647 43.7453 157.557 43.6344C157.468 43.5235 157.355 43.4341 157.226 43.3728C157.098 43.3115 156.957 43.2798 156.815 43.2802Z" fill="#BFBFBF" stroke="#263238" stroke-linecap="round" stroke-linejoin="round"/>
<path d="M158.44 45.7051L157.89 48.4351L152.24 76.5301C152.159 76.952 151.933 77.3324 151.602 77.6061C151.271 77.8798 150.855 78.0297 150.425 78.0301H99.5749C99.1452 78.0297 98.7291 77.8798 98.3979 77.6061C98.0667 77.3324 97.8412 76.952 97.7599 76.5301L91.9999 47.7701L91.5849 45.7051C91.5578 45.5687 91.5609 45.4281 91.5941 45.2931C91.6274 45.158 91.6898 45.032 91.7771 44.9237C91.8643 44.8155 91.9743 44.7277 92.0992 44.6666C92.2241 44.6055 92.3609 44.5726 92.4999 44.5701H157.5C157.641 44.5689 157.781 44.5991 157.909 44.6586C158.037 44.7181 158.15 44.8054 158.24 44.9141C158.33 45.0228 158.394 45.1502 158.429 45.287C158.464 45.4239 158.467 45.5667 158.44 45.7051Z" fill="white"/>
<mask id="mask1_572_30563" style="mask-type:luminance" maskUnits="userSpaceOnUse" x="91" y="44" width="68" height="35">
<path d="M158.44 45.7051L157.89 48.4351L152.24 76.5301C152.159 76.952 151.933 77.3324 151.602 77.6061C151.271 77.8798 150.855 78.0297 150.425 78.0301H99.5749C99.1452 78.0297 98.7291 77.8798 98.3979 77.6061C98.0667 77.3324 97.8412 76.952 97.7599 76.5301L91.9999 47.7701L91.5849 45.7051C91.5578 45.5687 91.5609 45.4281 91.5941 45.2931C91.6274 45.158 91.6898 45.032 91.7771 44.9237C91.8643 44.8155 91.9743 44.7277 92.0992 44.6666C92.2241 44.6055 92.3609 44.5726 92.4999 44.5701H157.5C157.641 44.5689 157.781 44.5991 157.909 44.6586C158.037 44.7181 158.15 44.8054 158.24 44.9141C158.33 45.0228 158.394 45.1502 158.429 45.287C158.464 45.4239 158.467 45.5667 158.44 45.7051Z" fill="white"/>
</mask>
<g mask="url(#mask1_572_30563)">
<path opacity="0.4" d="M157.89 48.435L152.24 76.53C152.158 76.9519 151.933 77.3323 151.602 77.606C151.271 77.8797 150.854 78.0296 150.425 78.03H99.5748C99.1451 78.0296 98.729 77.8797 98.3978 77.606C98.0666 77.3323 97.841 76.9519 97.7598 76.53L91.9998 47.77L157.89 48.435Z" fill="#FEC303"/>
</g>
<path d="M158.44 45.7051L157.89 48.4351L152.24 76.5301C152.159 76.952 151.933 77.3324 151.602 77.6061C151.271 77.8798 150.855 78.0297 150.425 78.0301H99.5749C99.1452 78.0297 98.7291 77.8798 98.3979 77.6061C98.0667 77.3324 97.8412 76.952 97.7599 76.5301L91.9999 47.7701L91.5849 45.7051C91.5578 45.5687 91.5609 45.4281 91.5941 45.2931C91.6274 45.158 91.6898 45.032 91.7771 44.9237C91.8643 44.8155 91.9743 44.7277 92.0992 44.6666C92.2241 44.6055 92.3609 44.5726 92.4999 44.5701H157.5C157.641 44.5689 157.781 44.5991 157.909 44.6586C158.037 44.7181 158.15 44.8054 158.24 44.9141C158.33 45.0228 158.394 45.1502 158.429 45.287C158.464 45.4239 158.467 45.5667 158.44 45.7051Z" stroke="#263238" stroke-linecap="round" stroke-linejoin="round"/>
<path d="M157.58 50.565H113.5L113 49.47C112.859 49.1694 112.634 48.9156 112.354 48.7384C112.073 48.5612 111.747 48.4681 111.415 48.47H101.415C101.15 48.47 100.895 48.5754 100.708 48.7629C100.52 48.9504 100.415 49.2048 100.415 49.47V50.59H92.4149C92.2732 50.5882 92.1329 50.618 92.0041 50.6771C91.8754 50.7362 91.7614 50.8233 91.6704 50.932C91.5795 51.0406 91.5139 51.1682 91.4783 51.3053C91.4428 51.4425 91.4382 51.5858 91.4649 51.725L97.9649 83.255H152L158.5 51.725C158.53 51.5865 158.53 51.4431 158.498 51.3049C158.466 51.1668 158.403 51.0375 158.315 50.9265C158.227 50.8154 158.116 50.7254 157.988 50.6628C157.861 50.6003 157.722 50.5669 157.58 50.565Z" fill="#BFBFBF" stroke="#263238" stroke-linecap="round" stroke-linejoin="round"/>
<path d="M159.24 53.075L158.69 55.745L152.895 83.81C152.806 84.2365 152.572 84.6189 152.233 84.8924C151.894 85.1658 151.47 85.3134 151.035 85.31H98.9648C98.5292 85.3134 98.1059 85.1658 97.7668 84.8924C97.4277 84.6189 97.1938 84.2365 97.1048 83.81L91.2898 55.65L90.7598 53.075C90.7331 52.9359 90.7377 52.7925 90.7732 52.6553C90.8088 52.5182 90.8744 52.3906 90.9653 52.282C91.0563 52.1733 91.1703 52.0863 91.299 52.0271C91.4278 51.968 91.5681 51.9382 91.7098 51.94H158.29C158.431 51.9382 158.572 51.968 158.701 52.0271C158.829 52.0863 158.943 52.1733 159.034 52.282C159.125 52.3906 159.191 52.5182 159.226 52.6553C159.262 52.7925 159.267 52.9359 159.24 53.075Z" fill="white"/>
<mask id="mask2_572_30563" style="mask-type:luminance" maskUnits="userSpaceOnUse" x="90" y="51" width="70" height="35">
<path d="M159.24 53.075L158.69 55.745L152.895 83.81C152.806 84.2365 152.572 84.6189 152.233 84.8924C151.894 85.1658 151.47 85.3134 151.035 85.31H98.9648C98.5292 85.3134 98.1059 85.1658 97.7668 84.8924C97.4277 84.6189 97.1938 84.2365 97.1048 83.81L91.2898 55.65L90.7598 53.075C90.7331 52.9359 90.7377 52.7925 90.7732 52.6553C90.8088 52.5182 90.8744 52.3906 90.9653 52.282C91.0563 52.1733 91.1703 52.0863 91.299 52.0271C91.4278 51.968 91.5681 51.9382 91.7098 51.94H158.29C158.431 51.9382 158.572 51.968 158.701 52.0271C158.829 52.0863 158.943 52.1733 159.034 52.282C159.125 52.3906 159.191 52.5182 159.226 52.6553C159.262 52.7925 159.267 52.9359 159.24 53.075Z" fill="white"/>
</mask>
<g mask="url(#mask2_572_30563)">
<path opacity="0.4" d="M158.69 55.7449L152.895 83.8099C152.806 84.2363 152.572 84.6188 152.233 84.8923C151.894 85.1657 151.47 85.3133 151.035 85.3099H98.9648C98.5292 85.3133 98.1058 85.1657 97.7668 84.8923C97.4277 84.6188 97.1938 84.2363 97.1048 83.8099L91.2898 55.6499L158.69 55.7449Z" fill="#FEC303"/>
</g>
<path d="M159.24 53.075L158.69 55.745L152.895 83.81C152.806 84.2365 152.572 84.6189 152.233 84.8924C151.894 85.1658 151.47 85.3134 151.035 85.31H98.9648C98.5292 85.3134 98.1059 85.1658 97.7668 84.8924C97.4277 84.6189 97.1938 84.2365 97.1048 83.81L91.2898 55.65L90.7598 53.075C90.7331 52.9359 90.7377 52.7925 90.7732 52.6553C90.8088 52.5182 90.8744 52.3906 90.9653 52.282C91.0563 52.1733 91.1703 52.0863 91.299 52.0271C91.4278 51.968 91.5681 51.9382 91.7098 51.94H158.29C158.431 51.9382 158.572 51.968 158.701 52.0271C158.829 52.0863 158.943 52.1733 159.034 52.282C159.125 52.3906 159.191 52.5182 159.226 52.6553C159.262 52.7925 159.267 52.9359 159.24 53.075Z" stroke="#263238" stroke-linecap="round" stroke-linejoin="round"/>
<path d="M158.34 57.8501H113.235L112.735 56.7551C112.588 56.4518 112.357 56.1966 112.07 56.0195C111.783 55.8424 111.452 55.7507 111.115 55.7551H100.855C100.721 55.7511 100.588 55.774 100.463 55.8224C100.338 55.8709 100.224 55.9439 100.128 56.0372C100.032 56.1304 99.9559 56.242 99.9038 56.3653C99.8517 56.4887 99.8249 56.6212 99.8249 56.7551V57.8701H91.6599C91.517 57.8656 91.3748 57.8931 91.2438 57.9506C91.1128 58.0081 90.9963 58.0942 90.9028 58.2025C90.8094 58.3108 90.7413 58.4386 90.7036 58.5766C90.6659 58.7146 90.6595 58.8593 90.6849 59.0001L97.3499 90.4351H152.65L159.315 59.0001C159.344 58.8579 159.34 58.711 159.304 58.5704C159.268 58.4299 159.2 58.2994 159.106 58.1887C159.012 58.078 158.895 57.99 158.762 57.9314C158.629 57.8727 158.485 57.8449 158.34 57.8501Z" fill="#BFBFBF" stroke="#263238" stroke-linecap="round" stroke-linejoin="round"/>
<path d="M159.07 59.3151H90.9299C90.7876 59.3106 90.646 59.338 90.5156 59.3952C90.3852 59.4525 90.2693 59.5382 90.1763 59.646C90.0833 59.7539 90.0156 59.8811 89.9782 60.0186C89.9407 60.156 89.9345 60.3 89.9599 60.4401L96.4599 91.0851C96.5554 91.5157 96.7967 91.9001 97.1428 92.1734C97.489 92.4467 97.9189 92.5921 98.3599 92.5851H151.645C152.086 92.5921 152.516 92.4467 152.862 92.1734C153.208 91.9001 153.449 91.5157 153.545 91.0851L160.045 60.4401C160.07 60.2996 160.064 60.1551 160.026 60.0173C159.989 59.8795 159.921 59.7519 159.827 59.644C159.733 59.536 159.617 59.4505 159.486 59.3935C159.355 59.3366 159.213 59.3098 159.07 59.3151Z" fill="white" stroke="#263238" stroke-linecap="round" stroke-linejoin="round"/>
<path d="M159.105 63.635H112.965L112.44 62.545C112.285 62.24 112.048 61.9846 111.756 61.8078C111.463 61.631 111.127 61.5399 110.785 61.545H100.285C100.149 61.5375 100.013 61.5578 99.8853 61.6047C99.7576 61.6516 99.6407 61.7241 99.542 61.8177C99.4432 61.9113 99.3646 62.0241 99.3109 62.1491C99.2573 62.2742 99.2297 62.4089 99.2299 62.545V63.66H90.8949C90.7506 63.6527 90.6066 63.6779 90.4733 63.7338C90.3401 63.7896 90.2211 63.8747 90.1251 63.9826C90.0291 64.0906 89.9586 64.2188 89.9188 64.3576C89.8789 64.4965 89.8708 64.6425 89.8949 64.785L96.7099 96.13H153.285L160.1 64.785C160.128 64.6412 160.123 64.4928 160.086 64.3511C160.048 64.2094 159.979 64.0782 159.883 63.9674C159.787 63.8565 159.667 63.769 159.532 63.7114C159.397 63.6538 159.251 63.6277 159.105 63.635Z" fill="#BFBFBF" stroke="#263238" stroke-linecap="round" stroke-linejoin="round"/>
<path d="M159.85 65.1851H90.1498C90.0055 65.1778 89.8614 65.203 89.7282 65.2589C89.595 65.3147 89.476 65.3998 89.38 65.5077C89.284 65.6157 89.2135 65.7439 89.1737 65.8827C89.1338 66.0216 89.1257 66.1676 89.1498 66.3101L95.7948 96.8651C95.9037 97.2946 96.1557 97.6743 96.5092 97.9415C96.8628 98.2087 97.2968 98.3475 97.7398 98.3351H152.24C152.683 98.3475 153.117 98.2087 153.47 97.9415C153.824 97.6743 154.076 97.2946 154.185 96.8651L160.83 66.3101C160.854 66.1693 160.846 66.0251 160.807 65.8878C160.768 65.7504 160.7 65.6234 160.606 65.5158C160.512 65.4082 160.396 65.3227 160.265 65.2655C160.134 65.2083 159.992 65.1809 159.85 65.1851Z" fill="white" stroke="#263238" stroke-linecap="round" stroke-linejoin="round"/>
<path d="M159.865 69.4201H112.695L112.16 68.3301C111.998 68.0228 111.753 67.7665 111.454 67.5899C111.155 67.4133 110.812 67.3234 110.465 67.3301H99.7499C99.4788 67.3165 99.2134 67.411 99.0118 67.5929C98.8103 67.7747 98.6891 68.0291 98.6749 68.3001V69.4102H90.1349C89.9929 69.4091 89.8522 69.4384 89.7223 69.496C89.5925 69.5535 89.4764 69.6381 89.3817 69.7441C89.2871 69.8501 89.2162 69.975 89.1736 70.1105C89.1311 70.2461 89.1179 70.3891 89.1349 70.5301L96.1049 101.78H153.915L160.885 70.5301C160.901 70.3882 160.886 70.2445 160.841 70.1088C160.797 69.973 160.724 69.8484 160.627 69.7432C160.531 69.638 160.413 69.5548 160.281 69.499C160.15 69.4433 160.008 69.4164 159.865 69.4201Z" fill="#BFBFBF" stroke="#263238" stroke-linecap="round" stroke-linejoin="round"/>
<path d="M160.625 71.0601H89.3748C89.2313 71.0539 89.0882 71.0797 88.9558 71.1356C88.8235 71.1915 88.7052 71.276 88.6095 71.3832C88.5138 71.4904 88.4431 71.6175 88.4025 71.7553C88.3619 71.8931 88.3525 72.0382 88.3748 72.1801L90.0448 79.6801L95.1648 102.645C95.2839 103.08 95.5462 103.461 95.9092 103.728C96.2722 103.995 96.7146 104.131 97.1648 104.115H152.865C153.315 104.131 153.757 103.995 154.12 103.728C154.483 103.461 154.746 103.08 154.865 102.645L157.365 91.3801L161.645 72.1851C161.668 72.0411 161.659 71.8936 161.618 71.7536C161.577 71.6136 161.504 71.4847 161.406 71.3766C161.308 71.2684 161.187 71.1838 161.052 71.129C160.916 71.0742 160.771 71.0507 160.625 71.0601Z" fill="white"/>
<mask id="mask3_572_30563" style="mask-type:luminance" maskUnits="userSpaceOnUse" x="88" y="71" width="74" height="34">
<path d="M160.625 71.0601H89.3748C89.2313 71.0539 89.0882 71.0797 88.9558 71.1356C88.8235 71.1915 88.7052 71.276 88.6095 71.3832C88.5138 71.4904 88.4431 71.6175 88.4025 71.7553C88.3619 71.8931 88.3525 72.0382 88.3748 72.1801L90.0448 79.6801L95.1648 102.645C95.2839 103.08 95.5462 103.461 95.9092 103.728C96.2722 103.995 96.7146 104.131 97.1648 104.115H152.865C153.315 104.131 153.757 103.995 154.12 103.728C154.483 103.461 154.746 103.08 154.865 102.645L157.365 91.3801L161.645 72.1851C161.668 72.0411 161.659 71.8936 161.618 71.7536C161.577 71.6136 161.504 71.4847 161.406 71.3766C161.308 71.2684 161.187 71.1838 161.052 71.129C160.916 71.0742 160.771 71.0507 160.625 71.0601Z" fill="white"/>
</mask>
<g mask="url(#mask3_572_30563)">
<path opacity="0.4" d="M90.0249 79.675L95.1449 102.64C95.264 103.075 95.5263 103.456 95.8893 103.723C96.2523 103.99 96.6947 104.126 97.1449 104.11H152.865C153.315 104.126 153.758 103.99 154.121 103.723C154.484 103.456 154.746 103.075 154.865 102.64L157.365 91.375L90.0249 79.675Z" fill="#FEC303"/>
</g>
<path d="M160.625 71.0601H89.3748C89.2313 71.0539 89.0882 71.0797 88.9558 71.1356C88.8235 71.1915 88.7052 71.276 88.6095 71.3832C88.5138 71.4904 88.4431 71.6175 88.4025 71.7553C88.3619 71.8931 88.3525 72.0382 88.3748 72.1801L90.0448 79.6801L95.1648 102.645C95.2839 103.08 95.5462 103.461 95.9092 103.728C96.2722 103.995 96.7146 104.131 97.1648 104.115H152.865C153.315 104.131 153.757 103.995 154.12 103.728C154.483 103.461 154.746 103.08 154.865 102.645L157.365 91.3801L161.645 72.1851C161.668 72.0411 161.659 71.8936 161.618 71.7536C161.577 71.6136 161.504 71.4847 161.406 71.3766C161.308 71.2684 161.187 71.1838 161.052 71.129C160.916 71.0742 160.771 71.0507 160.625 71.0601Z" stroke="#263238" stroke-linecap="round" stroke-linejoin="round"/>
<path d="M110.885 105.195L110.255 104.145C110.048 103.842 109.765 103.599 109.434 103.441C109.103 103.282 108.736 103.215 108.37 103.245L96.7299 103.78C96.4494 103.769 96.1756 103.867 95.9658 104.053C95.756 104.24 95.6266 104.5 95.6049 104.78L95.6549 105.88L86.3749 106.305C85.6649 106.335 85.1549 106.895 85.3249 107.46L94.3249 137.96L157.145 135.07L163.3 103.885C163.41 103.305 162.855 102.795 162.14 102.83L110.885 105.195Z" fill="#BFBFBF" stroke="#263238" stroke-linecap="round" stroke-linejoin="round"/>
<path d="M164.2 105.835L163.5 109.425L158.215 136.24C158.084 136.693 157.808 137.09 157.43 137.37C157.051 137.65 156.591 137.798 156.12 137.79L95.5849 140.57C95.1165 140.621 94.6443 140.517 94.2413 140.273C93.8382 140.029 93.5267 139.659 93.3549 139.22L84.9999 110.87L84.5949 109.495C84.4299 108.93 84.9399 108.37 85.6499 108.34L163.055 104.78C163.76 104.75 164.315 105.26 164.2 105.835Z" fill="white"/>
<mask id="mask4_572_30563" style="mask-type:luminance" maskUnits="userSpaceOnUse" x="84" y="104" width="81" height="37">
<path d="M164.2 105.835L163.5 109.425L158.215 136.24C158.084 136.693 157.808 137.09 157.43 137.37C157.051 137.65 156.591 137.798 156.12 137.79L95.5849 140.57C95.1165 140.621 94.6443 140.517 94.2413 140.273C93.8382 140.029 93.5267 139.659 93.3549 139.22L84.9999 110.87L84.5949 109.495C84.4299 108.93 84.9399 108.37 85.6499 108.34L163.055 104.78C163.76 104.75 164.315 105.26 164.2 105.835Z" fill="white"/>
</mask>
<g mask="url(#mask4_572_30563)">
<path opacity="0.4" d="M163.5 109.425L158.215 136.24C158.084 136.693 157.809 137.09 157.43 137.37C157.051 137.65 156.591 137.798 156.12 137.79L95.585 140.57C95.1166 140.621 94.6444 140.517 94.2414 140.273C93.8383 140.029 93.5268 139.659 93.355 139.22L85 110.87L163.5 109.425Z" fill="#FEC303"/>
</g>
<path d="M164.2 105.835L163.5 109.425L158.215 136.24C158.084 136.693 157.808 137.09 157.43 137.37C157.051 137.65 156.591 137.798 156.12 137.79L95.5849 140.57C95.1165 140.621 94.6443 140.517 94.2413 140.273C93.8382 140.029 93.5267 139.659 93.3549 139.22L84.9999 110.87L84.5949 109.495C84.4299 108.93 84.9399 108.37 85.6499 108.34L163.055 104.78C163.76 104.75 164.315 105.26 164.2 105.835Z" stroke="#263238" stroke-linecap="round" stroke-linejoin="round"/>
<path d="M112.22 112.155L111.685 111.055C111.501 110.731 111.235 110.461 110.914 110.271C110.593 110.082 110.228 109.98 109.855 109.975L98 109.355C97.716 109.311 97.4263 109.381 97.1927 109.548C96.9591 109.715 96.8002 109.967 96.75 110.25L96.695 111.345L87.235 110.845C86.51 110.805 85.94 111.31 86.05 111.885L92.165 143.03L156.23 146.38L165.555 116.045C165.725 115.48 165.21 114.92 164.485 114.885L112.22 112.155Z" fill="#BFBFBF" stroke="#263238" stroke-linecap="round" stroke-linejoin="round"/>
<path d="M166.28 118.16L164.78 123.1L157.21 147.73C157.028 148.171 156.706 148.539 156.294 148.779C155.882 149.02 155.403 149.118 154.93 149.06L93.1949 145.835C92.7185 145.842 92.2528 145.694 91.8684 145.412C91.484 145.131 91.2019 144.731 91.0649 144.275L85.8399 117.64L85.1099 113.915C84.9949 113.34 85.5699 112.835 86.2949 112.875L165.21 117C165.935 117.04 166.455 117.6 166.28 118.16Z" fill="white"/>
<mask id="mask5_572_30563" style="mask-type:luminance" maskUnits="userSpaceOnUse" x="85" y="112" width="82" height="38">
<path d="M166.28 118.16L164.78 123.1L157.21 147.73C157.028 148.171 156.706 148.539 156.294 148.779C155.882 149.02 155.403 149.118 154.93 149.06L93.1949 145.835C92.7185 145.842 92.2528 145.694 91.8684 145.412C91.484 145.131 91.2019 144.731 91.0649 144.275L85.8399 117.64L85.1099 113.915C84.9949 113.34 85.5699 112.835 86.2949 112.875L165.21 117C165.935 117.04 166.455 117.6 166.28 118.16Z" fill="white"/>
</mask>
<g mask="url(#mask5_572_30563)">
<path opacity="0.4" d="M164.76 123.1L157.19 147.73C157.007 148.171 156.686 148.539 156.274 148.779C155.862 149.02 155.383 149.118 154.91 149.06L93.1748 145.835C92.6984 145.842 92.2327 145.694 91.8483 145.412C91.4639 145.131 91.1818 144.731 91.0448 144.275L85.8198 117.64L164.76 123.1Z" fill="#FEC303"/>
</g>
<path d="M166.28 118.16L164.78 123.1L157.21 147.73C157.028 148.171 156.706 148.539 156.294 148.779C155.882 149.02 155.403 149.118 154.93 149.06L93.1949 145.835C92.7185 145.842 92.2528 145.694 91.8684 145.412C91.484 145.131 91.2019 144.731 91.0649 144.275L85.8399 117.64L85.1099 113.915C84.9949 113.34 85.5699 112.835 86.2949 112.875L165.21 117C165.935 117.04 166.455 117.6 166.28 118.16Z" stroke="#263238" stroke-linecap="round" stroke-linejoin="round"/>
<path d="M111.08 120.13L110.5 119.06C110.295 118.742 110.01 118.482 109.675 118.307C109.339 118.131 108.963 118.046 108.585 118.06H96.4399C96.1521 118.029 95.8636 118.111 95.6357 118.289C95.4078 118.468 95.2586 118.728 95.2199 119.015V120.105H85.5598C84.8198 120.105 84.2649 120.635 84.4099 121.205L92.2899 151.89H157.71L165.59 121.205C165.735 120.635 165.18 120.105 164.44 120.105L111.08 120.13Z" fill="#BFBFBF" stroke="#263238" stroke-linecap="round" stroke-linejoin="round"/>
<path d="M156.5 154.745H93.5C92.41 154.745 91.465 154.14 91.25 153.305L83.55 123.39C83.4 122.82 83.955 122.29 84.7 122.29H165.3C166.045 122.29 166.6 122.82 166.45 123.39L158.77 153.305C158.555 154.14 157.61 154.745 156.5 154.745Z" fill="white" stroke="#263238" stroke-linecap="round" stroke-linejoin="round"/>
<path d="M110.81 127.415L110.195 126.35C109.979 126.035 109.686 125.779 109.344 125.609C109.002 125.438 108.622 125.358 108.24 125.375H95.8898C95.5988 125.341 95.3059 125.421 95.0733 125.6C94.8408 125.778 94.6871 126.04 94.6448 126.33V127.415H84.7998C84.0398 127.415 83.4748 127.945 83.6248 128.515L91.6598 159.105H158.34L166.375 128.5C166.525 127.93 165.96 127.4 165.2 127.4L110.81 127.415Z" fill="#BFBFBF" stroke="#263238" stroke-linecap="round" stroke-linejoin="round"/>
<path d="M157.13 162H92.87C91.76 162 90.8 161.395 90.58 160.56L82.745 130.74C82.6 130.17 83.165 129.64 83.92 129.64H166.08C166.835 129.64 167.4 130.17 167.255 130.74L159.42 160.56C159.2 161.415 158.24 162 157.13 162Z" fill="white" stroke="#263238" stroke-linecap="round" stroke-linejoin="round"/>
<path d="M170.185 196.485H79.8149L60.0349 140.39H189.965L170.185 196.485Z" fill="#FEC303"/>
<mask id="mask6_572_30563" style="mask-type:luminance" maskUnits="userSpaceOnUse" x="60" y="140" width="130" height="57">
<path d="M170.185 196.485H79.8149L60.0349 140.39H189.965L170.185 196.485Z" fill="white"/>
</mask>
<g mask="url(#mask6_572_30563)">
<path opacity="0.3" d="M170.185 196.485H79.8149L60.0349 140.39H189.965L170.185 196.485Z" fill="black" fill-opacity="0.7"/>
</g>
<path d="M170.185 196.485H79.8149L60.0349 140.39H189.965L170.185 196.485Z" stroke="#263238" stroke-linecap="round" stroke-linejoin="round"/>
<path d="M188.245 133.005H61.7549L60.0349 140.39H189.965L188.245 133.005Z" fill="#FEC303" stroke="#263238" stroke-linecap="round" stroke-linejoin="round"/>
<path d="M93.6349 166.09L92.3699 178.065H157.63L156.365 166.09H153.485L154.305 174.635H95.6949L96.5149 166.09H93.6349Z" fill="#BFBFBF" stroke="#263238" stroke-linecap="round" stroke-linejoin="round"/>
<path d="M157.14 180.815H92.8599L92.3699 178.065H157.63L157.14 180.815Z" fill="#757575" stroke="#263238" stroke-linecap="round" stroke-linejoin="round"/>
<path d="M153.485 166.09L153.085 169.265L153.485 174.635H154.305L153.485 166.09Z" fill="#757575" stroke="#263238" stroke-linecap="round" stroke-linejoin="round"/>
<path d="M96.5148 166.09L96.9198 169.265L96.5148 174.635H95.6948L96.5148 166.09Z" fill="#757575" stroke="#263238" stroke-linecap="round" stroke-linejoin="round"/>
<path d="M146.03 160.08H103.97L101.965 149.92H148.035L146.03 160.08Z" fill="white" stroke="#263238" stroke-linecap="round" stroke-linejoin="round"/>
<path d="M116.21 156.47L116.49 152.165H117.77L118.145 158.14H117.32L117.025 153.92L116.74 158.14H115.91L114.91 153.98L115.285 158.14H114.5L113.92 152.165H115.2L116.21 156.47Z" fill="#263238"/>
<path d="M119.5 156.23L118.135 152.165H119.1L119.92 154.965L120.485 152.165H121.365L120.365 156.23L120.445 158.14H119.57L119.5 156.23Z" fill="#263238"/>
<path d="M124 154.9H125.165V155.75H124.015V158.14H123.14L123.04 152.165H125.5V153.06H124V154.9Z" fill="#263238"/>
<path d="M125.96 152.165H126.88L126.785 158.14H125.91L125.96 152.165Z" fill="#263238"/>
<path d="M127.555 152.165H128.5L128.345 157.325H129.79L129.755 158.14H127.445L127.555 152.165Z" fill="#263238"/>
<path d="M131.175 154.76H132.41L132.355 155.615H131.125L131.03 157.325H132.53L132.475 158.14H130.095L130.375 152.165H132.875L132.81 153.06H131.23L131.175 154.76Z" fill="#263238"/>
<path d="M134.725 152.095C135.625 152.095 136.03 152.665 135.935 153.66V153.85H135.075L135.1 153.595C135.14 153.155 134.985 152.985 134.695 152.985C134.405 152.985 134.225 153.155 134.195 153.595C134.165 154.035 134.31 154.37 134.855 154.915C135.54 155.605 135.73 156.095 135.665 156.76C135.575 157.685 135.08 158.205 134.225 158.205C133.37 158.205 132.96 157.705 133.025 156.76L133.055 156.405H133.895L133.86 156.82C133.825 157.235 133.99 157.38 134.27 157.38C134.55 157.38 134.74 157.235 134.77 156.82C134.8 156.405 134.66 156.08 134.12 155.545C133.425 154.855 133.22 154.355 133.275 153.66C133.325 152.665 133.83 152.095 134.725 152.095Z" fill="#263238"/>
<path d="M127.815 61.765L127.405 60.59C127.272 60.2553 127.05 59.9635 126.762 59.7466C126.475 59.5297 126.133 59.396 125.775 59.36L114.655 57.925C114.379 57.8721 114.092 57.9308 113.859 58.0882C113.626 58.2456 113.464 58.4889 113.41 58.765L113.265 59.89L104.405 58.75C104.258 58.7191 104.105 58.7219 103.959 58.7581C103.813 58.7943 103.677 58.863 103.561 58.9592C103.445 59.0553 103.353 59.1763 103.29 59.3133C103.228 59.4502 103.197 59.5995 103.2 59.75L106.355 92.32L166.355 100.055L177.665 69.35C177.706 69.2056 177.713 69.0538 177.687 68.906C177.662 68.7582 177.603 68.6181 177.515 68.4962C177.428 68.3742 177.314 68.2734 177.183 68.2014C177.051 68.1294 176.905 68.0879 176.755 68.08L127.815 61.765Z" fill="white"/>
<mask id="mask7_572_30563" style="mask-type:luminance" maskUnits="userSpaceOnUse" x="103" y="57" width="75" height="44">
<path d="M127.815 61.765L127.405 60.59C127.272 60.2553 127.05 59.9635 126.762 59.7466C126.475 59.5297 126.133 59.396 125.775 59.36L114.655 57.925C114.379 57.8721 114.092 57.9308 113.859 58.0882C113.626 58.2456 113.464 58.4889 113.41 58.765L113.265 59.89L104.405 58.75C104.258 58.7191 104.105 58.7219 103.959 58.7581C103.813 58.7943 103.677 58.863 103.561 58.9592C103.445 59.0553 103.353 59.1763 103.29 59.3133C103.228 59.4502 103.197 59.5995 103.2 59.75L106.355 92.32L166.355 100.055L177.665 69.35C177.706 69.2056 177.713 69.0538 177.687 68.906C177.662 68.7582 177.603 68.6181 177.515 68.4962C177.428 68.3742 177.314 68.2734 177.183 68.2014C177.051 68.1294 176.905 68.0879 176.755 68.08L127.815 61.765Z" fill="white"/>
</mask>
<g mask="url(#mask7_572_30563)">
<path opacity="0.4" d="M127.815 61.765L127.405 60.59C127.272 60.2553 127.05 59.9635 126.762 59.7466C126.475 59.5297 126.133 59.396 125.775 59.36L114.655 57.925C114.379 57.8721 114.092 57.9308 113.859 58.0882C113.626 58.2456 113.464 58.4889 113.41 58.765L113.265 59.89L104.405 58.75C104.258 58.7191 104.105 58.7219 103.959 58.7581C103.813 58.7943 103.677 58.863 103.561 58.9592C103.445 59.0553 103.353 59.1763 103.29 59.3133C103.228 59.4502 103.197 59.5995 103.2 59.75L106.355 92.32L166.355 100.055L177.665 69.35C177.706 69.2056 177.713 69.0538 177.687 68.906C177.662 68.7582 177.603 68.6181 177.515 68.4962C177.428 68.3742 177.314 68.2734 177.183 68.2014C177.051 68.1294 176.905 68.0879 176.755 68.08L127.815 61.765Z" fill="#FEC303"/>
</g>
<path d="M127.815 61.765L127.405 60.59C127.272 60.2553 127.05 59.9635 126.762 59.7466C126.475 59.5297 126.133 59.396 125.775 59.36L114.655 57.925C114.379 57.8721 114.092 57.9308 113.859 58.0882C113.626 58.2456 113.464 58.4889 113.41 58.765L113.265 59.89L104.405 58.75C104.258 58.7191 104.105 58.7219 103.959 58.7581C103.813 58.7943 103.677 58.863 103.561 58.9592C103.445 59.0553 103.353 59.1763 103.29 59.3133C103.228 59.4502 103.197 59.5995 103.2 59.75L106.355 92.32L166.355 100.055L177.665 69.35C177.706 69.2056 177.713 69.0538 177.687 68.906C177.662 68.7582 177.603 68.6181 177.515 68.4962C177.428 68.3742 177.314 68.2734 177.183 68.2014C177.051 68.1294 176.905 68.0879 176.755 68.08L127.815 61.765Z" stroke="#263238" stroke-linecap="round" stroke-linejoin="round"/>
<path d="M178.24 71.1951L168 99.0001L167.21 101.14C167.025 101.567 166.702 101.919 166.294 102.14C165.885 102.361 165.413 102.439 164.955 102.36L107.13 94.9001C106.667 94.8594 106.231 94.6643 105.891 94.346C105.552 94.0278 105.33 93.6048 105.26 93.1451L102.185 61.3951C102.182 61.2446 102.213 61.0953 102.275 60.9584C102.338 60.8214 102.43 60.7004 102.546 60.6043C102.662 60.5081 102.798 60.4394 102.944 60.4032C103.09 60.3669 103.243 60.3642 103.39 60.3951L152.6 66.7401L177.33 69.9251C177.48 69.9329 177.626 69.9744 177.758 70.0465C177.889 70.1185 178.003 70.2193 178.09 70.3412C178.178 70.4632 178.237 70.6033 178.263 70.7511C178.288 70.8989 178.281 71.0506 178.24 71.1951Z" fill="white"/>
<mask id="mask8_572_30563" style="mask-type:luminance" maskUnits="userSpaceOnUse" x="102" y="60" width="77" height="43">
<path d="M178.24 71.1951L168 99.0001L167.21 101.14C167.025 101.567 166.702 101.919 166.294 102.14C165.885 102.361 165.413 102.439 164.955 102.36L107.13 94.9001C106.667 94.8594 106.231 94.6643 105.891 94.346C105.552 94.0278 105.33 93.6048 105.26 93.1451L102.185 61.3951C102.182 61.2446 102.213 61.0953 102.275 60.9584C102.338 60.8214 102.43 60.7004 102.546 60.6043C102.662 60.5081 102.798 60.4394 102.944 60.4032C103.09 60.3669 103.243 60.3642 103.39 60.3951L152.6 66.7401L177.33 69.9251C177.48 69.9329 177.626 69.9744 177.758 70.0465C177.889 70.1185 178.003 70.2193 178.09 70.3412C178.178 70.4632 178.237 70.6033 178.263 70.7511C178.288 70.8989 178.281 71.0506 178.24 71.1951Z" fill="white"/>
</mask>
<g mask="url(#mask8_572_30563)">
<path opacity="0.3" d="M178.24 71.195L168 99C160.745 97.285 160.47 92.765 159.255 90.425C157.915 87.845 149.42 86.475 147.045 86.06C144.67 85.645 143.225 83.24 143.225 83.24C141.085 77.24 152.255 71.99 152.255 71.99C152.035 71.165 152.36 68.46 152.595 66.75L177.325 69.935C177.474 69.9425 177.62 69.9833 177.751 70.0545C177.882 70.1256 177.996 70.2253 178.084 70.3461C178.172 70.467 178.231 70.606 178.258 70.7529C178.285 70.8998 178.279 71.0508 178.24 71.195Z" fill="black" fill-opacity="0.7"/>
</g>
<path d="M178.24 71.1951L168 99.0001L167.21 101.14C167.025 101.567 166.702 101.919 166.294 102.14C165.885 102.361 165.413 102.439 164.955 102.36L107.13 94.9001C106.667 94.8594 106.231 94.6643 105.891 94.346C105.552 94.0278 105.33 93.6048 105.26 93.1451L102.185 61.3951C102.182 61.2446 102.213 61.0953 102.275 60.9584C102.338 60.8214 102.43 60.7004 102.546 60.6043C102.662 60.5081 102.798 60.4394 102.944 60.4032C103.09 60.3669 103.243 60.3642 103.39 60.3951L152.6 66.7401L177.33 69.9251C177.48 69.9329 177.626 69.9744 177.758 70.0465C177.889 70.1185 178.003 70.2193 178.09 70.3412C178.178 70.4632 178.237 70.6033 178.263 70.7511C178.288 70.8989 178.281 71.0506 178.24 71.1951Z" stroke="#263238" stroke-linecap="round" stroke-linejoin="round"/>
<path d="M113.06 69.9502L113.85 89.6002L120.97 90.5202L121.81 70.9402L113.06 69.9502Z" fill="#FEC303" stroke="#263238" stroke-linecap="round" stroke-linejoin="round"/>
<path d="M117.405 88.1551C117.495 87.8076 117.511 87.4449 117.452 87.0907C117.393 86.7366 117.259 86.399 117.06 86.1001C116.655 85.5063 116.169 84.9727 115.615 84.5151C116.441 84.9888 117.354 85.2915 118.3 85.4051C118.3 84.3801 117.3 83.6701 116.445 83.1301C116.641 83.0541 116.851 83.0227 117.06 83.0383C117.27 83.0538 117.473 83.116 117.655 83.2201C117.667 83.0611 117.642 82.9015 117.58 82.7545C117.518 82.6075 117.422 82.4774 117.3 82.3751C117.41 82.4701 117.58 82.3201 117.575 82.1801C117.548 82.0396 117.488 81.9076 117.4 81.7951C117.266 81.4922 117.212 81.1597 117.245 80.8301C117.245 79.6551 117.28 78.4751 117.295 77.3001C117.312 77.4075 117.359 77.5078 117.432 77.5886C117.505 77.6694 117.6 77.7272 117.705 77.7551C117.705 77.2901 117.65 76.8251 117.605 76.3601C117.495 75.1851 117.385 74.0051 117.27 72.8301" stroke="#263238" stroke-linecap="round" stroke-linejoin="round"/>
<path d="M230.5 133.84C230.5 133.84 190.15 97.7401 187.58 95.4651C185.01 93.1901 183.13 93.2901 181.745 91.9051C180.36 90.5201 179.665 89.5351 174.03 89.6301C168.395 89.7251 160.875 86.6651 159.195 85.5751C157.515 84.4851 155.14 85.2801 153.555 84.6651C151.97 84.0501 147.92 84.5901 145.445 84.6651C142.97 84.7401 142.775 82.2151 143.765 79.3451C144.755 76.4751 152.265 74.7001 153.265 75.2901C154.265 75.8801 158.21 74.2051 158.21 74.2051C157.615 72.1251 157.815 67.0801 157.815 67.0801C157.815 67.0801 153.66 65.3001 152.08 64.7101C150.863 64.3429 149.587 64.2089 148.32 64.3151C148.32 64.3151 148.82 62.0451 149.605 61.2001C150.39 60.3551 154.155 59.5651 157.815 56.9951C161.475 54.4251 163.75 53.8301 164.315 54.0251C164.88 54.2201 168.965 55.4101 170.055 55.4101C171.145 55.4101 172.725 54.4101 174.305 54.7201C175.885 55.0301 178.755 57.4901 180.04 57.7851C181.325 58.0801 181.72 58.3501 183.405 58.3501C184.145 58.3501 187.165 60.5551 187.165 60.5551C188.43 60.7966 189.659 61.1946 190.825 61.7401C192.7 62.6301 194.68 66.8851 195.57 68.2701C196.46 69.6551 196.57 73.0151 196.57 73.0151C196.57 73.0151 198.945 74.3001 199.835 76.0801C200.725 77.8601 233.5 95.4651 233.5 95.4651C233.5 95.4651 238.665 115.71 230.5 133.84Z" fill="white"/>
<path opacity="0.4" d="M201.77 108.125C194.54 101.655 188.54 96.2951 187.6 95.4651C185.025 93.1901 183.15 93.2901 181.765 91.9051C180.38 90.5201 179.685 89.5351 174.05 89.6301C168.415 89.7251 160.895 86.6651 159.215 85.5751C157.535 84.4851 155.16 85.2801 153.575 84.6651C151.99 84.0501 147.94 84.5901 145.465 84.6651C142.99 84.7401 142.795 82.2151 143.785 79.3451C144.775 76.4751 152.285 74.7001 153.285 75.2901C154.285 75.8801 158.23 74.2051 158.23 74.2051C157.635 72.1251 157.835 67.0801 157.835 67.0801C157.835 67.0801 153.68 65.3001 152.1 64.7101C150.883 64.3429 149.607 64.2089 148.34 64.3151C148.34 64.3151 148.84 62.0451 149.625 61.2001C150.41 60.3551 154.175 59.5651 157.835 56.9951C161.495 54.4251 163.77 53.8301 164.335 54.0251C164.9 54.2201 168.985 55.4101 170.075 55.4101C170.9 55.4101 172.015 54.8401 173.2 54.6951C172.24 55.2301 171.575 56.2501 171.755 56.7951C172.04 57.6551 172.845 59.8451 172.89 59.9851C172.675 59.7751 167.49 54.6551 164.14 54.9201C161.245 55.1451 158.305 60.0201 158.8 63.6001C159.295 67.1801 158.095 67.1801 158.745 69.8501C159.395 72.5201 159.985 76.2801 158.995 77.7651C158.005 79.2501 156.03 76.6101 156.03 76.6101C155.288 77.0171 154.667 77.612 154.228 78.3352C153.789 79.0584 153.548 79.8844 153.53 80.7301C153.53 83.6001 156.53 83.7951 158.3 84.0951C160.07 84.3951 166.6 87.9701 171.06 88.1601L175.52 88.3451C175.52 88.3451 172.945 84.8451 174.02 84.6651C175.095 84.4851 178.37 84.8051 180.52 88.1651C182.67 91.5251 184.32 92.2701 188.305 93.9201C190.66 94.8651 196.87 101.57 201.77 108.125Z" fill="#FEC303"/>
<path opacity="0.4" d="M221.53 88.95C220.925 88.665 201.53 79.525 200.555 78.16C199.58 76.795 198.38 76.46 197.29 75.085C196.2 73.71 192.545 72.82 192.05 70.94C191.555 69.06 190.96 63.355 190.05 62.65C189.302 62.1012 188.509 61.6161 187.68 61.2L189.15 64.865C189.15 64.865 185.8 60.12 185.005 59.99C184.21 59.86 185.865 63.44 185.72 63.33C185.575 63.22 181.945 59.83 178.905 57.26C179.266 57.4777 179.654 57.6459 180.06 57.76C181.35 58.055 181.74 58.325 183.425 58.325C184.165 58.325 187.185 60.53 187.185 60.53C188.45 60.7715 189.679 61.1696 190.845 61.715C192.72 62.605 194.7 66.86 195.59 68.245C196.48 69.63 196.59 72.99 196.59 72.99C196.59 72.99 198.965 74.275 199.855 76.055C200.39 77.135 212.085 83.74 221.53 88.95Z" fill="#FEC303"/>
<path d="M230.5 133.84C230.5 133.84 190.15 97.7401 187.58 95.4651C185.01 93.1901 183.13 93.2901 181.745 91.9051C180.36 90.5201 179.665 89.5351 174.03 89.6301C168.395 89.7251 160.875 86.6651 159.195 85.5751C157.515 84.4851 155.14 85.2801 153.555 84.6651C151.97 84.0501 147.92 84.5901 145.445 84.6651C142.97 84.7401 142.775 82.2151 143.765 79.3451C144.755 76.4751 152.265 74.7001 153.265 75.2901C154.265 75.8801 158.21 74.2051 158.21 74.2051C157.615 72.1251 157.815 67.0801 157.815 67.0801C157.815 67.0801 153.66 65.3001 152.08 64.7101C150.863 64.3429 149.587 64.2089 148.32 64.3151C148.32 64.3151 148.82 62.0451 149.605 61.2001C150.39 60.3551 154.155 59.5651 157.815 56.9951C161.475 54.4251 163.75 53.8301 164.315 54.0251C164.88 54.2201 168.965 55.4101 170.055 55.4101C171.145 55.4101 172.725 54.4101 174.305 54.7201C175.885 55.0301 178.755 57.4901 180.04 57.7851C181.325 58.0801 181.72 58.3501 183.405 58.3501C184.145 58.3501 187.165 60.5551 187.165 60.5551C188.43 60.7966 189.659 61.1946 190.825 61.7401C192.7 62.6301 194.68 66.8851 195.57 68.2701C196.46 69.6551 196.57 73.0151 196.57 73.0151C196.57 73.0151 198.945 74.3001 199.835 76.0801C200.725 77.8601 233.5 95.4651 233.5 95.4651" stroke="#263238" stroke-linecap="round" stroke-linejoin="round"/>
<path d="M157.83 67.0801C157.83 67.0801 158.29 63.1901 157.83 62.6501" stroke="#263238" stroke-linecap="round" stroke-linejoin="round"/>
<path d="M170.025 57.5552C170.025 57.5552 176.755 63.2502 177.28 63.6002" stroke="#263238" stroke-linecap="round" stroke-linejoin="round"/>
<path d="M176.345 55.6401C177.27 56.2151 184.73 62.8301 187.17 64.3451" stroke="#263238" stroke-linecap="round" stroke-linejoin="round"/>
<path d="M196.6 73C195.875 72.575 193.96 71.65 193.765 70.925" stroke="#263238" stroke-linecap="round" stroke-linejoin="round"/>
<path d="M158.225 74.2051C158.225 74.2051 158.62 75.8201 158.225 76.6101" stroke="#263238" stroke-linecap="round" stroke-linejoin="round"/>
<path d="M152.29 79.3152C152.29 79.3152 151.37 81.8852 153.545 83.6002" stroke="#263238" stroke-linecap="round" stroke-linejoin="round"/>
<path d="M161.26 54.9202C160.566 55.6468 160.107 56.5646 159.94 57.5552" stroke="#263238" stroke-linecap="round" stroke-linejoin="round"/>
<path d="M151 62.6501C151.218 63.2457 151.56 63.7883 152.003 64.2424C152.446 64.6965 152.98 65.0519 153.57 65.2851" stroke="#263238" stroke-linecap="round" stroke-linejoin="round"/>
<path d="M180.575 90.805C179.289 88.9409 177.876 87.1683 176.345 85.5" stroke="#263238" stroke-linecap="round" stroke-linejoin="round"/>
<path d="M42.2451 222.655C42.2451 222.655 74.5451 201.425 76.5201 198.685C77.5339 197.207 78.73 195.863 80.0801 194.685C80.0801 194.685 81.0051 186.77 83.3801 182.685C85.7551 178.6 86.6751 175.56 87.7301 173.45C88.7851 171.34 93.7951 169.76 95.2301 168.95C96.6651 168.14 99.1901 166.575 100.64 166.575C101.747 166.663 102.825 166.978 103.805 167.5C103.805 167.5 108.685 165 110.925 166.575C110.925 166.575 116.465 166.84 117.78 166.705C119.095 166.57 121.08 167.5 121.08 167.5C121.08 167.5 124.375 165.13 126.615 166.05C128.855 166.97 129.925 167.365 129.985 168.685C130.045 170.005 129.43 174.485 129.43 174.485H128.33C128.33 174.485 124.64 179.29 124.245 180.25C123.85 181.21 121.745 186.485 121.745 186.485C121.745 186.485 124.51 184.375 126.245 182.795C127.98 181.215 130.995 178.18 134.16 177.39C137.325 176.6 139.565 178.365 139.565 180.25C139.565 180.25 135.875 183.19 135.065 184.115C134.255 185.04 132.845 187.41 131.255 189.115C129.665 190.82 126 198 122.81 201.425C119.62 204.85 105.81 212.235 102.63 213.29C102.63 213.29 83.3801 226.74 74.9401 238.08C74.9401 238.08 52.0001 238.215 42.2451 222.655Z" fill="white"/>
<path opacity="0.4" d="M104.875 210.39C105.15 210.67 106.275 210.84 107.875 210.89C106.181 211.8 104.435 212.608 102.645 213.31C102.645 213.31 90.0551 222.105 80.7751 231.47C83.9701 226.385 90.1051 220.04 92.3851 218.72C95.5601 216.87 101.66 210.9 101.66 210.9C101.66 210.9 103.96 209.465 104.875 210.39Z" fill="#FEC303"/>
<path opacity="0.4" d="M126.235 182.83C127.586 181.503 129.033 180.278 130.565 179.165C128.938 180.951 127.614 182.991 126.645 185.205C126.035 188.52 120.315 195.355 120.315 195.355C122.16 189.425 120.575 188.235 121.095 186.52C121.615 184.805 121.95 180.6 121.95 180.6C121.95 180.6 122.95 178.875 124.005 178.48C125.06 178.085 127.83 171.095 128.345 170.15C128.86 169.205 124.93 167.65 123.875 167.535C122.82 167.42 122.425 169.245 120.315 170.15C118.205 171.055 115.555 172.715 114.58 173.685C113.605 174.655 111.91 178.945 111.8 179.21C111.875 178.91 113.07 174.095 113.38 173.135C113.64 172.335 116.175 170.86 117.115 170.335C115.555 171.06 114.68 169.685 113.38 168.435C111.985 167.095 109.905 166.67 107.63 167.365C105.355 168.06 103.83 169.775 103.82 169.645C103.81 169.515 100.42 168.92 99.3202 169.245C98.2202 169.57 95.6802 170.72 95.6802 170.72C95.6802 170.72 93.3702 169.39 89.5752 173.135C87.9902 174.7 82.7152 186.635 83.5052 185.205C84.2952 183.775 87.7402 179.505 87.9552 179.24C87.7252 179.8 80.7302 195.5 79.3002 196.5C77.8702 197.5 77.4552 201.04 72.3002 203.945C67.4102 206.7 48.5502 218.555 46.6802 219.73C55.6252 213.785 75.0002 200.79 76.5002 198.685C77.5139 197.207 78.71 195.863 80.0602 194.685C80.0602 194.685 80.9852 186.77 83.3602 182.685C85.7352 178.6 86.6552 175.56 87.7102 173.45C88.7652 171.34 93.7752 169.76 95.2102 168.95C96.6452 168.14 99.1702 166.575 100.62 166.575C101.727 166.663 102.805 166.978 103.785 167.5C103.785 167.5 108.665 165 110.905 166.575C110.905 166.575 116.445 166.84 117.76 166.705C119.075 166.57 121.06 167.5 121.06 167.5C121.06 167.5 124.355 165.13 126.595 166.05C128.835 166.97 129.905 167.365 129.965 168.685C130.025 170.005 129.41 174.485 129.41 174.485H128.31C128.31 174.485 124.62 179.29 124.225 180.25C123.83 181.21 121.725 186.485 121.725 186.485C121.725 186.485 124.5 184.41 126.235 182.83Z" fill="#FEC303"/>
<path opacity="0.4" d="M139.555 180.285C139.555 180.285 135.865 183.225 135.055 184.15C134.58 184.705 133.875 185.785 133.055 186.93C133.467 185.593 133.75 184.22 133.9 182.83C134.678 181.696 135.781 180.824 137.065 180.33C137.876 180.091 138.728 180.027 139.565 180.14C139.567 180.189 139.563 180.237 139.555 180.285Z" fill="#FEC303"/>
<path d="M42.2451 222.655C42.2451 222.655 74.5451 201.425 76.5201 198.685C77.5339 197.207 78.73 195.863 80.0801 194.685C80.0801 194.685 81.0051 186.77 83.3801 182.685C85.7551 178.6 86.6751 175.56 87.7301 173.45C88.7851 171.34 93.7951 169.76 95.2301 168.95C96.6651 168.14 99.1901 166.575 100.64 166.575C101.747 166.663 102.825 166.978 103.805 167.5C103.805 167.5 108.685 165 110.925 166.575C110.925 166.575 116.465 166.84 117.78 166.705C119.095 166.57 121.08 167.5 121.08 167.5C121.08 167.5 124.375 165.13 126.615 166.05C128.855 166.97 129.925 167.365 129.985 168.685C130.045 170.005 129.43 174.485 129.43 174.485H128.33C128.33 174.485 124.64 179.29 124.245 180.25C123.85 181.21 121.745 186.485 121.745 186.485C121.745 186.485 124.51 184.375 126.245 182.795C127.98 181.215 130.995 178.18 134.16 177.39C137.325 176.6 139.565 178.365 139.565 180.25C139.565 180.25 135.875 183.19 135.065 184.115C134.255 185.04 132.845 187.41 131.255 189.115C129.665 190.82 126 198 122.81 201.425C119.62 204.85 105.81 212.235 102.63 213.29C102.63 213.29 83.3801 226.74 74.9401 238.08" stroke="#263238" stroke-linecap="round" stroke-linejoin="round"/>
<path d="M121.755 186.5C121.755 186.5 122.545 190.46 120.96 194" stroke="#263238" stroke-linecap="round" stroke-linejoin="round"/>
<path d="M116.61 170.565C118.267 169.811 119.788 168.787 121.11 167.535" stroke="#263238" stroke-linecap="round" stroke-linejoin="round"/>
<path d="M128.345 174.5C128.771 173.628 129.061 172.695 129.205 171.735" stroke="#263238" stroke-linecap="round" stroke-linejoin="round"/>
<path d="M110.94 166.61C109.336 166.575 107.771 167.106 106.52 168.11" stroke="#263238" stroke-linecap="round" stroke-linejoin="round"/>
<path d="M103.82 167.535C103.82 167.535 99.8651 169.38 98.4801 169.38C97.0951 169.38 94.8501 171.225 94.8501 171.755" stroke="#263238" stroke-linecap="round" stroke-linejoin="round"/>
<path d="M80.0801 194.7C81.2482 192.904 82.2014 190.978 82.9201 188.96" stroke="#263238" stroke-linecap="round" stroke-linejoin="round"/>
<path d="M117.465 171.755C117.465 171.755 114.965 172.41 114.105 174.52C113.245 176.63 109.29 183.95 109.29 183.95" stroke="#263238" stroke-linecap="round" stroke-linejoin="round"/>
<path d="M104.875 170.565C104.345 171.82 98.4102 182.83 98.4102 182.83" stroke="#263238" stroke-linecap="round" stroke-linejoin="round"/>
</svg>
